<svg width="120" height="120" viewBox="0 0 120 120" fill="none" xmlns="http://www.w3.org/2000/svg">
  <g clip-path="url(#clip0_3271_26064)">
    <rect width="120" height="120" fill="white" />
    <path
      d="M108.688 100H8.2717C7.01888 100 6 98.9674 6 97.6977V29.3023C6 28.0326 7.01888 27 8.2717 27H108.688C109.941 27 110.96 28.0326 110.96 29.3023V97.6961C110.96 98.9658 109.941 99.9984 108.688 99.9984V100Z"
      fill="white"
    />
    <path
      d="M108.688 100H8.2717C7.01888 100 6 98.9674 6 97.6977V29.3023C6 28.0326 7.01888 27 8.2717 27H108.688C109.941 27 110.96 28.0326 110.96 29.3023V97.6961C110.96 98.9658 109.941 99.9984 108.688 99.9984V100ZM8.2717 27.9359C7.52832 27.9359 6.92345 28.5489 6.92345 29.3023V97.6961C6.92345 98.4495 7.52832 99.0625 8.2717 99.0625H108.688C109.432 99.0625 110.036 98.4495 110.036 97.6961V29.3023C110.036 28.5489 109.432 27.9359 108.688 27.9359H8.2717Z"
      fill="#DFDFDF"
    />
    <path
      d="M110.498 29.3024V31.1929H6.46173V29.3024C6.46173 28.2885 7.27283 27.468 8.2717 27.468H108.688C109.689 27.468 110.498 28.29 110.498 29.3024Z"
      fill="#DFDFDF"
    />
    <path
      d="M8.67649 29.8469C8.96975 29.8469 9.20748 29.606 9.20748 29.3088C9.20748 29.0116 8.96975 28.7706 8.67649 28.7706C8.38324 28.7706 8.14551 29.0116 8.14551 29.3088C8.14551 29.606 8.38324 29.8469 8.67649 29.8469Z"
      fill="white"
    />
    <path
      d="M10.448 29.8469C10.7413 29.8469 10.979 29.606 10.979 29.3088C10.979 29.0116 10.7413 28.7706 10.448 28.7706C10.1548 28.7706 9.91702 29.0116 9.91702 29.3088C9.91702 29.606 10.1548 29.8469 10.448 29.8469Z"
      fill="white"
    />
    <path
      d="M12.2195 29.8469C12.5127 29.8469 12.7505 29.606 12.7505 29.3088C12.7505 29.0116 12.5127 28.7706 12.2195 28.7706C11.9262 28.7706 11.6885 29.0116 11.6885 29.3088C11.6885 29.606 11.9262 29.8469 12.2195 29.8469Z"
      fill="white"
    />
    <path
      d="M99.0273 33.1692H16.7813C16.0231 33.1692 15.4085 33.7921 15.4085 34.5606C15.4085 35.329 16.0231 35.9519 16.7813 35.9519H99.0273C99.7855 35.9519 100.4 35.329 100.4 34.5606C100.4 33.7921 99.7855 33.1692 99.0273 33.1692Z"
      fill="#DFDFDF"
    />
    <path
      d="M42.7427 66.1579H24.4337C23.3286 66.1579 22.4298 65.247 22.4298 64.127V48.2636C22.4298 47.1436 23.3286 46.2327 24.4337 46.2327H42.7427C43.8478 46.2327 44.7466 47.1436 44.7466 48.2636V64.127C44.7466 65.247 43.8478 66.1579 42.7427 66.1579ZM24.4337 46.8566C23.6688 46.8566 23.0454 47.4883 23.0454 48.2636V64.127C23.0454 64.9023 23.6688 65.534 24.4337 65.534H42.7427C43.5077 65.534 44.131 64.9023 44.131 64.127V48.2636C44.131 47.4883 43.5077 46.8566 42.7427 46.8566H24.4337Z"
      fill="#DFDFDF"
    />
    <path
      d="M67.6345 66.1579H49.3254C48.2204 66.1579 47.3215 65.247 47.3215 64.127V48.2636C47.3215 47.1436 48.2204 46.2327 49.3254 46.2327H67.6345C68.7395 46.2327 69.6384 47.1436 69.6384 48.2636V64.127C69.6384 65.247 68.7395 66.1579 67.6345 66.1579ZM49.3254 46.8566C48.5605 46.8566 47.9372 47.4883 47.9372 48.2636V64.127C47.9372 64.9023 48.5605 65.534 49.3254 65.534H67.6345C68.3994 65.534 69.0227 64.9023 69.0227 64.127V48.2636C69.0227 47.4883 68.3994 46.8566 67.6345 46.8566H49.3254Z"
      fill="#DFDFDF"
    />
    <path
      d="M92.5262 66.1579H74.2171C73.1121 66.1579 72.2132 65.247 72.2132 64.127V48.2636C72.2132 47.1436 73.1121 46.2327 74.2171 46.2327H92.5262C93.6312 46.2327 94.5301 47.1436 94.5301 48.2636V64.127C94.5301 65.247 93.6312 66.1579 92.5262 66.1579ZM74.2171 46.8566C73.4522 46.8566 72.8289 47.4883 72.8289 48.2636V64.127C72.8289 64.9023 73.4522 65.534 74.2171 65.534H92.5262C93.2911 65.534 93.9144 64.9023 93.9144 64.127V48.2636C93.9144 47.4883 93.2911 46.8566 92.5262 46.8566H74.2171Z"
      fill="#DFDFDF"
    />
    <path
      d="M42.7427 90.9593H24.4337C23.3286 90.9593 22.4298 90.0484 22.4298 88.9284V73.065C22.4298 71.945 23.3286 71.0341 24.4337 71.0341H42.7427C43.8478 71.0341 44.7466 71.945 44.7466 73.065V88.9284C44.7466 90.0484 43.8478 90.9593 42.7427 90.9593ZM24.4337 71.658C23.6688 71.658 23.0454 72.2897 23.0454 73.065V88.9284C23.0454 89.7037 23.6688 90.3354 24.4337 90.3354H42.7427C43.5077 90.3354 44.131 89.7037 44.131 88.9284V73.065C44.131 72.2897 43.5077 71.658 42.7427 71.658H24.4337Z"
      fill="#DFDFDF"
    />
    <path
      d="M67.6345 90.9593H49.3254C48.2204 90.9593 47.3215 90.0484 47.3215 88.9284V73.065C47.3215 71.945 48.2204 71.0341 49.3254 71.0341H67.6345C68.7395 71.0341 69.6384 71.945 69.6384 73.065V88.9284C69.6384 90.0484 68.7395 90.9593 67.6345 90.9593ZM49.3254 71.658C48.5605 71.658 47.9372 72.2897 47.9372 73.065V88.9284C47.9372 89.7037 48.5605 90.3354 49.3254 90.3354H67.6345C68.3994 90.3354 69.0227 89.7037 69.0227 88.9284V73.065C69.0227 72.2897 68.3994 71.658 67.6345 71.658H49.3254Z"
      fill="#DFDFDF"
    />
    <path
      d="M92.5262 90.9593H74.2171C73.1121 90.9593 72.2132 90.0484 72.2132 88.9284V73.065C72.2132 71.945 73.1121 71.0341 74.2171 71.0341H92.5262C93.6312 71.0341 94.5301 71.945 94.5301 73.065V88.9284C94.5301 90.0484 93.6312 90.9593 92.5262 90.9593Z"
      fill="#17AD49"
    />
    <path
      d="M98.6718 40.9496L100.56 39.46C100.56 39.46 102.715 40.14 102.77 40.1681C102.826 40.1962 106.115 47.9267 106.115 47.9267C106.115 47.9267 97.6899 52.2974 98.3055 51.87C98.9211 51.4457 98.7934 45.6852 98.2208 44.935C97.6468 44.1831 98.1362 42.2957 98.1362 42.2957L98.6672 40.948H98.6703L98.6718 40.9496Z"
      fill="#2F2E43"
    />
    <path d="M103.892 44.4327H101.331V48.5507L104.156 47.6101L103.892 44.4327Z" fill="#F2A2A5" />
    <path
      d="M95.5259 70.9888C95.5921 70.6129 95.5659 70.2245 95.4489 69.8564L96.3416 65.9677L94.4378 65.5637L93.739 69.5522C93.5112 69.8579 93.3635 70.2167 93.3081 70.5942C93.1542 71.5379 93.5282 72.3927 94.1407 72.5003C94.7533 72.6095 95.3735 71.9325 95.5274 70.9888H95.5259Z"
      fill="#F2A2A5"
    />
    <path d="M103.094 93.714H100.449V97.5153H103.094V93.714Z" fill="#F2A2A5" />
    <path
      d="M97.8761 99.8163C99.0365 99.8163 100.731 99.693 100.743 99.6915C101.197 99.732 103.46 99.913 103.572 99.3889C103.675 98.9069 103.523 98.403 103.501 98.3329C103.283 96.1413 103.203 96.1148 103.154 96.1007C103.077 96.0773 102.852 96.1865 102.487 96.4252L102.464 96.4408L102.459 96.4673C102.453 96.5001 102.292 97.3049 101.525 97.1833C101 97.099 100.83 96.9805 100.776 96.9228C100.82 96.9025 100.876 96.8666 100.914 96.8058C100.971 96.7169 100.98 96.6014 100.943 96.4626C100.845 96.0992 100.549 95.561 100.537 95.5376L100.503 95.4768L97.499 97.5311L95.6428 98.0692C95.5028 98.1082 95.3904 98.2112 95.3335 98.3469C95.255 98.5356 95.3027 98.7571 95.4551 98.8944C95.7921 99.2017 96.4632 99.7273 97.165 99.7929C97.3512 99.81 97.599 99.8178 97.8776 99.8178L97.8761 99.8163Z"
      fill="#2F2E43"
    />
    <path d="M110.623 90.7262L108.379 92.1443L110.364 95.3697L112.608 93.9516L110.623 90.7262Z" fill="#F2A2A5" />
    <path
      d="M107.642 99.2968C108.011 99.2968 108.419 99.2437 108.762 99.0675C109.629 98.626 111.736 97.074 111.748 97.0631C112.153 96.8556 114.167 95.7949 113.989 95.2896C113.824 94.8247 113.432 94.4784 113.378 94.4317C112.048 92.6878 111.968 92.7096 111.919 92.7236C111.84 92.7455 111.708 92.9576 111.522 93.3554L111.511 93.3803L111.522 93.4053C111.534 93.438 111.817 94.207 111.103 94.5128C110.614 94.7233 110.407 94.7155 110.332 94.6937C110.36 94.6516 110.387 94.5923 110.389 94.519C110.392 94.4129 110.34 94.3084 110.235 94.2117C109.961 93.9559 109.43 93.658 109.407 93.6455L109.347 93.6127L107.869 96.9679L106.575 98.4186C106.477 98.5278 106.435 98.6744 106.458 98.821C106.49 99.0238 106.647 99.1845 106.847 99.2203C107.051 99.2562 107.335 99.2952 107.646 99.2952L107.642 99.2968Z"
      fill="#2F2E43"
    />
    <path
      d="M105.041 61.9215C105.041 61.9215 105.898 61.9215 107.241 64.645C108.585 67.37 106.875 78.3044 106.875 78.3044L111.662 90.8579L108.303 93.2413L102.173 79.7956L103.685 94.6888H99.9061L96.9664 68.9017L97.6375 61.9231H105.041V61.9215Z"
      fill="#2F2E43"
    />
    <path d="M105.616 46.9441H100.494L95.8752 62.3474H108.722L105.616 46.9441Z" fill="#17AD49" />
    <path
      d="M101.304 46.9442L96.0969 68.8161H93.4927C93.4927 68.8161 97.439 48.5617 97.776 47.7101C98.1116 46.8584 101.302 46.9442 101.302 46.9442H101.304Z"
      fill="#17AD49"
    />
    <path
      d="M101.682 45.5715C103.236 45.5715 104.496 44.2949 104.496 42.7201C104.496 41.1454 103.236 39.8688 101.682 39.8688C100.128 39.8688 98.8687 41.1454 98.8687 42.7201C98.8687 44.2949 100.128 45.5715 101.682 45.5715Z"
      fill="#F2A2A5"
    />
    <path
      d="M98.1777 42.2007L98.8672 42.3193C99.5105 39.7081 100.968 40.5613 101.107 40.5317C101.245 40.502 103.317 42.7997 103.149 45.1269C102.981 47.4526 105.949 48.543 105.949 48.543C105.949 48.543 106.986 50.5177 106.061 54.0913C105.136 57.6649 107.097 58.8644 107.097 58.8644C110.96 58.5321 108.637 53.0696 108.022 52.0775C107.406 51.0839 107.826 49.3541 107.826 49.3541C108.779 48.5024 107.658 46.6306 107.658 46.6306C107.658 46.6306 107.856 44.1333 107.268 43.6513C106.68 43.1694 106.652 41.9776 106.652 41.9776C105.615 37.4105 102.229 38.2902 102.229 38.2902C97.8899 37.8082 98.1792 42.1991 98.1792 42.1991L98.1777 42.2007Z"
      fill="#2F2E43"
    />
    <path
      d="M110.915 70.5318C110.844 70.1559 110.684 69.8018 110.446 69.5007L109.916 65.5435L107.994 65.8523L108.737 69.833C108.634 70.2011 108.622 70.5879 108.701 70.9623C108.887 71.8998 109.535 72.5627 110.146 72.4441C110.757 72.3256 111.102 71.4692 110.914 70.5318H110.915Z"
      fill="#F2A2A5"
    />
    <path
      d="M108.203 68.5586H110.808C110.808 68.5586 106.861 48.3042 106.524 47.4525C106.189 46.6008 103.378 46.9627 103.378 46.9627L108.203 68.5586Z"
      fill="#17AD49"
    />
    <g style="mix-blend-mode: color">
      <rect width="120" height="120" fill="white" />
    </g>
  </g>
  <defs>
    <clipPath id="clip0_3271_26064">
      <rect width="120" height="120" fill="white" />
    </clipPath>
  </defs>
</svg>
