<svg width="120" height="120" viewBox="0 0 120 120" fill="none" xmlns="http://www.w3.org/2000/svg">
  <rect width="120" height="120" fill="white" />
  <rect x="36.4597" y="20" width="66.2857" height="80" rx="1.85453" fill="url(#paint0_linear_3271_25820)" />
  <rect x="52.2826" y="29.3268" width="46.4762" height="4.95238" rx="2.47619" fill="#D2D9D7" />
  <rect x="52.2826" y="47.8721" width="46.4762" height="4.95238" rx="2.47619" fill="#D2D9D7" />
  <rect x="52.2826" y="66.4171" width="46.4762" height="4.95238" rx="2.47619" fill="#D2D9D7" />
  <rect x="52.2826" y="84.962" width="46.4762" height="4.95238" rx="2.47619" fill="#D2D9D7" />
  <rect x="41.1561" y="27.4729" width="8.7619" height="8.7619" rx="2.47267" fill="#D2D9D7" />
  <rect x="41.1561" y="46.0172" width="8.7619" height="8.7619" rx="2.47267" fill="#D2D9D7" />
  <rect x="41.1561" y="64.5625" width="8.7619" height="8.7619" rx="2.47267" fill="#D2D9D7" />
  <rect x="41.1561" y="83.1073" width="8.7619" height="8.7619" rx="2.47267" fill="#D2D9D7" />
  <mask id="mask0_3271_25820" style="mask-type: alpha" maskUnits="userSpaceOnUse" x="18" y="31" width="58" height="58">
    <circle cx="46.9329" cy="60.1615" r="28.5714" fill="#E6EFFF" />
  </mask>
  <g mask="url(#mask0_3271_25820)">
    <rect x="52.1116" y="-31.4642" width="89.1913" height="164.3" rx="9.38856" fill="#5A756B" />
    <rect x="47.4172" y="-31.4642" width="89.1913" height="164.3" rx="9.38856" fill="#D2D9D7" />
    <rect x="38.0273" y="-15.0333" width="89.1913" height="138.481" rx="9.38856" fill="#D2D9D7" />
    <rect
      x="35.6801"
      y="-12.6862"
      width="84.497"
      height="133.787"
      rx="7.04142"
      fill="#E1E6E4"
      stroke="#5A756B"
      stroke-width="4.69428"
    />
    <rect x="55.5652" y="45.9652" width="57.4978" height="6.1331" rx="3.06655" fill="#D2D9D7" />
    <rect x="55.5652" y="68.9666" width="57.4978" height="6.1331" rx="3.06655" fill="#D2D9D7" />
    <rect x="41.765" y="43.6671" width="10.6667" height="10.6667" rx="3.06655" fill="#D2D9D7" />
    <rect x="41.765" y="66.6666" width="10.6667" height="10.6667" rx="3.06655" fill="#D2D9D7" />
  </g>
  <circle
    opacity="0.1"
    cx="46.636"
    cy="60.134"
    r="28.5596"
    fill="#F0F2F2"
    stroke="url(#paint1_linear_3271_25820)"
    stroke-width="0.785549"
  />
  <mask id="mask1_3271_25820" style="mask-type: alpha" maskUnits="userSpaceOnUse" x="17" y="31" width="58" height="58">
    <circle cx="46.2551" cy="60.1615" r="28.5714" fill="#C4C4C4" />
  </mask>
  <g mask="url(#mask1_3271_25820)">
    <path
      opacity="0.5"
      d="M10.1985 69.5933L64.6747 21.3855V39.4634L10.1985 87.6712V69.5933Z"
      fill="url(#paint2_linear_3271_25820)"
    />
    <path
      opacity="0.5"
      d="M18.4409 86.5343L72.917 38.382V50.4201L18.4409 98.5724V86.5343Z"
      fill="url(#paint3_linear_3271_25820)"
    />
  </g>
  <defs>
    <linearGradient
      id="paint0_linear_3271_25820"
      x1="69.6025"
      y1="20"
      x2="69.6025"
      y2="100"
      gradientUnits="userSpaceOnUse"
    >
      <stop stop-color="#F0F2F2" />
      <stop offset="1" stop-color="#E1E6E4" />
    </linearGradient>
    <linearGradient
      id="paint1_linear_3271_25820"
      x1="22.2136"
      y1="47.5289"
      x2="72.0499"
      y2="74.1808"
      gradientUnits="userSpaceOnUse"
    >
      <stop stop-color="#4B685E" />
      <stop offset="0.322917" stop-color="#4B685E" stop-opacity="0.17" />
      <stop offset="0.791667" stop-color="#BBBBBB" stop-opacity="0.173333" />
      <stop offset="1" stop-color="#4B685E" />
    </linearGradient>
    <linearGradient
      id="paint2_linear_3271_25820"
      x1="37.4366"
      y1="21.3855"
      x2="37.4366"
      y2="87.6712"
      gradientUnits="userSpaceOnUse"
    >
      <stop stop-color="white" />
      <stop offset="1" stop-color="white" stop-opacity="0" />
    </linearGradient>
    <linearGradient
      id="paint3_linear_3271_25820"
      x1="45.679"
      y1="38.382"
      x2="45.679"
      y2="104.591"
      gradientUnits="userSpaceOnUse"
    >
      <stop stop-color="white" />
      <stop offset="1" stop-color="white" stop-opacity="0" />
    </linearGradient>
  </defs>
</svg>
