<svg width="782" height="18" viewBox="0 0 782 18" fill="none" xmlns="http://www.w3.org/2000/svg">
<g clip-path="url(#clip0_8231_25041)">
<rect width="782" height="18" fill="#14532B"/>
<path d="M641.381 84.5423C637.507 34.4586 663.495 -65.873 798.441 -66.5298C801.371 -14.6014 774.06 88.3128 641.381 84.5423Z" fill="#1ED5F2"/>
<path d="M645.105 80.4637C652.97 39.2497 695.9 -35.929 804.7 -6.93117C795.67 35.563 751.109 112.534 645.105 80.4637Z" fill="#E0C651" fill-opacity="0.95"/>
<path d="M614.536 108.732C578.807 94.8639 518.35 43.8879 562.359 -49.0736C599.045 -33.9477 660.843 18.7896 614.536 108.732Z" fill="#22C558"/>
<path d="M610.286 87.6848C572.335 93.0299 494.684 78.0663 487.694 -24.548C527.096 -29.2629 606.777 -13.4171 610.286 87.6848Z" fill="#14532B"/>
</g>
<defs>
<clipPath id="clip0_8231_25041">
<rect width="782" height="18" fill="white"/>
</clipPath>
</defs>
</svg>
