<svg width="22" height="22" viewBox="0 0 22 22" fill="none" xmlns="http://www.w3.org/2000/svg">
   <g clip-path="url(#clip0_7397_5672)">
      <rect width="22" height="22" rx="3.66667" fill="#00291B"/>
      <g clip-path="url(#clip1_7397_5672)">
         <g filter="url(#filter0_i_7397_5672)">
            <path fill-rule="evenodd" clip-rule="evenodd" d="M15.5625 10.438L15.5723 10.449C15.7005 10.0889 15.7666 9.69528 15.7666 9.28239C15.7666 8.0075 15.2711 6.80877 14.3709 5.90764C13.4708 5.0065 12.274 4.50996 11.0009 4.50996C9.72813 4.50996 8.53108 5.0065 7.63095 5.9079C6.73083 6.80903 6.23525 8.00777 6.23525 9.28239C6.23525 13.0175 8.36482 16.3357 12.5592 21.5218H11.1846C7.19106 16.5188 5.16431 13.1663 5.16431 9.28239C5.16431 7.72116 5.77153 6.2535 6.8738 5.14941C7.97633 4.04558 9.44192 3.4375 11.0009 3.4375C12.56 3.4375 14.0258 4.04531 15.1281 5.14941C16.2303 6.2535 16.8376 7.72116 16.8376 9.28239C16.8376 10.1921 16.5864 11.0407 16.1107 11.7356C15.3543 12.8421 14.1053 13.4513 12.5937 13.4513C11.3158 13.4513 10.0325 12.8558 8.98061 11.7745C8.03443 10.8018 7.326 9.48052 7.03712 8.14934L6.92708 7.6426L6.9201 7.6098C10.2135 12.8608 14.95 12.1645 15.5588 10.4488C15.5596 10.4468 15.5603 10.4448 15.561 10.4426C15.5615 10.4411 15.562 10.4395 15.5625 10.438ZM6.91996 7.60914L6.91957 7.60697L6.9195 7.60698L6.91996 7.60914Z" fill="url(#paint0_linear_7397_5672)"/>
         </g>
         <path d="M15.5587 10.448C15.5601 10.4445 15.5611 10.4407 15.5625 10.437C14.9346 9.71788 14.2128 9.11811 13.408 8.64864C12.5502 8.14808 11.5984 7.79443 10.5794 7.59737C8.8482 7.26303 7.5205 7.49656 7.46481 7.50675L6.91943 7.60595L6.91997 7.6089C10.2134 12.8599 14.9499 12.1636 15.5587 10.448Z" fill="#17AD49"/>
      </g>
   </g>
   <defs>
      <filter id="filter0_i_7397_5672" x="5.16431" y="3.32633" width="11.7845" height="18.1952" filterUnits="userSpaceOnUse" color-interpolation-filters="sRGB">
         <feFlood flood-opacity="0" result="BackgroundImageFix"/>
         <feBlend mode="normal" in="SourceGraphic" in2="BackgroundImageFix" result="shape"/>
         <feColorMatrix in="SourceAlpha" type="matrix" values="0 0 0 0 0 0 0 0 0 0 0 0 0 0 0 0 0 0 127 0" result="hardAlpha"/>
         <feOffset dx="0.18529" dy="-0.18529"/>
         <feGaussianBlur stdDeviation="0.055587"/>
         <feComposite in2="hardAlpha" operator="arithmetic" k2="-1" k3="1"/>
         <feColorMatrix type="matrix" values="0 0 0 0 0.0901961 0 0 0 0 0.678431 0 0 0 0 0.286274 0 0 0 0.35 0"/>
         <feBlend mode="normal" in2="shape" result="effect1_innerShadow_7397_5672"/>
      </filter>
      <linearGradient id="paint0_linear_7397_5672" x1="21.1139" y1="2.31484" x2="32.7321" y2="20.4711" gradientUnits="userSpaceOnUse">
         <stop stop-color="#A5EB12"/>
         <stop offset="1" stop-color="#3DBE3B"/>
      </linearGradient>
      <clipPath id="clip0_7397_5672">
         <rect width="22" height="22" rx="3.66667" fill="white"/>
      </clipPath>
      <clipPath id="clip1_7397_5672">
         <rect width="15.125" height="15.125" fill="white" transform="translate(3.4375 3.4375)"/>
      </clipPath>
   </defs>
</svg>
