<svg width="120" height="120" viewBox="0 0 120 120" fill="none" xmlns="http://www.w3.org/2000/svg">
  <rect width="120" height="120" fill="white" />
  <path
    d="M1.25 60.5C1.25 28.0188 27.5813 1.6875 60.0625 1.6875C92.5437 1.6875 118.875 28.0188 118.875 60.5C118.875 92.9812 92.5437 119.312 60.0625 119.312C27.5813 119.312 1.25 92.9812 1.25 60.5Z"
    stroke="#F1F2F3"
    stroke-width="0.5"
  />
  <path
    d="M13.25 60.5009C13.25 34.7555 34.1207 13.8848 59.8661 13.8848C85.6115 13.8848 106.482 34.7555 106.482 60.5009C106.482 86.2462 85.6115 107.117 59.8661 107.117C34.1207 107.117 13.25 86.2462 13.25 60.5009Z"
    stroke="#E6EAEA"
    stroke-width="0.5"
  />
  <path
    d="M27.2375 60.5008C27.2375 42.372 41.9338 27.6758 60.0625 27.6758C78.1913 27.6758 92.8876 42.372 92.8876 60.5008C92.8876 78.6295 78.1913 93.3258 60.0625 93.3258C41.9338 93.3258 27.2375 78.6295 27.2375 60.5008Z"
    stroke="#D9DEDE"
    stroke-width="0.5"
  />
  <path
    d="M39.0106 60.4825C39.0106 48.0658 49.0764 38 61.4931 38C73.9098 38 83.9756 48.0658 83.9756 60.4825C83.9756 72.8992 73.9098 82.965 61.4931 82.965C49.0764 82.965 39.0106 72.8992 39.0106 60.4825Z"
    fill="url(#paint0_linear_5860_17372)"
  />
  <path
    d="M36.7527 60.8815C36.7527 48.8805 46.4815 39.1518 58.4825 39.1518C70.4835 39.1518 80.2122 48.8805 80.2122 60.8815C80.2122 72.8825 70.4835 82.6113 58.4825 82.6113C46.4815 82.6113 36.7527 72.8825 36.7527 60.8815Z"
    fill="url(#paint1_linear_5860_17372)"
    stroke="#738482"
    stroke-width="1.50552"
  />
  <path
    d="M57.5912 65.3233C61.52 65.3233 64.7049 62.1383 64.7049 58.2095C64.7049 54.2807 61.52 51.0958 57.5912 51.0958C53.6624 51.0958 50.4774 54.2807 50.4774 58.2095C50.4774 62.1383 53.6624 65.3233 57.5912 65.3233Z"
    fill="#4C5857"
  />
  <path
    d="M58.1778 65.3212C61.3704 65.3212 63.9585 62.7331 63.9585 59.5405C63.9585 56.3479 61.3704 53.7598 58.1778 53.7598C54.9852 53.7598 52.3971 56.3479 52.3971 59.5405C52.3971 62.7331 54.9852 65.3212 58.1778 65.3212Z"
    fill="#D9DEDE"
  />
  <path
    d="M50.4819 44.2201C49.496 43.7993 48.412 43.6628 47.3526 43.826C46.2931 43.9892 45.3005 44.4456 44.487 45.1436C43.6913 45.8615 43.0856 46.7651 42.7239 47.7738C42.3621 48.7826 42.2556 49.8651 42.4136 50.925C42.732 53.0808 44.0426 54.9373 45.2507 56.7509C46.4587 58.5646 47.639 60.552 47.6376 62.7311C47.6366 64.3007 47.0133 65.8058 45.9042 66.9164C44.7951 68.027 43.2908 68.6525 41.7213 68.6556C43.5634 69.4486 45.4861 70.2572 47.4895 70.1632C49.4929 70.0692 51.5927 68.7813 51.9195 66.8025C52.155 65.3767 51.4554 63.9864 50.872 62.6643C49.9217 60.51 49.2349 58.2489 48.8263 55.93C48.561 54.8327 48.5745 53.6864 48.8654 52.5955C49.1527 51.8069 49.6858 51.1314 50.3862 50.6688C51.0866 50.2061 51.917 49.9808 52.7552 50.026L53.4171 49.4305C53.5305 48.3646 53.3087 47.2899 52.7826 46.356C52.2565 45.4221 51.4522 44.6755 50.4819 44.2201Z"
    fill="#4C5857"
  />
  <path
    d="M73.5238 75.424C70.078 79.3448 65.2286 81.7532 60.0224 82.1295C54.8163 82.5057 49.671 80.8196 45.6972 77.435L47.4032 72.6748C47.7887 71.8294 48.3971 71.1048 49.1631 70.5788C49.9291 70.0528 50.8238 69.7452 51.7514 69.689L52.8366 69.6224L55.4245 67.3904C55.4245 67.3904 62.3974 67.1414 62.2939 67.0222L66.5176 69.5627L66.5141 69.5452L68.1745 69.6469C69.102 69.7028 69.9969 70.0103 70.7629 70.5364C71.529 71.0624 72.1373 71.7871 72.5226 72.6328L73.5238 75.424Z"
    fill="#919F9D"
  />
  <path
    d="M53.0963 54.6525C54.6471 54.6525 55.9043 53.3953 55.9043 51.8444C55.9043 50.2936 54.6471 49.0364 53.0963 49.0364C51.5454 49.0364 50.2882 50.2936 50.2882 51.8444C50.2882 53.3953 51.5454 54.6525 53.0963 54.6525Z"
    fill="#4C5857"
  />
  <path
    d="M8.19385 102.91C8.19385 97.9891 12.1829 94 17.1037 94C22.0245 94 26.0135 97.9891 26.0135 102.91C26.0135 107.831 22.0245 111.82 17.1037 111.82C12.1829 111.82 8.19385 107.831 8.19385 102.91Z"
    fill="url(#paint2_linear_5860_17372)"
  />
  <path
    d="M7.29869 103.069C7.29869 98.3126 11.1542 94.4571 15.9102 94.4571C20.6662 94.4571 24.5217 98.3126 24.5217 103.069C24.5217 107.825 20.6662 111.68 15.9102 111.68C11.1542 111.68 7.29869 107.825 7.29869 103.069Z"
    fill="#E6EAEA"
    stroke="#738482"
    stroke-width="0.596642"
  />
  <path
    d="M15.6138 103.03C17.1776 103.03 18.4453 101.762 18.4453 100.198C18.4453 98.6345 17.1776 97.3668 15.6138 97.3668C14.0501 97.3668 12.7823 98.6345 12.7823 100.198C12.7823 101.762 14.0501 103.03 15.6138 103.03Z"
    fill="#D9DEDE"
  />
  <path
    d="M22.6324 107.962C21.3198 109.991 18.7492 111.255 16.4273 111.422C13.5635 111.542 11.1769 110.229 9.86429 108.797L10.8638 106.641C11.0357 106.264 11.307 105.941 11.6487 105.706C11.9903 105.472 12.3893 105.335 12.803 105.31L13.287 105.28L14.4411 104.284C14.4411 104.284 17.5509 104.173 17.5048 104.12L19.3885 105.253L19.3869 105.245L20.1274 105.291C20.5411 105.316 20.9402 105.453 21.2818 105.687C21.6234 105.922 21.8947 106.245 22.0666 106.622L22.6324 107.962Z"
    fill="#B8C1C0"
  />
  <path
    d="M18.6008 98.4415C18.3615 97.5851 17.8179 96.8454 17.072 96.3614C16.4775 95.9812 15.7358 95.7871 15.0623 95.9882C14.3888 96.1892 13.8313 96.8502 13.8753 97.5643C13.7506 97.5315 13.6191 97.5343 13.4959 97.5723C13.3726 97.6104 13.2625 97.6822 13.1779 97.7796C13.009 97.9791 12.8915 98.217 12.8358 98.4724C12.6197 99.273 12.634 100.118 12.8771 100.911L12.8637 101.025C13.0263 100.982 13.1768 100.902 13.3038 100.792C13.4308 100.681 13.5309 100.543 13.5965 100.388C13.7514 100.088 13.8406 99.7548 14.0086 99.4618C14.0811 99.3102 14.1904 99.1792 14.3266 99.0807C14.4628 98.9823 14.6215 98.9196 14.7882 98.8983L14.7589 99.4069C15.0452 99.2594 15.3314 99.1119 15.6177 98.9644L15.4134 99.4531L16.1634 99.1396C16.1355 99.2962 16.1076 99.4529 16.0796 99.6095C16.1452 99.4735 16.2376 99.3523 16.3514 99.2531C16.4651 99.1539 16.5979 99.0788 16.7415 99.0324C16.8851 98.9859 17.0366 98.9691 17.1869 98.9829C17.3372 98.9967 17.4832 99.0409 17.6159 99.1128C17.9149 99.3139 18.1304 99.6171 18.2222 99.9656C18.3129 100.313 18.3617 100.671 18.3673 101.03C18.7536 100.223 18.8365 99.3043 18.6008 98.4415Z"
    fill="#5D6C6B"
  />
  <path
    d="M89.4089 83.5143C89.4089 77.7074 94.1163 73 99.9232 73C105.73 73 110.438 77.7074 110.438 83.5143C110.438 89.3212 105.73 94.0286 99.9232 94.0286C94.1163 94.0286 89.4089 89.3212 89.4089 83.5143Z"
    fill="url(#paint3_linear_5860_17372)"
  />
  <path
    d="M88.3523 83.7004C88.3523 78.088 92.9021 73.5382 98.5146 73.5382C104.127 73.5382 108.677 78.088 108.677 83.7004C108.677 89.3129 104.127 93.8627 98.5146 93.8627C92.9021 93.8627 88.3523 89.3129 88.3523 83.7004Z"
    fill="#E6EAEA"
    stroke="#738482"
    stroke-width="0.704082"
  />
  <path
    d="M93.2 78.5751C93.6751 77.061 94.7555 75.6723 96.2496 75.1605C97.7439 74.6486 99.9318 75.4284 101.055 76.5479C103.11 78.5957 103.611 85.6308 102.2 87.8539C101.919 87.8391 100.95 87.8281 100.666 87.8174L100.264 86.4775V87.8042C99.8109 87.7902 99.3546 87.7806 98.8948 87.7752C97.353 87.7561 95.8786 87.14 94.7817 86.0564C93.6848 84.9727 93.0507 83.506 93.0128 81.9646C92.976 80.4899 93.0128 79.1718 93.2 78.5751Z"
    fill="#5D6C6B"
  />
  <path
    d="M98.3549 83.5939C100.163 83.5939 101.629 82.1278 101.629 80.3194C101.629 78.511 100.163 77.0449 98.3549 77.0449C96.5465 77.0449 95.0804 78.511 95.0804 80.3194C95.0804 82.1278 96.5465 83.5939 98.3549 83.5939Z"
    fill="#D9DEDE"
  />
  <path
    d="M95.5291 77.4425L99.2993 75.5547C100.07 75.902 100.734 76.4493 101.222 77.1396C101.71 77.83 102.004 78.6383 102.075 79.4809L102.169 80.6065L100.59 80.2046L100.417 78.7653L100.149 80.0924L99.4203 79.907L99.4273 77.6724L98.6982 79.9054L96.0959 79.3075L95.5291 77.4425Z"
    fill="#5D6C6B"
  />
  <path
    d="M106.447 89.4749C104.898 91.8688 101.865 93.3605 99.125 93.5586C95.7454 93.6994 92.929 92.1504 91.3801 90.4606L92.5595 87.9163C92.7624 87.4714 93.0826 87.09 93.4858 86.8132C93.8889 86.5364 94.3598 86.3745 94.8479 86.3449L95.4191 86.3098L96.7811 85.1352C96.7811 85.1352 100.451 85.0042 100.396 84.9414L102.619 86.2785L102.617 86.2692L103.491 86.3227C103.979 86.3522 104.45 86.514 104.854 86.7909C105.257 87.0677 105.577 87.4491 105.78 87.8942L106.447 89.4749Z"
    fill="#B8C1C0"
  />
  <path
    d="M30.2714 19.4887C30.2714 14.2482 34.5196 10 39.7601 10C45.0005 10 49.2488 14.2482 49.2488 19.4887C49.2488 24.7291 45.0005 28.9773 39.7601 28.9773C34.5196 28.9773 30.2714 24.7291 30.2714 19.4887Z"
    fill="url(#paint4_linear_5860_17372)"
  />
  <path
    d="M29.3181 19.6579C29.3181 14.5929 33.4241 10.4869 38.489 10.4869C43.554 10.4869 47.66 14.5929 47.66 19.6579C47.66 24.7228 43.554 28.8288 38.489 28.8288C33.4241 28.8288 29.3181 24.7228 29.3181 19.6579Z"
    fill="#E6EAEA"
    stroke="#738482"
    stroke-width="0.635402"
  />
  <path
    d="M38.1734 19.6165C39.8388 19.6165 41.1889 18.2664 41.1889 16.601C41.1889 14.9356 39.8388 13.5856 38.1734 13.5856C36.508 13.5856 35.158 14.9356 35.158 16.601C35.158 18.2664 36.508 19.6165 38.1734 19.6165Z"
    fill="#D9DEDE"
  />
  <path
    d="M45.648 24.869C44.2501 27.0293 41.5125 28.3756 39.0398 28.5543C35.9898 28.6814 33.4482 27.2835 32.0504 25.7585L33.1148 23.4625C33.2979 23.0609 33.5868 22.7167 33.9506 22.4669C34.3145 22.2171 34.7394 22.071 35.1799 22.0443L35.6954 22.0127L36.9245 20.9526C36.9245 20.9526 40.2363 20.8343 40.1872 20.7777L42.1933 21.9843L42.1916 21.976L42.9802 22.0243C43.4208 22.0509 43.8458 22.1969 44.2096 22.4468C44.5734 22.6966 44.8624 23.0408 45.0454 23.4425L45.648 24.869Z"
    fill="#B8C1C0"
  />
  <path
    d="M41.3544 14.7301C41.0996 13.8181 40.5207 13.0304 39.7263 12.5149C39.0932 12.11 38.3032 11.9033 37.586 12.1174C36.8688 12.3316 36.275 13.0354 36.322 13.7959C36.1891 13.761 36.0491 13.764 35.9178 13.8045C35.7866 13.845 35.6693 13.9215 35.5793 14.0253C35.3993 14.2377 35.2742 14.491 35.2149 14.763C34.9847 15.6157 35 16.516 35.2589 17.3603L35.2446 17.4815C35.4177 17.4354 35.578 17.3504 35.7133 17.2329C35.8485 17.1154 35.9551 16.9685 36.025 16.8035C36.19 16.4837 36.285 16.1288 36.4639 15.8167C36.5411 15.6553 36.6575 15.5157 36.8026 15.4109C36.9476 15.3061 37.1166 15.2393 37.2941 15.2166L37.2629 15.7583C37.5678 15.6012 37.8727 15.4441 38.1775 15.287L37.96 15.8074L38.7587 15.4736C38.729 15.6404 38.6992 15.8072 38.6694 15.974C38.7392 15.8292 38.8377 15.7001 38.9589 15.5944C39.08 15.4888 39.2213 15.4088 39.3743 15.3594C39.5272 15.3099 39.6886 15.292 39.8487 15.3067C40.0088 15.3215 40.1642 15.3685 40.3056 15.445C40.624 15.6592 40.8535 15.9821 40.9512 16.3532C41.0478 16.7235 41.0997 17.104 41.1058 17.4867C41.5172 16.6275 41.6055 15.649 41.3544 14.7301Z"
    fill="#5D6C6B"
  />
  <defs>
    <linearGradient
      id="paint0_linear_5860_17372"
      x1="61.4931"
      y1="38"
      x2="61.4931"
      y2="82.965"
      gradientUnits="userSpaceOnUse"
    >
      <stop stop-color="#B8C1C0" />
      <stop offset="1" stop-color="#99A3A3" />
    </linearGradient>
    <linearGradient
      id="paint1_linear_5860_17372"
      x1="58.4825"
      y1="38.399"
      x2="58.4825"
      y2="83.364"
      gradientUnits="userSpaceOnUse"
    >
      <stop stop-color="#EFF1F1" />
      <stop offset="1" stop-color="#D9DEDE" />
    </linearGradient>
    <linearGradient
      id="paint2_linear_5860_17372"
      x1="17.1037"
      y1="94"
      x2="17.1037"
      y2="111.82"
      gradientUnits="userSpaceOnUse"
    >
      <stop stop-color="#B8C1C0" />
      <stop offset="1" stop-color="#99A3A3" />
    </linearGradient>
    <linearGradient
      id="paint3_linear_5860_17372"
      x1="99.9232"
      y1="73"
      x2="99.9232"
      y2="94.0286"
      gradientUnits="userSpaceOnUse"
    >
      <stop stop-color="#B8C1C0" />
      <stop offset="1" stop-color="#99A3A3" />
    </linearGradient>
    <linearGradient
      id="paint4_linear_5860_17372"
      x1="39.7601"
      y1="10"
      x2="39.7601"
      y2="28.9773"
      gradientUnits="userSpaceOnUse"
    >
      <stop stop-color="#B8C1C0" />
      <stop offset="1" stop-color="#99A3A3" />
    </linearGradient>
  </defs>
</svg>
