<svg width="134" height="120" viewBox="0 0 134 120" fill="none" xmlns="http://www.w3.org/2000/svg">
  <g clip-path="url(#clip0_4845_623)">
    <path
      d="M63.1349 44.1872H53.0449V41.126C56.2333 38.9084 59.0583 39.1012 62.7745 41.3061L63.1349 44.1872Z"
      fill="#17AD49"
    />
    <path d="M50.7084 98.5613L48.4994 98.5611L48.1691 90.0459L50.7088 90.0461L50.7084 98.5613Z" fill="#FFB8B8" />
    <path
      d="M51.2717 100.701L44.1491 100.701V100.611C44.1491 100.247 44.2208 99.8867 44.3601 99.5506C44.4994 99.2144 44.7036 98.909 44.9611 98.6517C45.2185 98.3944 45.5241 98.1903 45.8605 98.0511C46.1968 97.9119 46.5573 97.8402 46.9214 97.8402L51.2718 97.8404L51.2717 100.701Z"
      fill="#2F2E41"
    />
    <path d="M63.1503 98.5613L65.3593 98.5611L65.6896 90.0459L63.15 90.0461L63.1503 98.5613Z" fill="#FFB8B8" />
    <path
      d="M62.5869 97.8404L66.9372 97.8402C67.3012 97.8402 67.6619 97.9119 67.9983 98.0511C68.3346 98.1903 68.6402 98.3944 68.8977 98.6517C69.1551 98.909 69.3593 99.2144 69.4986 99.5505C69.638 99.8867 69.7097 100.247 69.7097 100.611V100.701L62.5871 100.701L62.5869 97.8404Z"
      fill="#2F2E41"
    />
    <path
      d="M63.2084 97.4699C63.0241 97.4693 62.8454 97.4062 62.7016 97.291C62.5578 97.1758 62.4574 97.0152 62.4167 96.8356L56.9417 72.969C56.9297 72.9084 56.8966 72.8539 56.8484 72.8152C56.8001 72.7766 56.7397 72.7562 56.6779 72.7576H56.6765C56.6144 72.7565 56.5539 72.7774 56.5058 72.8165C56.4576 72.8557 56.4249 72.9107 56.4134 72.9717L51.3856 96.6773C51.3464 96.8587 51.2464 97.0212 51.1021 97.138C50.9579 97.2548 50.778 97.3188 50.5924 97.3195H48.1973C48.0868 97.3195 47.9775 97.2969 47.876 97.2532C47.7746 97.2094 47.6831 97.1454 47.6073 97.065C47.5315 96.9847 47.473 96.8897 47.4352 96.7858C47.3975 96.682 47.3814 96.5716 47.3879 96.4614L49.1719 66.4154L49.8897 66.2031L49.9032 66.2033L64.0037 66.3266L67.0068 96.3395C67.0173 96.4466 67.0063 96.5546 66.9746 96.6574C66.9428 96.7602 66.8909 96.8556 66.8219 96.9381C66.7528 97.0206 66.668 97.0885 66.5724 97.1379C66.4768 97.1873 66.3724 97.2172 66.2651 97.2258L63.2734 97.4672C63.2516 97.469 63.23 97.4699 63.2084 97.4699Z"
      fill="#2F2E41"
    />
    <path
      d="M57.3855 38.7009C59.8296 38.7009 61.8109 36.7207 61.8109 34.2781C61.8109 31.8355 59.8296 29.8553 57.3855 29.8553C54.9414 29.8553 52.9601 31.8355 52.9601 34.2781C52.9601 36.7207 54.9414 38.7009 57.3855 38.7009Z"
      fill="#FFB8B8"
    />
    <path
      d="M54.6745 69.7096C53.8981 69.7192 53.1248 69.6104 52.3812 69.3871C51.7199 69.1877 51.1064 68.8553 50.5784 68.4101C50.0505 67.9649 49.6193 67.4165 49.3113 66.7985C49.2138 66.6126 49.1921 66.3961 49.251 66.1945C49.739 64.5297 52.0976 55.8762 50.5927 48.9971C50.3803 48.0414 50.3627 47.0528 50.5408 46.0902C50.719 45.1276 51.0893 44.2107 51.6297 43.3943C52.1575 42.5842 52.8431 41.8887 53.6457 41.3492C54.4483 40.8096 55.3515 40.4372 56.3012 40.2541L56.3012 40.2539C56.5508 40.2052 56.8018 40.1653 57.047 40.135C58.0969 40.0059 59.1623 40.1102 60.1671 40.4406C61.1719 40.771 62.0912 41.3193 62.8592 42.0462C63.6501 42.7874 64.2672 43.6941 64.6664 44.7015C65.0656 45.7089 65.237 46.792 65.1683 47.8734L64.0118 66.4215C64.0038 66.5606 63.9598 66.6951 63.884 66.8121C63.8083 66.929 63.7034 67.0242 63.5797 67.0883C62.2477 67.7859 58.2465 69.7096 54.6745 69.7096Z"
      fill="#3F3D56"
    />
    <path
      d="M62.3848 31.0226C61.9251 29.868 61.0831 28.9059 59.9993 28.2968C58.9154 27.6878 57.6554 27.4687 56.4294 27.6762L57.8247 28.803C56.0911 28.8614 54.2663 28.7373 53.0285 29.9518C53.4225 29.9408 53.939 30.7832 54.3331 30.7723C53.5963 30.7868 52.9283 31.3042 52.6029 31.9649C52.3015 32.6438 52.231 33.4026 52.4021 34.1253C52.5477 34.8472 53.6577 36.5385 53.9564 37.2117C53.9051 35.4524 57.3707 31.256 59.063 31.6939C58.2032 32.0127 57.4571 32.5789 56.9188 33.3209C58.0701 32.7402 59.3722 32.5273 60.6487 32.711C60.9401 32.7778 61.2408 32.7946 61.5379 32.7607C61.72 32.7247 61.8898 32.6427 62.0311 32.5224C62.1724 32.4022 62.2805 32.2477 62.345 32.0738C62.4096 31.8999 62.4285 31.7123 62.3998 31.529C62.3712 31.3458 62.296 31.1729 62.1815 31.0269L62.3848 31.0226Z"
      fill="#2F2E41"
    />
    <path
      d="M54.3696 68.5959C54.2578 68.5956 54.1473 68.5723 54.045 68.5274L45.6485 64.8647C45.4701 64.7882 45.3254 64.65 45.2409 64.4754C45.1563 64.3009 45.1377 64.1016 45.1885 63.9144L50.747 42.929C50.8503 42.5385 51.0305 42.1726 51.2771 41.8526C51.5237 41.5326 51.8317 41.2649 52.1831 41.0653C52.5344 40.8657 52.9221 40.7382 53.3233 40.6901C53.7246 40.6421 54.1315 40.6745 54.52 40.7856L56.7426 41.4195L55.178 67.8326C55.1699 67.9629 55.1306 68.0894 55.0633 68.2013C54.996 68.3132 54.9027 68.4072 54.7913 68.4754C54.6646 68.5538 54.5186 68.5955 54.3696 68.5959Z"
      fill="#17AD49"
    />
    <path
      d="M69.9097 63.9142L69.5402 62.5223L69.0052 60.4982L68.7475 59.5277L68.2124 57.509L64.3511 42.9286C64.2481 42.538 64.0681 42.1718 63.8216 41.8516C63.5751 41.5315 63.2671 41.2637 62.9156 41.0641C62.5642 40.8645 62.1764 40.7371 61.775 40.6893C61.3736 40.6415 60.9667 40.6743 60.5782 40.7858L58.3566 41.4196L59.4574 59.9976L59.571 61.937L59.6431 63.1597V63.1615L59.7583 65.0901L59.9205 67.8326C59.9338 68.0385 60.0246 68.2317 60.1747 68.3734C60.3248 68.5151 60.523 68.5946 60.7295 68.5961C60.8411 68.5954 60.9515 68.5721 61.0539 68.5277L69.4502 64.865C69.6286 64.7886 69.7735 64.6502 69.8579 64.4755C69.9424 64.3008 69.9607 64.1014 69.9097 63.9142Z"
      fill="#17AD49"
    />
    <path d="M68.7474 59.5276L59.5711 61.937L59.4574 59.9976L68.2125 57.509L68.7474 59.5276Z" fill="#CCCCCC" />
    <path d="M69.5402 62.5222L59.7583 65.09L59.6431 63.1614V63.1596L69.0052 60.4982L69.5402 62.5222Z" fill="#CCCCCC" />
    <path d="M55.5278 60.4154L55.4141 62.3188L46.4144 59.6393L46.9421 57.6477L55.5278 60.4154Z" fill="#CCCCCC" />
    <path d="M55.3403 63.572L46.1565 60.6099L45.6286 62.6069L55.2286 65.4646L55.3403 63.572Z" fill="#CCCCCC" />
    <path
      d="M46.3167 65.5626C46.5905 65.4912 46.8453 65.3606 47.0632 65.1801C47.281 64.9997 47.4566 64.7736 47.5776 64.518C47.6986 64.2623 47.7621 63.9833 47.7635 63.7005C47.7649 63.4177 47.7043 63.138 47.5858 62.8812L51.9033 49.3351L48.8418 48.6943L44.8834 61.9752C44.4649 62.2027 44.1444 62.5757 43.9826 63.0235C43.8208 63.4714 43.8291 63.963 44.0057 64.4051C44.1824 64.8473 44.5152 65.2094 44.9412 65.4227C45.3671 65.636 45.8565 65.6858 46.3167 65.5626Z"
      fill="#FFB8B8"
    />
    <path
      d="M52.0231 42.6757C52.9022 42.7654 53.3967 43.7532 53.1781 44.9832L52.1293 50.8857C52.0506 51.3281 51.6863 51.6785 51.3834 51.6028L47.8356 50.7165C47.5626 50.6483 47.4621 50.2607 47.6168 49.8728L49.7466 44.5331C50.2092 43.3734 51.1708 42.5889 52.0231 42.6757Z"
      fill="#3F3D56"
    />
    <path
      d="M57.3692 26C58.8669 26.0002 60.3058 26.5829 61.3811 27.6248C62.4565 28.6668 63.0838 30.0861 63.1303 31.5822H64.216C64.3115 31.5822 64.4032 31.6202 64.4708 31.6877C64.5384 31.7553 64.5763 31.8469 64.5763 31.9424V33.383C64.5763 33.4785 64.5384 33.5701 64.4708 33.6376C64.4032 33.7051 64.3115 33.7431 64.216 33.7431H51.9638C51.8682 33.7431 51.7766 33.7051 51.709 33.6376C51.6414 33.5701 51.6034 33.4785 51.6034 33.383V31.7623C51.6034 31.0056 51.7526 30.2563 52.0423 29.5572C52.3321 28.858 52.7568 28.2228 53.2922 27.6877C53.8276 27.1526 54.4632 26.7282 55.1627 26.4386C55.8622 26.149 56.612 26 57.3692 26Z"
      fill="#17AD49"
    />
    <path
      d="M56.8393 58.8184C56.9383 58.8298 57.0363 58.8491 57.1323 58.8759L63.9154 53.0624L63.5189 50.9294L66.6617 49.9106L67.7308 53.6186C67.8172 53.9181 67.804 54.2376 67.6932 54.529C67.5825 54.8204 67.3801 55.0681 67.1165 55.2348L58.526 60.6676C58.5321 61.0514 58.4211 61.428 58.2079 61.7472C57.9946 62.0664 57.6891 62.3132 57.3321 62.4547C56.975 62.5962 56.5834 62.6257 56.2092 62.5393C55.8349 62.4529 55.4959 62.2547 55.2371 61.971C54.9784 61.6873 54.8122 61.3317 54.7606 60.9513C54.7091 60.5709 54.7746 60.1839 54.9486 59.8416C55.1225 59.4994 55.3966 59.2182 55.7343 59.0354C56.072 58.8526 56.4575 58.7769 56.8393 58.8184Z"
      fill="#FFB8B8"
    />
    <path
      d="M63.9331 43.1632C64.8721 42.9005 65.8104 43.6148 66.1248 44.8317L67.6335 50.6715C67.7466 51.1092 67.5269 51.5745 67.1838 51.6238L63.1646 52.2016C62.8554 52.246 62.5829 51.929 62.5715 51.5116L62.4155 45.7649C62.3816 44.5169 63.0227 43.4179 63.9331 43.1632Z"
      fill="#3F3D56"
    />
    <path
      d="M117.957 80.4664C116.106 78.0064 114.643 75.2778 113.619 72.3755C113.559 72.2019 113.564 72.0128 113.631 71.8421C113.698 71.6713 113.823 71.5298 113.985 71.4428L120.317 68.0518C120.42 67.9965 120.534 67.9653 120.65 67.9606C120.766 67.9559 120.882 67.9777 120.989 68.0245C121.097 68.0717 121.194 68.143 121.27 68.233C121.347 68.323 121.403 68.4293 121.432 68.5439C122.169 71.3407 123.555 73.9248 125.476 76.0872C125.555 76.1752 125.613 76.2801 125.646 76.3939C125.678 76.5077 125.684 76.6274 125.663 76.7438C125.643 76.8585 125.597 76.967 125.529 77.0612C125.461 77.1554 125.372 77.2327 125.269 77.2873L118.936 80.6784C118.775 80.7647 118.587 80.7908 118.408 80.752C118.228 80.7131 118.068 80.612 117.957 80.4664Z"
      fill="#CCCCCC"
    />
    <path
      d="M118.389 80.1419C118.423 80.1844 118.471 80.2136 118.524 80.2247C118.577 80.2357 118.633 80.2277 118.681 80.2022L125.014 76.8111C125.044 76.7951 125.071 76.7722 125.091 76.7441C125.112 76.7161 125.125 76.6837 125.131 76.6496C125.138 76.6135 125.136 76.5764 125.126 76.5411C125.116 76.5059 125.097 76.4735 125.073 76.4465C123.094 74.2203 121.668 71.5601 120.909 68.6809C120.9 68.6453 120.884 68.6122 120.86 68.5843C120.836 68.5563 120.806 68.5342 120.773 68.5197C120.741 68.5055 120.706 68.4989 120.672 68.5003C120.637 68.5017 120.603 68.5112 120.573 68.528L114.24 71.919C114.192 71.9449 114.155 71.9867 114.134 72.0373C114.114 72.0878 114.112 72.1439 114.129 72.1958C115.135 75.0462 116.571 77.7259 118.389 80.1419Z"
      fill="white"
    />
    <path
      d="M120.733 72.8911L117.284 74.4126C117.153 74.4703 117.004 74.4736 116.871 74.4219C116.737 74.3701 116.629 74.2675 116.571 74.1365L116.486 73.9434C116.428 73.8123 116.425 73.6637 116.477 73.5301C116.529 73.3966 116.631 73.289 116.762 73.2311L120.211 71.7095C120.342 71.6518 120.491 71.6485 120.625 71.7002C120.758 71.752 120.866 71.8546 120.924 71.9856L121.009 72.1787C121.067 72.3098 121.07 72.4584 121.019 72.592C120.967 72.7255 120.864 72.8331 120.733 72.8911Z"
      fill="#CCCCCC"
    />
    <path
      d="M121.994 75.232L118.545 76.7535C118.414 76.8112 118.266 76.8146 118.132 76.7628C117.998 76.7111 117.891 76.6085 117.833 76.4775L117.747 76.2844C117.69 76.1533 117.686 76.0046 117.738 75.8711C117.79 75.7375 117.893 75.63 118.024 75.572L121.472 74.0505C121.604 73.9928 121.752 73.9894 121.886 74.0412C122.02 74.0929 122.127 74.1955 122.185 74.3265L122.271 74.5196C122.328 74.6507 122.332 74.7994 122.28 74.9329C122.228 75.0665 122.125 75.174 121.994 75.232Z"
      fill="#CCCCCC"
    />
    <path
      d="M113.906 73.2814C113.668 73.1284 113.466 72.9251 113.315 72.6859C113.164 72.4466 113.068 72.1772 113.032 71.8967C112.997 71.6161 113.023 71.3311 113.11 71.0619C113.197 70.7927 113.341 70.5458 113.534 70.3385L112.079 49.7098L116.269 50.1159L116.384 70.3176C116.711 70.6639 116.9 71.118 116.914 71.5939C116.928 72.0698 116.768 72.5345 116.462 72.8998C116.157 73.2652 115.728 73.5058 115.256 73.5761C114.785 73.6465 114.305 73.5416 113.906 73.2814Z"
      fill="#A0616A"
    />
    <path
      d="M113.028 56.6413C112.93 56.5708 112.849 56.4792 112.791 56.3732C112.733 56.2672 112.699 56.1496 112.693 56.029L112.386 50.4691C112.356 49.9182 112.53 49.3756 112.877 48.9459C113.223 48.5162 113.716 48.2299 114.261 48.142C114.806 48.0542 115.364 48.1711 115.828 48.4702C116.292 48.7693 116.628 49.2295 116.773 49.7619L118.121 54.7328C118.177 54.9402 118.149 55.1614 118.042 55.3478C117.935 55.5341 117.758 55.6705 117.551 55.7269L113.715 56.7664C113.598 56.7982 113.476 56.8035 113.357 56.7819C113.238 56.7602 113.126 56.7122 113.028 56.6413Z"
      fill="#3F3D56"
    />
    <path d="M105.887 98.6424H103.678L102.627 90.1272H105.887L105.887 98.6424Z" fill="#A0616A" />
    <path
      d="M102.1 98.0116H106.36V100.692H99.4179C99.4179 100.34 99.4873 99.9917 99.6221 99.6664C99.7569 99.3412 99.9545 99.0457 100.204 98.7968C100.453 98.5478 100.748 98.3504 101.074 98.2157C101.399 98.0809 101.748 98.0116 102.1 98.0116Z"
      fill="#2F2E41"
    />
    <path d="M114.175 98.6424H111.966L110.915 90.1272H114.176L114.175 98.6424Z" fill="#A0616A" />
    <path
      d="M110.388 98.0116H114.649V100.692H107.706C107.706 100.34 107.776 99.9917 107.91 99.6664C108.045 99.3412 108.243 99.0457 108.492 98.7968C108.741 98.5478 109.037 98.3504 109.362 98.2157C109.687 98.0809 110.036 98.0116 110.388 98.0116Z"
      fill="#2F2E41"
    />
    <path
      d="M105.783 94.3527L103.351 94.2368C103.144 94.227 102.948 94.1382 102.805 93.9888C102.661 93.8393 102.58 93.6404 102.579 93.4332C101.938 83.5438 101.05 72.9397 102.409 68.8432C102.408 68.7264 102.433 68.6109 102.481 68.5045C102.529 68.3981 102.599 68.3033 102.687 68.2266C102.775 68.1499 102.879 68.0931 102.991 68.0601C103.103 68.0271 103.221 68.0187 103.336 68.0355L113.065 69.4469C113.257 69.4738 113.433 69.5691 113.561 69.7153C113.688 69.8615 113.759 70.0488 113.759 70.2428C115.001 75.0933 115.057 83.889 115.01 93.028C115.011 93.135 114.991 93.241 114.95 93.34C114.91 93.439 114.85 93.5291 114.775 93.605C114.7 93.6809 114.61 93.7411 114.511 93.7822C114.412 93.8233 114.307 93.8445 114.2 93.8445H111.578C111.385 93.8453 111.197 93.7766 111.05 93.651C110.903 93.5254 110.806 93.3512 110.777 93.1601L109.16 82.8839C109.136 82.7335 109.059 82.5968 108.942 82.4989C108.825 82.4011 108.677 82.3487 108.525 82.3515C108.373 82.3543 108.227 82.4121 108.114 82.5142C108.001 82.6163 107.928 82.7558 107.91 82.9069L106.626 93.6396C106.602 93.8362 106.507 94.0173 106.359 94.1488C106.211 94.2802 106.019 94.3531 105.821 94.3538C105.808 94.3538 105.796 94.3534 105.783 94.3527Z"
      fill="#2F2E41"
    />
    <path
      d="M107.495 70.2438C105.351 69.0533 103.675 68.7404 102.868 68.6599C102.76 68.6496 102.656 68.6175 102.562 68.5657C102.467 68.514 102.384 68.4435 102.317 68.3587C102.249 68.2732 102.2 68.1749 102.171 68.0696C102.142 67.9643 102.135 67.8543 102.15 67.7462L104.481 50.4501C104.615 49.4383 105.006 48.4775 105.617 47.6594C106.227 46.8412 107.037 46.1929 107.97 45.776C108.872 45.3614 109.866 45.1845 110.856 45.2621C111.846 45.3396 112.8 45.6691 113.626 46.2191C113.706 46.2722 113.785 46.3265 113.862 46.3818C114.814 47.079 115.538 48.0422 115.943 49.1501C116.348 50.258 116.416 51.461 116.138 52.6075C114.709 58.4517 114.218 68.0328 114.134 69.8942C114.127 70.0529 114.074 70.206 113.98 70.3344C113.887 70.4627 113.757 70.5605 113.608 70.6154C112.729 70.9348 111.801 71.1 110.865 71.1035C109.686 71.1107 108.526 70.8146 107.495 70.2438Z"
      fill="#3F3D56"
    />
    <path
      d="M109.444 43.4275C111.888 43.4275 113.87 41.4474 113.87 39.0048C113.87 36.5622 111.888 34.582 109.444 34.582C107 34.582 105.019 36.5622 105.019 39.0048C105.019 41.4474 107 43.4275 109.444 43.4275Z"
      fill="#A0616A"
    />
    <path
      d="M112.576 42.5038C111.75 43.3827 110.217 42.9109 110.11 41.7102C110.101 41.617 110.102 41.5232 110.112 41.4301C110.167 40.8982 110.474 40.4154 110.401 39.8538C110.384 39.714 110.332 39.5808 110.249 39.4668C109.592 38.5864 108.047 39.8606 107.426 39.0636C107.046 38.5749 107.493 37.8054 107.201 37.2592C106.815 36.5383 105.673 36.8939 104.957 36.4991C104.16 36.0598 104.208 34.8379 104.732 34.0946C105.372 33.1882 106.494 32.7046 107.602 32.6349C108.709 32.5652 109.809 32.8644 110.843 33.2672C112.018 33.7248 113.183 34.3573 113.907 35.3898C114.786 36.6455 114.87 38.3336 114.431 39.8019C114.163 40.695 113.25 41.7861 112.576 42.5038Z"
      fill="#2F2E41"
    />
    <path
      d="M116.081 46.8037C116.003 46.4399 115.338 45.9429 114.387 45.5378C112.858 44.9188 111.204 44.6695 109.56 44.8103C107.916 44.9512 106.329 45.478 104.928 46.3481C104.83 46.3533 104.736 46.3905 104.662 46.454C104.587 46.5174 104.536 46.6036 104.515 46.6992L101.315 60.8439L100.899 62.686L100.623 63.9051L100.207 65.7418L99.9852 66.7232C99.971 66.786 99.9704 66.851 99.9834 66.914C99.9964 66.977 100.023 67.0365 100.061 67.0885C100.099 67.1405 100.147 67.1838 100.203 67.2155C100.259 67.2472 100.321 67.2667 100.385 67.2725L114.203 68.4645C114.216 68.4645 114.23 68.4663 114.243 68.4663C114.357 68.4656 114.466 68.4218 114.549 68.3436C114.632 68.2654 114.682 68.1587 114.69 68.045L114.821 66.0444L114.962 63.9051L115.023 62.9777L115.162 60.8439L116.082 46.8271V46.8145L116.081 46.8037Z"
      fill="#17AD49"
    />
    <path
      d="M93.4078 47.6941C93.4299 47.7912 93.4443 47.89 93.4509 47.9894L101.191 52.4519L103.072 51.3695L105.078 53.9936L101.053 56.8604L92.223 49.8984C91.8628 50.0316 91.4707 50.052 91.0986 49.957C90.7265 49.862 90.3922 49.6561 90.1401 49.3666C89.888 49.0771 89.7301 48.7177 89.6873 48.3363C89.6446 47.9549 89.719 47.5696 89.9007 47.2315C90.0824 46.8934 90.3628 46.6186 90.7046 46.4436C91.0464 46.2687 91.4334 46.2019 91.8141 46.2521C92.1948 46.3023 92.5512 46.4672 92.8359 46.7248C93.1206 46.9823 93.3201 47.3204 93.4078 47.6941Z"
      fill="#A0616A"
    />
    <path
      d="M101.467 52.0725C101.454 51.9525 101.469 51.831 101.509 51.7171C101.549 51.6033 101.615 51.4999 101.7 51.4147L105.64 47.4768C106.03 47.0867 106.551 46.8548 107.102 46.8258C107.654 46.7969 108.196 46.9729 108.625 47.32C109.054 47.6672 109.339 48.1607 109.426 48.7056C109.512 49.2505 109.394 49.808 109.093 50.2708L106.288 54.5911C106.171 54.7712 105.987 54.8975 105.777 54.9422C105.566 54.9869 105.347 54.9465 105.167 54.8297L101.832 52.6673C101.731 52.6018 101.645 52.5143 101.582 52.4114C101.519 52.3085 101.48 52.1927 101.467 52.0725Z"
      fill="#3F3D56"
    />
    <path d="M115.162 60.844L115.023 62.9778L100.899 62.6861L101.315 60.844H115.162Z" fill="#CCCCCC" />
    <path d="M114.962 63.9052L114.821 66.0444L100.207 65.7419L100.623 63.9052H114.962Z" fill="#CCCCCC" />
    <path
      d="M109.531 30.4117C108.033 30.4119 106.594 30.9947 105.519 32.0366C104.444 33.0785 103.816 34.4978 103.77 35.994H102.684C102.589 35.994 102.497 36.0319 102.429 36.0995C102.362 36.167 102.324 36.2586 102.324 36.3541V37.7947C102.324 37.8902 102.362 37.9818 102.429 38.0494C102.497 38.1169 102.589 38.1548 102.684 38.1548H114.936C115.032 38.1548 115.124 38.1169 115.191 38.0494C115.259 37.9818 115.297 37.8902 115.297 37.7947V36.174C115.297 35.4173 115.148 34.668 114.858 33.9689C114.568 33.2698 114.143 32.6345 113.608 32.0995C113.073 31.5644 112.437 31.1399 111.738 30.8504C111.038 30.5608 110.288 30.4117 109.531 30.4117Z"
      fill="#17AD49"
    />
    <path
      d="M30.6466 87.7749C29.5063 88.1755 28.282 88.2758 27.0916 88.0662C25.9011 87.8567 24.7848 87.3442 23.8501 86.5783C21.4696 84.5815 20.7232 81.2917 20.1159 78.2455L18.3196 69.2355L22.0803 71.8234C24.7847 73.6844 27.5501 75.6051 29.4226 78.3008C31.2951 80.9964 32.1125 84.6762 30.608 87.593"
      fill="#E6E6E6"
    />
    <path
      d="M30.3252 98.6832C30.7058 95.9124 31.0972 93.1059 30.8302 90.3054C30.5931 87.8182 29.8338 85.3889 28.2881 83.397C27.4676 82.3418 26.4692 81.4376 25.3379 80.7252C25.0428 80.5391 24.7713 81.0064 25.065 81.1917C27.0227 82.4282 28.5368 84.254 29.3892 86.4059C30.3306 88.799 30.4817 91.4076 30.3195 93.9498C30.2214 95.4871 30.0135 97.0143 29.804 98.5396C29.7874 98.6086 29.7977 98.6813 29.8328 98.7429C29.8678 98.8046 29.925 98.8507 29.9927 98.8719C30.0618 98.8905 30.1355 98.8811 30.1977 98.8458C30.26 98.8105 30.3058 98.7521 30.3252 98.6832Z"
      fill="#F2F2F2"
    />
    <path
      d="M26.659 93.7802C26.17 94.5231 25.4977 95.1276 24.707 95.5354C23.9164 95.9433 23.0339 96.1407 22.1447 96.1088C19.8595 96.0004 17.9543 94.4064 16.2393 92.8931L11.1667 88.417L14.5239 88.2564C16.9382 88.1409 19.4149 88.0332 21.7144 88.7773C24.014 89.5214 26.1348 91.3122 26.5553 93.691"
      fill="#E6E6E6"
    />
    <path
      d="M31.4009 100.276C29.5688 97.0364 27.4439 93.4359 23.6469 92.2851C22.5911 91.9662 21.4841 91.852 20.3854 91.9485C20.0392 91.9784 20.1256 92.5118 20.4713 92.482C22.3129 92.3292 24.151 92.8152 25.676 93.8582C27.1436 94.8565 28.2862 96.2445 29.2533 97.7163C29.8457 98.6178 30.3764 99.5576 30.9071 100.496C31.0767 100.796 31.5724 100.58 31.4009 100.276Z"
      fill="#F2F2F2"
    />
    <path
      d="M133.82 101H5.53217C5.48438 101 5.43856 100.981 5.40477 100.947C5.37098 100.914 5.35199 100.868 5.35199 100.82C5.35199 100.772 5.37098 100.726 5.40477 100.693C5.43856 100.659 5.48438 100.64 5.53217 100.64H133.82C133.868 100.64 133.913 100.659 133.947 100.693C133.981 100.726 134 100.772 134 100.82C134 100.868 133.981 100.914 133.947 100.947C133.913 100.981 133.868 101 133.82 101Z"
      fill="#CCCCCC"
    />
  </g>
  <g style="mix-blend-mode: color">
    <rect x="7" width="120" height="120" fill="white" />
  </g>
  <defs>
    <clipPath id="clip0_4845_623">
      <rect width="134" height="75" fill="white" transform="translate(0 26)" />
    </clipPath>
  </defs>
</svg>
