<svg width="120" height="120" viewBox="0 0 120 120" fill="none" xmlns="http://www.w3.org/2000/svg">
  <g clip-path="url(#clip0_4843_5570)">
    <rect width="120" height="120" fill="white" />
    <g clip-path="url(#clip1_4843_5570)">
      <path
        d="M33.9068 100.598C34.7864 98.712 35.6653 96.7974 36.047 94.7534C36.4287 92.7093 36.2685 90.4909 35.1752 88.718C34.082 86.945 31.9293 85.7428 29.8751 86.1436C28.1878 86.4728 26.8331 87.7923 26.0398 89.3073C25.2465 90.8222 24.9282 92.5308 24.6197 94.2106C24.52 92.3023 24.4144 90.3632 23.776 88.5605C23.1376 86.7579 21.8806 85.0779 20.089 84.3804C18.2975 83.6828 15.9669 84.2314 15.0227 85.8964C13.6924 88.2422 15.4563 91.5326 13.9267 93.7553C13.6643 91.5257 11.3164 89.7642 9.08488 90.1227C6.85338 90.4813 5.18467 92.8882 5.64372 95.0861C5.91687 96.394 6.81547 97.5064 7.88981 98.3101C8.96415 99.1137 10.2136 100.045 11.4497 100.572L33.9068 100.598Z"
        fill="#F2F2F2"
      />
      <path
        d="M6.81533 91.6981C8.5879 92.3133 10.3768 92.9355 11.995 93.8974C13.4454 94.7595 14.7369 95.9202 15.5526 97.4066C15.9995 98.2041 16.2648 99.0891 16.3299 99.9994C16.3417 100.19 16.6416 100.191 16.6298 99.9994C16.5249 98.3042 15.6929 96.7529 14.5409 95.526C13.2778 94.1808 11.6411 93.2621 9.95115 92.5493C8.94917 92.1267 7.92228 91.7675 6.89506 91.4109C6.71251 91.3476 6.63403 91.6351 6.81533 91.6981Z"
        fill="white"
      />
      <path
        d="M17.0397 84.6759C18.1287 86.4776 19.0008 88.4 19.638 90.4038C20.2765 92.4068 20.6786 94.4767 20.8364 96.5718C20.9238 97.7447 20.9333 98.922 20.865 100.096C20.8539 100.287 21.1538 100.287 21.1648 100.096C21.2858 97.9792 21.1568 95.8556 20.7804 93.7686C20.4047 91.6818 19.787 89.6452 18.9399 87.6993C18.4644 86.6064 17.9161 85.5461 17.2986 84.5256C17.2778 84.493 17.2451 84.4696 17.2073 84.4604C17.1695 84.4513 17.1296 84.457 17.096 84.4765C17.0624 84.496 17.0378 84.5277 17.0272 84.5649C17.0167 84.6021 17.0212 84.6419 17.0397 84.6759Z"
        fill="white"
      />
      <path
        d="M31.7166 86.3865C30.1762 89.8234 29.0921 93.4445 28.4917 97.1588C28.3232 98.2022 28.1927 99.2506 28.1003 100.304C28.0835 100.495 28.3835 100.494 28.4001 100.304C28.7267 96.5981 29.5333 92.9493 30.8 89.4482C31.156 88.4639 31.5478 87.4934 31.9755 86.5368C32.0531 86.3632 31.7948 86.2115 31.7166 86.3865Z"
        fill="white"
      />
      <path d="M84.9008 104.655L84.8767 102.806L76.0999 102.919L76.124 104.767L84.9008 104.655Z" fill="#E6E6E6" />
      <path
        d="M88.0195 105.067L86.7661 105.064L85.9913 103.691L86.8288 102.323L87.9933 102.326C87.7017 101.958 87.3012 101.689 86.8481 101.558C86.395 101.427 85.912 101.44 85.4668 101.596C85.0215 101.751 84.6364 102.041 84.3654 102.424C84.0944 102.808 83.951 103.266 83.9555 103.735C83.96 104.203 84.112 104.659 84.3903 105.037C84.6686 105.416 85.0592 105.698 85.5073 105.845C85.9555 105.992 86.4387 105.996 86.8892 105.857C87.3397 105.717 87.7349 105.441 88.0195 105.067Z"
        fill="#E6E6E6"
      />
      <path
        d="M72.9813 105.067L74.2346 105.064L75.0095 103.691L74.172 102.323L73.0074 102.326C73.2991 101.958 73.6995 101.689 74.1526 101.558C74.6057 101.427 75.0888 101.44 75.534 101.596C75.9792 101.751 76.3644 102.041 76.6354 102.424C76.9064 102.808 77.0497 103.266 77.0452 103.735C77.0408 104.203 76.8887 104.659 76.6104 105.037C76.3321 105.416 75.9416 105.698 75.4934 105.845C75.0453 105.992 74.5621 105.996 74.1116 105.857C73.6611 105.717 73.2658 105.441 72.9813 105.067Z"
        fill="#E6E6E6"
      />
      <path
        d="M123.812 100.759H-5.81159C-5.86156 100.759 -5.90948 100.739 -5.94482 100.704C-5.98015 100.669 -6 100.622 -6 100.572C-6 100.522 -5.98015 100.475 -5.94482 100.44C-5.90948 100.405 -5.86156 100.385 -5.81159 100.385H123.812C123.862 100.385 123.909 100.405 123.945 100.44C123.98 100.475 124 100.522 124 100.572C124 100.622 123.98 100.669 123.945 100.704C123.909 100.739 123.862 100.759 123.812 100.759Z"
        fill="#E4E4E4"
      />
      <path
        d="M95.8307 65.2121C99.2645 65.2121 102.048 62.4479 102.048 59.0381C102.048 55.6283 99.2645 52.8641 95.8307 52.8641C92.397 52.8641 89.6133 55.6283 89.6133 59.0381C89.6133 62.4479 92.397 65.2121 95.8307 65.2121Z"
        fill="#2F2E41"
      />
      <path d="M98.3503 93.6977L98.8292 95.9415L107.773 95.1753L107.066 91.8636L98.3503 93.6977Z" fill="#FFB8B8" />
      <path
        d="M97.6544 100.711L96.1494 93.6585L98.8933 93.0811L99.8168 97.4085C99.971 98.1311 99.8298 98.885 99.4242 99.5043C99.0187 100.124 98.3821 100.557 97.6544 100.711Z"
        fill="#2F2E41"
      />
      <path d="M92.7472 93.578L91.7406 95.6426L83.2427 92.7694L84.7285 89.7227L92.7472 93.578Z" fill="#FFB8B8" />
      <path
        d="M90.4277 96.8314L92.3689 92.8501L94.8934 94.0638L91.7298 100.552C91.3983 100.393 91.1016 100.17 90.8568 99.8967C90.6119 99.6235 90.4237 99.305 90.3028 98.9595C90.1819 98.614 90.1307 98.2483 90.1521 97.8832C90.1735 97.518 90.2672 97.1606 90.4277 96.8314Z"
        fill="#2F2E41"
      />
      <path
        d="M76.0054 89.5008C76.2963 89.5546 76.5955 89.5443 76.882 89.4709C77.1685 89.3974 77.4353 89.2624 77.6636 89.0755C77.8918 88.8886 78.0761 88.6542 78.2033 88.3889C78.3305 88.1236 78.3976 87.8339 78.3998 87.54L92.4123 74.7111L88.9324 72.0347L76.2456 85.4946C75.7483 85.5236 75.279 85.7327 74.9266 86.0823C74.5742 86.432 74.3632 86.8979 74.3336 87.3917C74.3039 87.8855 74.4578 88.373 74.7659 88.7617C75.074 89.1504 75.515 89.4134 76.0054 89.5008Z"
        fill="#FFB8B8"
      />
      <path
        d="M95.0504 65.4908C97.6061 65.4908 99.6779 63.4335 99.6779 60.8957C99.6779 58.3578 97.6061 56.3005 95.0504 56.3005C92.4948 56.3005 90.423 58.3578 90.423 60.8957C90.423 63.4335 92.4948 65.4908 95.0504 65.4908Z"
        fill="#FFB8B8"
      />
      <path
        d="M99.2032 87.9067C95.9572 87.9068 92.0479 87.2279 89.6362 84.4499L89.5819 84.3873L89.6378 84.3259C89.656 84.3059 91.4302 82.2925 89.6587 78.7018L87.223 79.4459L84.7982 76.2675L86.1414 72.2658L91.6386 67.8685C92.4263 67.2419 93.3853 66.8646 94.3914 66.7854C96.2121 66.6106 97.9858 66.109 99.6261 65.3049C100.377 64.9428 101.203 64.7634 102.038 64.7814L102.146 64.7844C102.4 64.7915 102.649 64.8497 102.88 64.9555C103.11 65.0612 103.316 65.2123 103.486 65.3996C103.656 65.5869 103.786 65.8066 103.868 66.0452C103.949 66.2837 103.982 66.5364 103.962 66.7877C103.589 71.5828 102.931 83.1662 104.865 87.1545L104.915 87.2576L104.803 87.2857C102.965 87.6964 101.087 87.9046 99.2032 87.9067Z"
        fill="#17AD49"
      />
      <path
        d="M90.2728 84.3888C90.2728 84.3888 78.0264 83.2662 76.7075 86.821C75.3887 90.3757 76.8959 92.0595 79.1568 92.8078C81.4177 93.5562 86.8815 94.4916 86.8815 94.4916L89.3307 91.4982L95.7365 91.8724C95.7365 91.8724 102.874 95.9833 104.848 100.38C105.271 101.332 105.946 102.151 106.802 102.752C107.657 103.353 108.66 103.713 109.704 103.792C111.287 103.902 112.693 103.308 112.693 100.853C112.693 95.24 104.78 87.1951 104.78 87.1951L90.2728 84.3888Z"
        fill="#2F2E41"
      />
      <path d="M80.9467 89.9079C80.9467 89.9079 84.1496 88.9725 89.2365 91.4046L80.9467 89.9079Z" fill="#2F2E41" />
      <path
        d="M90.4341 57.9652C92.2413 59.0607 94.2787 59.7273 96.3876 59.9132L95.7601 59.1665C96.217 59.3343 96.6978 59.4291 97.1846 59.4474C97.4284 59.4544 97.6704 59.4046 97.8912 59.302C98.112 59.1993 98.3056 59.0467 98.4563 58.8563C98.5794 58.6587 98.6525 58.4344 98.6694 58.2026C98.6863 57.9708 98.6465 57.7384 98.5534 57.5252C98.3622 57.0999 98.0645 56.7303 97.6887 56.4516C97.0227 55.9284 96.2367 55.577 95.4007 55.4286C94.5647 55.2802 93.7048 55.3396 92.8975 55.6013C92.3437 55.7656 91.8478 56.0815 91.4664 56.5128C91.279 56.7301 91.1488 56.9901 91.0876 57.2697C91.0263 57.5492 91.0359 57.8395 91.1155 58.1145"
        fill="#2F2E41"
      />
      <path
        d="M95.7974 54.2924C96.6196 52.3967 97.8503 50.703 99.4029 49.3305C100.4 48.4507 101.564 47.6948 102.878 47.4666C104.192 47.2384 105.673 47.6293 106.479 48.6848C107.138 49.5478 107.261 50.704 107.188 51.7847C107.116 52.8653 106.873 53.9355 106.896 55.0184C106.92 56.1232 107.221 57.2047 107.772 58.1646C108.324 59.1246 109.108 59.9325 110.054 60.5152C110.999 61.0978 112.076 61.4367 113.187 61.5011C114.298 61.5655 115.408 61.3533 116.416 60.8838C115.281 61.5066 114.397 62.4924 113.344 63.2427C112.29 63.993 110.901 64.5074 109.705 64.0117C108.439 63.4871 107.859 62.0623 107.405 60.7769L105.383 55.0445C105.04 54.0701 104.679 53.0667 103.978 52.3045C103.276 51.5424 102.138 51.0778 101.172 51.461C100.441 51.7514 99.9641 52.4446 99.5463 53.1082C99.1285 53.7717 98.6878 54.4776 97.9819 54.8255C97.276 55.1734 96.23 54.9592 95.9993 54.211"
        fill="#2F2E41"
      />
      <path d="M95.6686 82.0918L94.3691 83.416L100.656 89.499L101.955 88.1749L95.6686 82.0918Z" fill="#E6E6E6" />
      <path
        d="M100.734 88.2839C100.477 88.5458 100.304 88.8775 100.237 89.237C100.169 89.5966 100.211 89.9678 100.356 90.3038C100.502 90.6398 100.744 90.9255 101.053 91.1247C101.362 91.3239 101.723 91.4277 102.091 91.423C102.46 91.4182 102.818 91.3052 103.122 91.0981C103.425 90.891 103.66 90.5992 103.796 90.2596C103.933 89.92 103.965 89.5478 103.889 89.1901C103.812 88.8324 103.63 88.5053 103.367 88.2501C103.013 87.9078 102.537 87.7192 102.043 87.7255C101.549 87.7318 101.078 87.9327 100.734 88.2839ZM102.639 90.1272C102.529 90.2395 102.387 90.3168 102.233 90.3493C102.079 90.3819 101.918 90.3683 101.771 90.3102C101.625 90.2521 101.499 90.1521 101.41 90.0229C101.32 89.8938 101.271 89.7412 101.269 89.5845C101.267 89.4278 101.312 89.274 101.398 89.1426C101.484 89.0111 101.607 88.908 101.752 88.8462C101.897 88.7843 102.058 88.7666 102.213 88.7951C102.368 88.8237 102.511 88.8974 102.624 89.0067C102.776 89.1534 102.862 89.3538 102.865 89.564C102.868 89.7741 102.786 89.9767 102.639 90.1272Z"
        fill="#E6E6E6"
      />
      <path
        d="M93.757 79.6104L94.6407 80.493L94.2111 82.0077L92.6448 82.387L91.8237 81.567C91.7676 82.0323 91.8595 82.5033 92.0866 82.9141C92.3137 83.3249 92.6646 83.6548 93.09 83.8576C93.5154 84.0604 93.9941 84.1259 94.4589 84.045C94.9238 83.964 95.3514 83.7406 95.6819 83.4061C96.0124 83.0716 96.2293 82.6428 96.302 82.1798C96.3747 81.7168 96.2997 81.2427 96.0874 80.8242C95.8752 80.4056 95.5363 80.0635 95.1184 79.8459C94.7005 79.6282 94.2244 79.5458 93.757 79.6104Z"
        fill="#E6E6E6"
      />
      <path
        d="M97.385 87.9228C97.3052 87.9227 97.2254 87.9184 97.1461 87.9096C96.681 87.8561 96.2478 87.648 95.9167 87.3192C95.5856 86.9904 95.3762 86.5602 95.3223 86.0984C95.2892 85.8102 95.3178 85.5184 95.4062 85.242C95.4946 84.9656 95.6408 84.7109 95.8352 84.4945C96.0297 84.2781 96.268 84.105 96.5345 83.9864C96.801 83.8679 97.0897 83.8066 97.3818 83.8065C97.4742 83.807 97.5665 83.8138 97.658 83.827L103.984 77.1394L103.324 74.9534L106.641 73.4769L107.57 75.7332C107.882 76.4976 107.937 77.3413 107.727 78.1391C107.518 78.9369 107.054 79.6463 106.407 80.1621L99.4429 85.6627C99.4503 85.7297 99.454 85.7971 99.4542 85.8645C99.454 86.1539 99.3925 86.44 99.2735 86.7043C99.1546 86.9685 98.981 87.2049 98.7639 87.398C98.386 87.7371 97.8944 87.9242 97.385 87.9228Z"
        fill="#FFB8B8"
      />
      <path
        d="M102.331 65.6798C102.55 65.583 102.787 65.5312 103.027 65.5276C103.267 65.5239 103.505 65.5685 103.727 65.6586C103.95 65.7487 104.151 65.8825 104.32 66.0519C104.489 66.2213 104.621 66.4229 104.71 66.6445L107.983 74.8472L102.896 78.2148L102.331 65.6798Z"
        fill="#17AD49"
      />
      <path
        d="M78.4974 67.5951V26.7263C78.4956 25.4734 77.9936 24.2722 77.1014 23.3863C76.2092 22.5003 74.9996 22.0018 73.7378 22H9.06376C7.802 22.0018 6.59242 22.5003 5.70022 23.3863C4.80801 24.2722 4.30599 25.4734 4.3042 26.7263V67.5951C4.30599 68.8481 4.80801 70.0492 5.70022 70.9352C6.59242 71.8211 7.802 72.3197 9.06376 72.3214H73.7378C74.9996 72.3197 76.2092 71.8211 77.1014 70.9352C77.9936 70.0492 78.4956 68.8481 78.4974 67.5951ZM9.06376 71.7654C7.95037 71.764 6.88297 71.3242 6.09568 70.5424C5.30839 69.7607 4.8655 68.7007 4.86415 67.5951V26.7263C4.8655 25.6207 5.30839 24.5608 6.09568 23.779C6.88297 22.9972 7.95037 22.5574 9.06376 22.556H73.7378C74.8512 22.5574 75.9186 22.9972 76.7059 23.779C77.4932 24.5608 77.9361 25.6207 77.9374 26.7263V67.5951C77.9361 68.7007 77.4932 69.7607 76.7059 70.5424C75.9186 71.3242 74.8512 71.764 73.7378 71.7654H9.06376Z"
        fill="#E4E4E4"
      />
      <path
        d="M77.9375 29.3533H4.86417C4.78991 29.3533 4.7187 29.324 4.6662 29.2718C4.6137 29.2197 4.5842 29.149 4.5842 29.0753C4.5842 29.0015 4.6137 28.9308 4.6662 28.8787C4.7187 28.8265 4.78991 28.7972 4.86417 28.7972H77.9375C78.0117 28.7972 78.0829 28.8265 78.1354 28.8787C78.1879 28.9308 78.2174 29.0015 78.2174 29.0753C78.2174 29.149 78.1879 29.2197 78.1354 29.2718C78.0829 29.324 78.0117 29.3533 77.9375 29.3533Z"
        fill="#E4E4E4"
      />
      <path
        d="M9.62372 27.2824C10.3968 27.2824 11.0236 26.66 11.0236 25.8923C11.0236 25.1246 10.3968 24.5022 9.62372 24.5022C8.85059 24.5022 8.22385 25.1246 8.22385 25.8923C8.22385 26.66 8.85059 27.2824 9.62372 27.2824Z"
        fill="#17AD49"
      />
      <path
        d="M14.3833 27.2824C15.1564 27.2824 15.7831 26.66 15.7831 25.8923C15.7831 25.1246 15.1564 24.5022 14.3833 24.5022C13.6101 24.5022 12.9834 25.1246 12.9834 25.8923C12.9834 26.66 13.6101 27.2824 14.3833 27.2824Z"
        fill="#17AD49"
      />
      <path
        d="M19.1429 27.2824C19.916 27.2824 20.5427 26.66 20.5427 25.8923C20.5427 25.1246 19.916 24.5022 19.1429 24.5022C18.3697 24.5022 17.743 25.1246 17.743 25.8923C17.743 26.66 18.3697 27.2824 19.1429 27.2824Z"
        fill="#17AD49"
      />
      <path
        d="M29.6047 59.2743C29.5799 59.2743 29.5554 59.2695 29.5326 59.2601C29.5097 59.2507 29.4889 59.2369 29.4714 59.2195C29.4539 59.2021 29.4401 59.1815 29.4306 59.1588C29.4211 59.1361 29.4163 59.1118 29.4163 59.0872C29.4163 57.1365 28.5551 56.0484 27.1657 54.925C27.1464 54.9095 27.1304 54.8904 27.1186 54.8688C27.1068 54.8471 27.0994 54.8234 27.0969 54.7989C27.0943 54.7744 27.0966 54.7497 27.1037 54.7261C27.1108 54.7025 27.1225 54.6806 27.1382 54.6615C27.1538 54.6424 27.1731 54.6266 27.1949 54.6149C27.2167 54.6032 27.2407 54.5959 27.2653 54.5935C27.29 54.591 27.3149 54.5934 27.3386 54.6005C27.3623 54.6076 27.3844 54.6193 27.4036 54.6349C28.8788 55.8276 29.7931 56.9885 29.7931 59.0872C29.7931 59.1118 29.7882 59.1361 29.7787 59.1588C29.7693 59.1815 29.7554 59.2021 29.7379 59.2195C29.7204 59.2369 29.6996 59.2507 29.6768 59.2601C29.6539 59.2695 29.6294 59.2743 29.6047 59.2743Z"
        fill="black"
      />
      <path
        d="M13.4654 59.2743C13.4407 59.2743 13.4162 59.2695 13.3933 59.2601C13.3705 59.2507 13.3497 59.2369 13.3322 59.2195C13.3147 59.2021 13.3008 59.1815 13.2914 59.1588C13.2819 59.1361 13.277 59.1118 13.277 59.0872C13.277 56.9885 14.1913 55.8276 15.6665 54.6349C15.6857 54.6193 15.7078 54.6076 15.7315 54.6005C15.7552 54.5934 15.7801 54.591 15.8048 54.5935C15.8295 54.5959 15.8534 54.6032 15.8752 54.6149C15.897 54.6266 15.9163 54.6424 15.932 54.6615C15.9476 54.6806 15.9593 54.7025 15.9664 54.7261C15.9735 54.7497 15.9758 54.7744 15.9733 54.7989C15.9707 54.8234 15.9633 54.8471 15.9515 54.8688C15.9397 54.8904 15.9237 54.9095 15.9044 54.925C14.515 56.0484 13.6539 57.1366 13.6539 59.0872C13.6539 59.1118 13.649 59.1361 13.6395 59.1588C13.6301 59.1815 13.6162 59.2021 13.5987 59.2195C13.5812 59.2369 13.5604 59.2507 13.5376 59.2601C13.5147 59.2695 13.4902 59.2743 13.4654 59.2743Z"
        fill="black"
      />
      <path
        d="M27.9909 46.4529C27.952 46.4529 27.914 46.441 27.8822 46.4187C27.8504 46.3964 27.8264 46.3649 27.8133 46.3285C27.8003 46.2921 27.7989 46.2526 27.8094 46.2154C27.8199 46.1782 27.8417 46.1451 27.8719 46.1207C29.3001 44.9661 29.4163 43.3259 29.4163 41.4578C29.4163 41.4082 29.4361 41.3606 29.4715 41.3256C29.5068 41.2905 29.5547 41.2708 29.6047 41.2708C29.6546 41.2708 29.7026 41.2905 29.7379 41.3256C29.7732 41.3606 29.7931 41.4082 29.7931 41.4578C29.7931 43.4232 29.6664 45.1524 28.1098 46.4109C28.0762 46.4381 28.0342 46.453 27.9909 46.4529Z"
        fill="black"
      />
      <path
        d="M15.0793 46.3528C15.036 46.3529 14.994 46.338 14.9605 46.3108C13.4037 45.0522 13.277 43.3684 13.277 41.4578C13.277 41.4082 13.2969 41.3606 13.3322 41.3256C13.3676 41.2905 13.4155 41.2708 13.4654 41.2708C13.5154 41.2708 13.5633 41.2905 13.5987 41.3256C13.634 41.3606 13.6539 41.4082 13.6539 41.4578C13.6539 43.3356 13.7676 44.8639 15.1984 46.0206C15.2285 46.045 15.2503 46.0781 15.2608 46.1153C15.2713 46.1525 15.2699 46.192 15.2569 46.2284C15.2438 46.2648 15.2198 46.2963 15.188 46.3186C15.1562 46.3409 15.1182 46.3528 15.0793 46.3528Z"
        fill="black"
      />
      <path
        d="M32.0256 50.4661H27.9908C27.9408 50.4661 27.8929 50.4464 27.8576 50.4113C27.8223 50.3762 27.8024 50.3286 27.8024 50.279C27.8024 50.2294 27.8223 50.1818 27.8576 50.1467C27.8929 50.1116 27.9408 50.0919 27.9908 50.0919H32.0256C32.0756 50.0919 32.1235 50.1116 32.1588 50.1467C32.1942 50.1818 32.214 50.2294 32.214 50.279C32.214 50.3286 32.1942 50.3762 32.1588 50.4113C32.1235 50.4464 32.0756 50.4661 32.0256 50.4661Z"
        fill="black"
      />
      <path
        d="M15.0794 50.4661H11.0446C10.9946 50.4661 10.9467 50.4464 10.9114 50.4113C10.8761 50.3762 10.8562 50.3286 10.8562 50.279C10.8562 50.2294 10.8761 50.1818 10.9114 50.1467C10.9467 50.1116 10.9946 50.0919 11.0446 50.0919H15.0794C15.1294 50.0919 15.1773 50.1116 15.2126 50.1467C15.248 50.1818 15.2678 50.2294 15.2678 50.279C15.2678 50.3286 15.248 50.3762 15.2126 50.4113C15.1773 50.4464 15.1294 50.4661 15.0794 50.4661Z"
        fill="black"
      />
      <path
        d="M21.5351 58.4729C21.5103 58.4729 21.4858 58.468 21.4629 58.4586C21.4401 58.4492 21.4193 58.4355 21.4018 58.4181C21.3843 58.4007 21.3704 58.3801 21.361 58.3574C21.3515 58.3347 21.3466 58.3104 21.3466 58.2858V45.4646C21.3466 45.4149 21.3665 45.3673 21.4018 45.3323C21.4372 45.2972 21.4851 45.2775 21.5351 45.2775C21.585 45.2775 21.6329 45.2972 21.6683 45.3323C21.7036 45.3673 21.7235 45.4149 21.7235 45.4646V58.2858C21.7235 58.3104 21.7186 58.3347 21.7091 58.3574C21.6997 58.3801 21.6858 58.4007 21.6683 58.4181C21.6508 58.4355 21.63 58.4492 21.6072 58.4586C21.5843 58.468 21.5598 58.4729 21.5351 58.4729Z"
        fill="black"
      />
      <path
        d="M21.5351 58.4729C19.7735 58.4709 18.0848 57.7751 16.8392 56.5382C15.5936 55.3013 14.893 53.6243 14.891 51.8751V47.0637C14.891 43.9826 17.4369 42.0686 21.5351 42.0686C25.8196 42.0686 28.1792 43.8426 28.1792 47.0637V51.8751C28.1772 53.6243 27.4766 55.3013 26.231 56.5382C24.9854 57.7751 23.2966 58.4709 21.5351 58.4729ZM21.5351 42.4428C18.5053 42.4428 15.2678 43.6567 15.2678 47.0637V51.8751C15.2673 52.6927 15.4291 53.5023 15.7439 54.2578C16.0586 55.0133 16.5202 55.6997 17.1022 56.278C17.6842 56.8563 18.3753 57.315 19.1359 57.628C19.8965 57.941 20.7118 58.1021 21.5351 58.1021C22.3584 58.1021 23.1737 57.941 23.9343 57.628C24.6949 57.315 25.3859 56.8563 25.968 56.278C26.55 55.6997 27.0116 55.0133 27.3263 54.2578C27.6411 53.5023 27.8028 52.6927 27.8024 51.8751V47.0637C27.8024 43.0432 23.8757 42.4428 21.5351 42.4428Z"
        fill="black"
      />
      <path
        d="M17.6734 43.2236C17.6357 43.2237 17.5988 43.2124 17.5676 43.1914C17.5364 43.1704 17.5123 43.1406 17.4983 43.1058C17.3895 42.8353 17.3266 42.5489 17.3121 42.258C17.3154 41.1488 17.7599 40.0858 18.5488 39.3005C19.3376 38.5153 20.407 38.0714 21.524 38.0654H21.5456C22.6612 38.0707 23.7295 38.5131 24.5184 39.2963C25.3072 40.0796 25.7528 41.1404 25.7583 42.2482C25.7485 42.5188 25.6904 42.7856 25.5868 43.036C25.5675 43.0816 25.5309 43.1177 25.485 43.1365C25.439 43.1554 25.3874 43.1554 25.3414 43.1366C25.2954 43.1179 25.2587 43.0818 25.2394 43.0363C25.2201 42.9907 25.2197 42.9395 25.2383 42.8937C25.3243 42.6863 25.3729 42.4654 25.3816 42.2412C25.375 41.2336 24.9684 40.2693 24.2501 39.5575C23.5319 38.8458 22.5599 38.4441 21.5452 38.4396H21.5245C20.5086 38.4446 19.5358 38.8476 18.8175 39.561C18.0993 40.2743 17.6936 41.2403 17.6886 42.2491C17.702 42.4955 17.7559 42.738 17.8483 42.9671C17.8596 42.9955 17.8638 43.0262 17.8605 43.0566C17.8572 43.087 17.8464 43.116 17.8292 43.1413C17.8119 43.1666 17.7887 43.1874 17.7616 43.2017C17.7344 43.216 17.7041 43.2236 17.6734 43.2236Z"
        fill="black"
      />
      <path
        d="M40.6701 42.2062H38.4092C38.0594 42.2062 37.724 42.0682 37.4766 41.8226C37.2293 41.577 37.0904 41.2439 37.0904 40.8965C37.0904 40.5492 37.2293 40.2161 37.4766 39.9705C37.724 39.7249 38.0594 39.5869 38.4092 39.5869H40.6701C41.0199 39.5869 41.3553 39.7249 41.6026 39.9705C41.85 40.2161 41.9889 40.5492 41.9889 40.8965C41.9889 41.2439 41.85 41.577 41.6026 41.8226C41.3553 42.0682 41.0199 42.2062 40.6701 42.2062Z"
        fill="#CCCCCC"
      />
      <path
        d="M56.1194 47.7253H53.8585C53.5087 47.7253 53.1732 47.5874 52.9259 47.3418C52.6786 47.0962 52.5396 46.763 52.5396 46.4157C52.5396 46.0684 52.6786 45.7353 52.9259 45.4897C53.1732 45.2441 53.5087 45.1061 53.8585 45.1061H56.1194C56.4691 45.1061 56.8046 45.2441 57.0519 45.4897C57.2992 45.7353 57.4382 46.0684 57.4382 46.4157C57.4382 46.763 57.2992 47.0962 57.0519 47.3418C56.8046 47.5874 56.4691 47.7253 56.1194 47.7253Z"
        fill="#CCCCCC"
      />
      <path
        d="M63.2788 47.7253H61.0179C60.6681 47.7253 60.3327 47.5874 60.0853 47.3418C59.838 47.0962 59.6991 46.763 59.6991 46.4157C59.6991 46.0684 59.838 45.7353 60.0853 45.4897C60.3327 45.2441 60.6681 45.1061 61.0179 45.1061H63.2788C63.6286 45.1061 63.964 45.2441 64.2113 45.4897C64.4587 45.7353 64.5976 46.0684 64.5976 46.4157C64.5976 46.763 64.4587 47.0962 64.2113 47.3418C63.964 47.5874 63.6286 47.7253 63.2788 47.7253Z"
        fill="#CCCCCC"
      />
      <path
        d="M70.4382 47.7253H68.1773C67.8276 47.7253 67.4921 47.5874 67.2448 47.3418C66.9974 47.0962 66.8585 46.763 66.8585 46.4157C66.8585 46.0684 66.9974 45.7353 67.2448 45.4897C67.4921 45.2441 67.8276 45.1061 68.1773 45.1061H70.4382C70.788 45.1061 71.1234 45.2441 71.3708 45.4897C71.6181 45.7353 71.757 46.0684 71.757 46.4157C71.757 46.763 71.6181 47.0962 71.3708 47.3418C71.1234 47.5874 70.788 47.7253 70.4382 47.7253Z"
        fill="#CCCCCC"
      />
      <path
        d="M56.3078 42.2998H45.757C45.4073 42.2998 45.0718 42.1618 44.8245 41.9162C44.5771 41.6706 44.4382 41.3375 44.4382 40.9902C44.4382 40.6428 44.5771 40.3097 44.8245 40.0641C45.0718 39.8185 45.4073 39.6805 45.757 39.6805H56.3078C56.6575 39.6805 56.993 39.8185 57.2403 40.0641C57.4877 40.3097 57.6266 40.6428 57.6266 40.9902C57.6266 41.3375 57.4877 41.6706 57.2403 41.9162C56.993 42.1618 56.6575 42.2998 56.3078 42.2998Z"
        fill="#CCCCCC"
      />
      <path
        d="M48.9599 47.5383H38.4092C38.0594 47.5383 37.724 47.4003 37.4766 47.1547C37.2293 46.9091 37.0904 46.576 37.0904 46.2287C37.0904 45.8814 37.2293 45.5483 37.4766 45.3027C37.724 45.057 38.0594 44.9191 38.4092 44.9191H48.9599C49.3097 44.9191 49.6452 45.057 49.8925 45.3027C50.1398 45.5483 50.2788 45.8814 50.2788 46.2287C50.2788 46.576 50.1398 46.9091 49.8925 47.1547C49.6452 47.4003 49.3097 47.5383 48.9599 47.5383Z"
        fill="#CCCCCC"
      />
      <path
        d="M69.6846 42.2998H61.5831C61.2333 42.2998 60.8979 42.1618 60.6506 41.9162C60.4032 41.6706 60.2643 41.3375 60.2643 40.9902C60.2643 40.6428 60.4032 40.3097 60.6506 40.0641C60.8979 39.8185 61.2333 39.6805 61.5831 39.6805H69.6846C70.0344 39.6805 70.3698 39.8185 70.6171 40.0641C70.8645 40.3097 71.0034 40.6428 71.0034 40.9902C71.0034 41.3375 70.8645 41.6706 70.6171 41.9162C70.3698 42.1618 70.0344 42.2998 69.6846 42.2998Z"
        fill="#CCCCCC"
      />
      <path
        d="M40.6701 53.2445H38.4092C38.0594 53.2445 37.724 53.1065 37.4766 52.8609C37.2293 52.6153 37.0904 52.2822 37.0904 51.9349C37.0904 51.5875 37.2293 51.2544 37.4766 51.0088C37.724 50.7632 38.0594 50.6252 38.4092 50.6252H40.6701C41.0199 50.6252 41.3553 50.7632 41.6026 51.0088C41.85 51.2544 41.9889 51.5875 41.9889 51.9349C41.9889 52.2822 41.85 52.6153 41.6026 52.8609C41.3553 53.1065 41.0199 53.2445 40.6701 53.2445Z"
        fill="#CCCCCC"
      />
      <path
        d="M56.3078 53.338H45.757C45.4073 53.338 45.0718 53.2 44.8245 52.9544C44.5771 52.7088 44.4382 52.3757 44.4382 52.0284C44.4382 51.681 44.5771 51.3479 44.8245 51.1023C45.0718 50.8567 45.4073 50.7188 45.757 50.7188H56.3078C56.6575 50.7188 56.993 50.8567 57.2403 51.1023C57.4877 51.3479 57.6266 51.681 57.6266 52.0284C57.6266 52.3757 57.4877 52.7088 57.2403 52.9544C56.993 53.2 56.6575 53.338 56.3078 53.338Z"
        fill="#CCCCCC"
      />
      <path
        d="M69.6846 53.338H61.5831C61.2333 53.338 60.8979 53.2 60.6506 52.9544C60.4032 52.7088 60.2643 52.3757 60.2643 52.0284C60.2643 51.681 60.4032 51.3479 60.6506 51.1023C60.8979 50.8567 61.2333 50.7188 61.5831 50.7188H69.6846C70.0344 50.7188 70.3698 50.8567 70.6171 51.1023C70.8645 51.3479 71.0034 51.681 71.0034 52.0284C71.0034 52.3757 70.8645 52.7088 70.6171 52.9544C70.3698 53.2 70.0344 53.338 69.6846 53.338Z"
        fill="#CCCCCC"
      />
      <path
        d="M66.1049 57.7347C66.1053 57.3875 66.2443 57.0546 66.4916 56.8091C66.7388 56.5635 67.074 56.4254 67.4237 56.425H69.6846C70.0343 56.425 70.3698 56.563 70.6171 56.8086C70.8645 57.0542 71.0034 57.3873 71.0034 57.7347C71.0034 58.082 70.8645 58.4151 70.6171 58.6607C70.3698 58.9063 70.0343 59.0443 69.6846 59.0443H67.4237C67.074 59.0439 66.7388 58.9058 66.4916 58.6603C66.2443 58.4148 66.1052 58.0819 66.1049 57.7347Z"
        fill="#CCCCCC"
      />
      <path
        d="M50.4672 57.8282C50.4676 57.481 50.6067 57.1481 50.8539 56.9026C51.1012 56.657 51.4364 56.5189 51.786 56.5186H62.3368C62.6865 56.5186 63.022 56.6565 63.2693 56.9021C63.5167 57.1477 63.6556 57.4808 63.6556 57.8282C63.6556 58.1755 63.5167 58.5086 63.2693 58.7542C63.022 58.9998 62.6865 59.1378 62.3368 59.1378H51.786C51.4364 59.1374 51.1012 58.9993 50.8539 58.7538C50.6067 58.5083 50.4676 58.1754 50.4672 57.8282Z"
        fill="#CCCCCC"
      />
      <path
        d="M37.0904 57.8282C37.0908 57.481 37.2298 57.1481 37.4771 56.9026C37.7243 56.657 38.0595 56.5189 38.4092 56.5186H46.5107C46.8604 56.5186 47.1959 56.6565 47.4432 56.9021C47.6905 57.1477 47.8295 57.4808 47.8295 57.8282C47.8295 58.1755 47.6905 58.5086 47.4432 58.7542C47.1959 58.9998 46.8604 59.1378 46.5107 59.1378H38.4092C38.0595 59.1374 37.7243 58.9993 37.4771 58.7538C37.2298 58.5083 37.0908 58.1754 37.0904 57.8282Z"
        fill="#CCCCCC"
      />
    </g>
    <g style="mix-blend-mode: color">
      <rect width="120" height="120" fill="white" />
    </g>
  </g>
  <defs>
    <clipPath id="clip0_4843_5570">
      <rect width="120" height="120" fill="white" />
    </clipPath>
    <clipPath id="clip1_4843_5570">
      <rect width="130" height="83.9583" fill="white" transform="translate(-6 22)" />
    </clipPath>
  </defs>
</svg>
