<svg width="120" height="120" viewBox="0 0 120 120" fill="none" xmlns="http://www.w3.org/2000/svg">
  <rect x="56" y="34" width="8" height="2.66667" fill="#66A7FF" />
  <rect x="71.2025" y="35.9298" width="8" height="2.66667" transform="rotate(30 71.2025 35.9298)" fill="#66A7FF" />
  <rect x="41.8691" y="39.9298" width="8" height="2.66667" transform="rotate(-30 41.8691 39.9298)" fill="#66A7FF" />
  <circle cx="60" cy="63.3334" r="28" fill="#B3D3FF" />
  <circle cx="59.9993" cy="63.3331" r="20" transform="rotate(90 59.9993 63.3331)" fill="#66A7FF" />
  <g clip-path="url(#paint0_angular_3271_25821_clip_path)" data-figma-skip-parse="true">
    <g transform="matrix(-0.0146667 -6.411e-10 6.411e-10 -0.0146667 60 63.3333)">
      <foreignObject x="-1068.18" y="-1068.18" width="2136.36" height="2136.36"
        ><div
          xmlns="http://www.w3.org/1999/xhtml"
          style="
            background: conic-gradient(from 90deg, rgba(48, 136, 255, 0) 0deg, rgba(0, 99, 233, 1) 360deg);
            height: 100%;
            width: 100%;
            opacity: 1;
          "
        ></div
      ></foreignObject>
    </g>
  </g>
  <path
    d="M60 48.6666C62.9008 48.6666 65.7365 49.5268 68.1484 51.1384C70.5603 52.75 72.4402 55.0406 73.5503 57.7206C74.6603 60.4006 74.9508 63.3496 74.3849 66.1946C73.819 69.0397 72.4221 71.653 70.3709 73.7042C68.3197 75.7554 65.7064 77.1522 62.8613 77.7181C60.0163 78.2841 57.0673 77.9936 54.3873 76.8835C51.7073 75.7734 49.4167 73.8936 47.8051 71.4817C46.1935 69.0697 45.3334 66.2341 45.3334 63.3333L52.6667 63.3333C52.6667 64.7837 53.0968 66.2015 53.9026 67.4075C54.7084 68.6134 55.8537 69.5534 57.1937 70.1084C58.5337 70.6635 60.0082 70.8087 61.4307 70.5257C62.8532 70.2428 64.1599 69.5443 65.1855 68.5187C66.2111 67.4932 66.9095 66.1865 67.1924 64.764C67.4754 63.3414 67.3302 61.8669 66.7751 60.5269C66.2201 59.187 65.2802 58.0416 64.0742 57.2358C62.8682 56.4301 61.4504 56 60 56L60 48.6666Z"
    data-figma-gradient-fill="{&#34;type&#34;:&#34;GRADIENT_ANGULAR&#34;,&#34;stops&#34;:[{&#34;color&#34;:{&#34;r&#34;:0.18999999761581421,&#34;g&#34;:0.53578948974609375,&#34;b&#34;:1.0,&#34;a&#34;:0.0},&#34;position&#34;:0.0},{&#34;color&#34;:{&#34;r&#34;:0.0,&#34;g&#34;:0.39131009578704834,&#34;b&#34;:0.91663038730621338,&#34;a&#34;:1.0},&#34;position&#34;:1.0}],&#34;stopsVar&#34;:[],&#34;transform&#34;:{&#34;m00&#34;:-29.333330154418945,&#34;m01&#34;:1.2822008557122899e-06,&#34;m02&#34;:74.666687011718750,&#34;m10&#34;:-1.2822006283386145e-06,&#34;m11&#34;:-29.333335876464844,&#34;m12&#34;:77.999961853027344},&#34;opacity&#34;:1.0,&#34;blendMode&#34;:&#34;NORMAL&#34;,&#34;visible&#34;:true}"
  />
  <path
    d="M59.6622 46.1333C59.6651 46.0476 59.7004 45.9662 59.761 45.9056C59.893 45.7736 60.107 45.7736 60.239 45.9056C60.2996 45.9662 60.3349 46.0476 60.3378 46.1333L60.9818 65.4533C60.9931 65.7932 60.8278 66.1147 60.5449 66.3034C60.2149 66.5233 59.7851 66.5233 59.4551 66.3034C59.1722 66.1147 59.0069 65.7932 59.0182 65.4533L59.6622 46.1333Z"
    fill="white"
  />
  <path
    d="M45.1075 63.6721C45.0152 63.6687 44.9283 63.6277 44.8669 63.5586C44.7527 63.4301 44.7527 63.2366 44.8669 63.1082C44.9283 63.0391 45.0152 62.9981 45.1075 62.9946L62.1588 62.3552C62.5175 62.3417 62.8547 62.5256 63.0376 62.8343C63.22 63.142 63.22 63.5247 63.0376 63.8324C62.8547 64.1411 62.5175 64.325 62.1588 64.3116L45.1075 63.6721Z"
    fill="white"
  />
  <path
    d="M72.9635 75.8255C73.0937 75.9556 73.0937 76.1667 72.9635 76.2969C72.8333 76.427 72.6223 76.427 72.4921 76.2969L58.1143 61.919C57.9841 61.7888 57.9841 61.5778 58.1143 61.4476C58.2444 61.3174 58.4555 61.3174 58.5857 61.4476L72.9635 75.8255Z"
    fill="#0F6EEB"
  />
  <rect x="54.6667" y="28.6666" width="10.6667" height="5.33333" rx="2.66667" fill="#B3D3FF" />
  <rect
    x="72.7148"
    y="30.6445"
    width="10.6667"
    height="5.33333"
    rx="2.66667"
    transform="rotate(30 72.7148 30.6445)"
    fill="#B3D3FF"
  />
  <rect
    x="38.0482"
    y="35.9779"
    width="10.6667"
    height="5.33333"
    rx="2.66667"
    transform="rotate(-30 38.0482 35.9779)"
    fill="#B3D3FF"
  />
  <path
    d="M31.5 25.8334H30.5V25.0834C30.5 24.6855 30.342 24.304 30.0607 24.0227C29.7794 23.7414 29.3978 23.5834 29 23.5834C28.6022 23.5834 28.2206 23.7414 27.9393 24.0227C27.658 24.304 27.5 24.6855 27.5 25.0834V25.8334H26.5C26.3674 25.8334 26.2402 25.8861 26.1464 25.9798C26.0527 26.0736 26 26.2008 26 26.3334V29.8334C26 29.966 26.0527 30.0932 26.1464 30.1869C26.2402 30.2807 26.3674 30.3334 26.5 30.3334H31.5C31.6326 30.3334 31.7598 30.2807 31.8536 30.1869C31.9473 30.0932 32 29.966 32 29.8334V26.3334C32 26.2008 31.9473 26.0736 31.8536 25.9798C31.7598 25.8861 31.6326 25.8334 31.5 25.8334ZM28 25.0834C28 24.8182 28.1054 24.5638 28.2929 24.3763C28.4804 24.1887 28.7348 24.0834 29 24.0834C29.2652 24.0834 29.5196 24.1887 29.7071 24.3763C29.8946 24.5638 30 24.8182 30 25.0834V25.8334H28V25.0834ZM31.5 29.8334H26.5V26.3334H31.5V29.8334ZM29.375 28.0834C29.375 28.1575 29.353 28.23 29.3118 28.2917C29.2706 28.3534 29.212 28.4014 29.1435 28.4298C29.075 28.4582 28.9996 28.4656 28.9268 28.4512C28.8541 28.4367 28.7873 28.401 28.7348 28.3485C28.6824 28.2961 28.6467 28.2293 28.6322 28.1565C28.6177 28.0838 28.6252 28.0084 28.6535 27.9399C28.6819 27.8713 28.73 27.8128 28.7917 27.7716C28.8533 27.7304 28.9258 27.7084 29 27.7084C29.0995 27.7084 29.1948 27.7479 29.2652 27.8182C29.3355 27.8885 29.375 27.9839 29.375 28.0834Z"
    fill="#BABCC0"
  />
  <path
    d="M91.8333 84.8334H90.8333V84.0834C90.8333 83.6855 90.6753 83.304 90.394 83.0227C90.1127 82.7414 89.7311 82.5834 89.3333 82.5834C88.9355 82.5834 88.554 82.7414 88.2727 83.0227C87.9913 83.304 87.8333 83.6855 87.8333 84.0834V84.8334H86.8333C86.7007 84.8334 86.5735 84.8861 86.4798 84.9798C86.386 85.0736 86.3333 85.2008 86.3333 85.3334V88.8334C86.3333 88.966 86.386 89.0932 86.4798 89.1869C86.5735 89.2807 86.7007 89.3334 86.8333 89.3334H91.8333C91.9659 89.3334 92.0931 89.2807 92.1869 89.1869C92.2806 89.0932 92.3333 88.966 92.3333 88.8334V85.3334C92.3333 85.2008 92.2806 85.0736 92.1869 84.9798C92.0931 84.8861 91.9659 84.8334 91.8333 84.8334ZM88.3333 84.0834C88.3333 83.8182 88.4387 83.5638 88.6262 83.3763C88.8137 83.1887 89.0681 83.0834 89.3333 83.0834C89.5985 83.0834 89.8529 83.1887 90.0404 83.3763C90.228 83.5638 90.3333 83.8182 90.3333 84.0834V84.8334H88.3333V84.0834ZM91.8333 88.8334H86.8333V85.3334H91.8333V88.8334ZM89.7083 87.0834C89.7083 87.1575 89.6863 87.23 89.6451 87.2917C89.6039 87.3534 89.5453 87.4014 89.4768 87.4298C89.4083 87.4582 89.3329 87.4656 89.2602 87.4512C89.1874 87.4367 89.1206 87.401 89.0681 87.3485C89.0157 87.2961 88.98 87.2293 88.9655 87.1565C88.951 87.0838 88.9585 87.0084 88.9869 86.9399C89.0152 86.8713 89.0633 86.8128 89.125 86.7716C89.1866 86.7304 89.2591 86.7084 89.3333 86.7084C89.4328 86.7084 89.5282 86.7479 89.5985 86.8182C89.6688 86.8885 89.7083 86.9839 89.7083 87.0834Z"
    fill="#BABCC0"
  />
  <path
    d="M66.5 102.167H65.5V101.417C65.5 101.019 65.342 100.637 65.0607 100.356C64.7794 100.075 64.3978 99.9166 64 99.9166C63.6022 99.9166 63.2206 100.075 62.9393 100.356C62.658 100.637 62.5 101.019 62.5 101.417V102.167H61.5C61.3674 102.167 61.2402 102.219 61.1464 102.313C61.0527 102.407 61 102.534 61 102.667V106.167C61 106.299 61.0527 106.426 61.1464 106.52C61.2402 106.614 61.3674 106.667 61.5 106.667H66.5C66.6326 106.667 66.7598 106.614 66.8536 106.52C66.9473 106.426 67 106.299 67 106.167V102.667C67 102.534 66.9473 102.407 66.8536 102.313C66.7598 102.219 66.6326 102.167 66.5 102.167ZM63 101.417C63 101.151 63.1054 100.897 63.2929 100.71C63.4804 100.522 63.7348 100.417 64 100.417C64.2652 100.417 64.5196 100.522 64.7071 100.71C64.8946 100.897 65 101.151 65 101.417V102.167H63V101.417ZM66.5 106.167H61.5V102.667H66.5V106.167ZM64.375 104.417C64.375 104.491 64.353 104.563 64.3118 104.625C64.2706 104.687 64.212 104.735 64.1435 104.763C64.075 104.791 63.9996 104.799 63.9268 104.784C63.8541 104.77 63.7873 104.734 63.7348 104.682C63.6824 104.629 63.6467 104.563 63.6322 104.49C63.6177 104.417 63.6252 104.342 63.6535 104.273C63.6819 104.205 63.73 104.146 63.7917 104.105C63.8533 104.064 63.9258 104.042 64 104.042C64.0995 104.042 64.1948 104.081 64.2652 104.151C64.3355 104.222 64.375 104.317 64.375 104.417Z"
    fill="#BABCC0"
  />
  <path
    d="M21.1667 67.8334H20.1667V67.0834C20.1667 66.6855 20.0087 66.304 19.7273 66.0227C19.446 65.7414 19.0645 65.5834 18.6667 65.5834C18.2689 65.5834 17.8873 65.7414 17.606 66.0227C17.3247 66.304 17.1667 66.6855 17.1667 67.0834V67.8334H16.1667C16.0341 67.8334 15.9069 67.8861 15.8131 67.9798C15.7194 68.0736 15.6667 68.2008 15.6667 68.3334V71.8334C15.6667 71.966 15.7194 72.0932 15.8131 72.1869C15.9069 72.2807 16.0341 72.3334 16.1667 72.3334H21.1667C21.2993 72.3334 21.4265 72.2807 21.5202 72.1869C21.614 72.0932 21.6667 71.966 21.6667 71.8334V68.3334C21.6667 68.2008 21.614 68.0736 21.5202 67.9798C21.4265 67.8861 21.2993 67.8334 21.1667 67.8334ZM17.6667 67.0834C17.6667 66.8182 17.772 66.5638 17.9596 66.3763C18.1471 66.1887 18.4015 66.0834 18.6667 66.0834C18.9319 66.0834 19.1863 66.1887 19.3738 66.3763C19.5613 66.5638 19.6667 66.8182 19.6667 67.0834V67.8334H17.6667V67.0834ZM21.1667 71.8334H16.1667V68.3334H21.1667V71.8334ZM19.0417 70.0834C19.0417 70.1575 19.0197 70.23 18.9785 70.2917C18.9373 70.3534 18.8787 70.4014 18.8102 70.4298C18.7417 70.4582 18.6663 70.4656 18.5935 70.4512C18.5208 70.4367 18.454 70.401 18.4015 70.3485C18.3491 70.2961 18.3134 70.2293 18.2989 70.1565C18.2844 70.0838 18.2918 70.0084 18.3202 69.9399C18.3486 69.8713 18.3967 69.8128 18.4583 69.7716C18.52 69.7304 18.5925 69.7084 18.6667 69.7084C18.7661 69.7084 18.8615 69.7479 18.9319 69.8182C19.0022 69.8885 19.0417 69.9839 19.0417 70.0834Z"
    fill="#BABCC0"
  />
  <path
    d="M97.5 32.5H96.5V31.75C96.5 31.3522 96.342 30.9706 96.0607 30.6893C95.7794 30.408 95.3978 30.25 95 30.25C94.6022 30.25 94.2206 30.408 93.9393 30.6893C93.658 30.9706 93.5 31.3522 93.5 31.75V32.5H92.5C92.3674 32.5 92.2402 32.5527 92.1464 32.6464C92.0527 32.7402 92 32.8674 92 33V36.5C92 36.6326 92.0527 36.7598 92.1464 36.8536C92.2402 36.9473 92.3674 37 92.5 37H97.5C97.6326 37 97.7598 36.9473 97.8536 36.8536C97.9473 36.7598 98 36.6326 98 36.5V33C98 32.8674 97.9473 32.7402 97.8536 32.6464C97.7598 32.5527 97.6326 32.5 97.5 32.5ZM94 31.75C94 31.4848 94.1054 31.2304 94.2929 31.0429C94.4804 30.8554 94.7348 30.75 95 30.75C95.2652 30.75 95.5196 30.8554 95.7071 31.0429C95.8946 31.2304 96 31.4848 96 31.75V32.5H94V31.75ZM97.5 36.5H92.5V33H97.5V36.5ZM95.375 34.75C95.375 34.8242 95.353 34.8967 95.3118 34.9583C95.2706 35.02 95.212 35.0681 95.1435 35.0965C95.075 35.1248 94.9996 35.1323 94.9268 35.1178C94.8541 35.1033 94.7873 35.0676 94.7348 35.0152C94.6824 34.9627 94.6467 34.8959 94.6322 34.8232C94.6177 34.7504 94.6252 34.675 94.6535 34.6065C94.6819 34.538 94.73 34.4794 94.7917 34.4382C94.8533 34.397 94.9258 34.375 95 34.375C95.0995 34.375 95.1948 34.4145 95.2652 34.4848C95.3355 34.5552 95.375 34.6505 95.375 34.75Z"
    fill="#BABCC0"
  />
  <path
    d="M23.168 45.6014C23.6553 44.6529 25.0113 44.6529 25.4987 45.6014C25.6237 45.8448 25.8218 46.043 26.0652 46.168C27.0138 46.6554 27.0138 48.0114 26.0652 48.4987C25.8218 48.6238 25.6237 48.8219 25.4987 49.0653C25.0113 50.0138 23.6553 50.0138 23.168 49.0653C23.0429 48.8219 22.8448 48.6238 22.6014 48.4987C21.6528 48.0114 21.6528 46.6554 22.6014 46.168C22.8448 46.043 23.0429 45.8448 23.168 45.6014Z"
    fill="#A8F5C2"
  />
  <path
    d="M45.8898 96.1787C46.2147 95.5463 47.1187 95.5463 47.4436 96.1787C47.5269 96.3409 47.659 96.473 47.8213 96.5564C48.4536 96.8813 48.4536 97.7853 47.8213 98.1102C47.659 98.1936 47.5269 98.3256 47.4436 98.4879C47.1187 99.1203 46.2147 99.1203 45.8898 98.4879C45.8064 98.3256 45.6743 98.1936 45.512 98.1102C44.8797 97.7853 44.8797 96.8813 45.512 96.5564C45.6743 96.473 45.8064 96.3409 45.8898 96.1787Z"
    fill="#A8F5C2"
  />
  <path
    d="M81.8898 98.512C82.2147 97.8797 83.1187 97.8797 83.4436 98.512C83.5269 98.6743 83.659 98.8064 83.8213 98.8898C84.4536 99.2147 84.4536 100.119 83.8213 100.444C83.659 100.527 83.5269 100.659 83.4436 100.821C83.1187 101.454 82.2147 101.454 81.8898 100.821C81.8064 100.659 81.6743 100.527 81.512 100.444C80.8797 100.119 80.8797 99.2147 81.512 98.8898C81.6743 98.8064 81.8064 98.6743 81.8898 98.512Z"
    fill="#A8F5C2"
  />
  <path
    d="M49.2231 16.8454C49.548 16.2131 50.452 16.2131 50.7769 16.8454C50.8602 17.0077 50.9923 17.1398 51.1546 17.2231C51.787 17.5481 51.787 18.452 51.1546 18.7769C50.9923 18.8603 50.8602 18.9924 50.7769 19.1547C50.452 19.787 49.548 19.787 49.2231 19.1547C49.1397 18.9924 49.0076 18.8603 48.8454 18.7769C48.213 18.452 48.213 17.5481 48.8454 17.2231C49.0076 17.1398 49.1397 17.0077 49.2231 16.8454Z"
    fill="#A8F5C2"
  />
  <path
    d="M95.5565 51.1787C95.8814 50.5463 96.7853 50.5463 97.1102 51.1787C97.1936 51.3409 97.3257 51.473 97.488 51.5564C98.1203 51.8813 98.1203 52.7853 97.488 53.1102C97.3257 53.1936 97.1936 53.3256 97.1102 53.4879C96.7853 54.1203 95.8814 54.1203 95.5565 53.4879C95.4731 53.3256 95.341 53.1936 95.1787 53.1102C94.5464 52.7853 94.5464 51.8813 95.1787 51.5564C95.341 51.473 95.4731 51.3409 95.5565 51.1787Z"
    fill="#A8F5C2"
  />
  <path
    d="M72.5565 19.512C72.8814 18.8797 73.7853 18.8797 74.1102 19.512C74.1936 19.6743 74.3257 19.8064 74.488 19.8898C75.1203 20.2147 75.1203 21.1187 74.488 21.4436C74.3257 21.5269 74.1936 21.659 74.1102 21.8213C73.7853 22.4536 72.8814 22.4536 72.5565 21.8213C72.4731 21.659 72.341 21.5269 72.1787 21.4436C71.5464 21.1187 71.5464 20.2147 72.1787 19.8898C72.341 19.8064 72.4731 19.6743 72.5565 19.512Z"
    fill="#A8F5C2"
  />
  <path
    d="M101.168 67.6014C101.655 66.6529 103.011 66.6529 103.499 67.6014C103.624 67.8448 103.822 68.043 104.065 68.168C105.014 68.6554 105.014 70.0114 104.065 70.4987C103.822 70.6238 103.624 70.8219 103.499 71.0653C103.011 72.0138 101.655 72.0138 101.168 71.0653C101.043 70.8219 100.845 70.6238 100.601 70.4987C99.6528 70.0114 99.6528 68.6554 100.601 68.168C100.845 68.043 101.043 67.8448 101.168 67.6014Z"
    fill="#A8F5C2"
  />
  <path
    d="M26.8347 88.9347C27.322 87.9862 28.678 87.9862 29.1653 88.9347C29.2904 89.1781 29.4885 89.3762 29.7319 89.5013C30.6805 89.9886 30.6805 91.3446 29.7319 91.832C29.4885 91.957 29.2904 92.1552 29.1653 92.3986C28.678 93.3471 27.322 93.3471 26.8347 92.3986C26.7096 92.1552 26.5115 91.957 26.2681 91.832C25.3195 91.3446 25.3195 89.9886 26.2681 89.5013C26.5115 89.3762 26.7096 89.1781 26.8347 88.9347Z"
    fill="#A8F5C2"
  />
  <g style="mix-blend-mode: color">
    <rect width="120" height="120" fill="white" />
  </g>
  <defs>
    <clipPath id="paint0_angular_3271_25821_clip_path">
      <path
        d="M60 48.6666C62.9008 48.6666 65.7365 49.5268 68.1484 51.1384C70.5603 52.75 72.4402 55.0406 73.5503 57.7206C74.6603 60.4006 74.9508 63.3496 74.3849 66.1946C73.819 69.0397 72.4221 71.653 70.3709 73.7042C68.3197 75.7554 65.7064 77.1522 62.8613 77.7181C60.0163 78.2841 57.0673 77.9936 54.3873 76.8835C51.7073 75.7734 49.4167 73.8936 47.8051 71.4817C46.1935 69.0697 45.3334 66.2341 45.3334 63.3333L52.6667 63.3333C52.6667 64.7837 53.0968 66.2015 53.9026 67.4075C54.7084 68.6134 55.8537 69.5534 57.1937 70.1084C58.5337 70.6635 60.0082 70.8087 61.4307 70.5257C62.8532 70.2428 64.1599 69.5443 65.1855 68.5187C66.2111 67.4932 66.9095 66.1865 67.1924 64.764C67.4754 63.3414 67.3302 61.8669 66.7751 60.5269C66.2201 59.187 65.2802 58.0416 64.0742 57.2358C62.8682 56.4301 61.4504 56 60 56L60 48.6666Z"
      />
    </clipPath>
  </defs>
</svg>
