<svg width="388" height="297" viewBox="0 0 388 297" fill="none" xmlns="http://www.w3.org/2000/svg">
  <g clip-path="url(#clip0_3273_18484)">
    <rect width="120" height="120" transform="translate(268)" fill="white" />
    <path
      d="M376.688 100H276.272C275.019 100 274 98.9674 274 97.6977V29.3023C274 28.0326 275.019 27 276.272 27H376.688C377.941 27 378.96 28.0326 378.96 29.3023V97.6961C378.96 98.9658 377.941 99.9984 376.688 99.9984V100Z"
      fill="white"
    />
    <path
      d="M376.688 100H276.272C275.019 100 274 98.9674 274 97.6977V29.3023C274 28.0326 275.019 27 276.272 27H376.688C377.941 27 378.96 28.0326 378.96 29.3023V97.6961C378.96 98.9658 377.941 99.9984 376.688 99.9984V100ZM276.272 27.9359C275.528 27.9359 274.923 28.5489 274.923 29.3023V97.6961C274.923 98.4495 275.528 99.0625 276.272 99.0625H376.688C377.432 99.0625 378.036 98.4495 378.036 97.6961V29.3023C378.036 28.5489 377.432 27.9359 376.688 27.9359H276.272Z"
      fill="#DFDFDF"
    />
    <path
      d="M378.498 29.3024V31.1929H274.462V29.3024C274.462 28.2885 275.273 27.468 276.272 27.468H376.688C377.689 27.468 378.498 28.29 378.498 29.3024Z"
      fill="#DFDFDF"
    />
    <path
      d="M276.676 29.8469C276.97 29.8469 277.207 29.606 277.207 29.3088C277.207 29.0116 276.97 28.7706 276.676 28.7706C276.383 28.7706 276.146 29.0116 276.146 29.3088C276.146 29.606 276.383 29.8469 276.676 29.8469Z"
      fill="white"
    />
    <path
      d="M278.448 29.8469C278.741 29.8469 278.979 29.606 278.979 29.3088C278.979 29.0116 278.741 28.7706 278.448 28.7706C278.155 28.7706 277.917 29.0116 277.917 29.3088C277.917 29.606 278.155 29.8469 278.448 29.8469Z"
      fill="white"
    />
    <path
      d="M280.219 29.8469C280.513 29.8469 280.75 29.606 280.75 29.3088C280.75 29.0116 280.513 28.7706 280.219 28.7706C279.926 28.7706 279.688 29.0116 279.688 29.3088C279.688 29.606 279.926 29.8469 280.219 29.8469Z"
      fill="white"
    />
    <path
      d="M367.027 33.1692H284.781C284.023 33.1692 283.408 33.7921 283.408 34.5606C283.408 35.329 284.023 35.9519 284.781 35.9519H367.027C367.786 35.9519 368.4 35.329 368.4 34.5606C368.4 33.7921 367.786 33.1692 367.027 33.1692Z"
      fill="#DFDFDF"
    />
    <path
      d="M310.743 66.1579H292.434C291.329 66.1579 290.43 65.247 290.43 64.127V48.2636C290.43 47.1436 291.329 46.2327 292.434 46.2327H310.743C311.848 46.2327 312.747 47.1436 312.747 48.2636V64.127C312.747 65.247 311.848 66.1579 310.743 66.1579ZM292.434 46.8566C291.669 46.8566 291.045 47.4883 291.045 48.2636V64.127C291.045 64.9023 291.669 65.534 292.434 65.534H310.743C311.508 65.534 312.131 64.9023 312.131 64.127V48.2636C312.131 47.4883 311.508 46.8566 310.743 46.8566H292.434Z"
      fill="#DFDFDF"
    />
    <path
      d="M335.634 66.1579H317.325C316.22 66.1579 315.322 65.247 315.322 64.127V48.2636C315.322 47.1436 316.22 46.2327 317.325 46.2327H335.634C336.74 46.2327 337.638 47.1436 337.638 48.2636V64.127C337.638 65.247 336.74 66.1579 335.634 66.1579ZM317.325 46.8566C316.561 46.8566 315.937 47.4883 315.937 48.2636V64.127C315.937 64.9023 316.561 65.534 317.325 65.534H335.634C336.399 65.534 337.023 64.9023 337.023 64.127V48.2636C337.023 47.4883 336.399 46.8566 335.634 46.8566H317.325Z"
      fill="#DFDFDF"
    />
    <path
      d="M360.526 66.1579H342.217C341.112 66.1579 340.213 65.247 340.213 64.127V48.2636C340.213 47.1436 341.112 46.2327 342.217 46.2327H360.526C361.631 46.2327 362.53 47.1436 362.53 48.2636V64.127C362.53 65.247 361.631 66.1579 360.526 66.1579ZM342.217 46.8566C341.452 46.8566 340.829 47.4883 340.829 48.2636V64.127C340.829 64.9023 341.452 65.534 342.217 65.534H360.526C361.291 65.534 361.914 64.9023 361.914 64.127V48.2636C361.914 47.4883 361.291 46.8566 360.526 46.8566H342.217Z"
      fill="#DFDFDF"
    />
    <path
      d="M310.743 90.9593H292.434C291.329 90.9593 290.43 90.0484 290.43 88.9284V73.065C290.43 71.945 291.329 71.0341 292.434 71.0341H310.743C311.848 71.0341 312.747 71.945 312.747 73.065V88.9284C312.747 90.0484 311.848 90.9593 310.743 90.9593ZM292.434 71.658C291.669 71.658 291.045 72.2897 291.045 73.065V88.9284C291.045 89.7037 291.669 90.3354 292.434 90.3354H310.743C311.508 90.3354 312.131 89.7037 312.131 88.9284V73.065C312.131 72.2897 311.508 71.658 310.743 71.658H292.434Z"
      fill="#DFDFDF"
    />
    <path
      d="M335.634 90.9593H317.325C316.22 90.9593 315.322 90.0484 315.322 88.9284V73.065C315.322 71.945 316.22 71.0341 317.325 71.0341H335.634C336.74 71.0341 337.638 71.945 337.638 73.065V88.9284C337.638 90.0484 336.74 90.9593 335.634 90.9593ZM317.325 71.658C316.561 71.658 315.937 72.2897 315.937 73.065V88.9284C315.937 89.7037 316.561 90.3354 317.325 90.3354H335.634C336.399 90.3354 337.023 89.7037 337.023 88.9284V73.065C337.023 72.2897 336.399 71.658 335.634 71.658H317.325Z"
      fill="#DFDFDF"
    />
    <path
      d="M360.526 90.9593H342.217C341.112 90.9593 340.213 90.0484 340.213 88.9284V73.065C340.213 71.945 341.112 71.0341 342.217 71.0341H360.526C361.631 71.0341 362.53 71.945 362.53 73.065V88.9284C362.53 90.0484 361.631 90.9593 360.526 90.9593Z"
      fill="#17AD49"
    />
    <path
      d="M366.672 40.9496L368.56 39.46C368.56 39.46 370.715 40.14 370.77 40.1681C370.826 40.1962 374.115 47.9267 374.115 47.9267C374.115 47.9267 365.69 52.2974 366.306 51.87C366.921 51.4457 366.793 45.6852 366.221 44.935C365.647 44.1831 366.136 42.2957 366.136 42.2957L366.667 40.948H366.67L366.672 40.9496Z"
      fill="#2F2E43"
    />
    <path d="M371.892 44.4327H369.331V48.5507L372.156 47.6101L371.892 44.4327Z" fill="#F2A2A5" />
    <path
      d="M363.526 70.9888C363.592 70.6129 363.566 70.2245 363.449 69.8564L364.342 65.9677L362.438 65.5637L361.739 69.5522C361.511 69.8579 361.363 70.2167 361.308 70.5942C361.154 71.5379 361.528 72.3927 362.141 72.5003C362.753 72.6095 363.374 71.9325 363.527 70.9888H363.526Z"
      fill="#F2A2A5"
    />
    <path d="M371.094 93.714H368.449V97.5153H371.094V93.714Z" fill="#F2A2A5" />
    <path
      d="M365.876 99.8163C367.037 99.8163 368.731 99.693 368.743 99.6915C369.197 99.732 371.46 99.913 371.572 99.3889C371.675 98.9069 371.523 98.403 371.501 98.3329C371.283 96.1413 371.203 96.1148 371.154 96.1007C371.077 96.0773 370.852 96.1865 370.487 96.4252L370.464 96.4408L370.459 96.4673C370.453 96.5001 370.292 97.3049 369.525 97.1833C369 97.099 368.83 96.9805 368.776 96.9228C368.82 96.9025 368.876 96.8666 368.914 96.8058C368.971 96.7169 368.98 96.6014 368.943 96.4626C368.845 96.0992 368.549 95.561 368.537 95.5376L368.503 95.4768L365.499 97.5311L363.643 98.0692C363.503 98.1082 363.39 98.2112 363.333 98.3469C363.255 98.5356 363.303 98.7571 363.455 98.8944C363.792 99.2017 364.463 99.7273 365.165 99.7929C365.351 99.81 365.599 99.8178 365.878 99.8178L365.876 99.8163Z"
      fill="#2F2E43"
    />
    <path d="M378.623 90.7262L376.379 92.1443L378.364 95.3697L380.608 93.9516L378.623 90.7262Z" fill="#F2A2A5" />
    <path
      d="M375.642 99.2968C376.011 99.2968 376.419 99.2437 376.762 99.0675C377.629 98.626 379.736 97.074 379.748 97.0631C380.153 96.8556 382.167 95.7949 381.989 95.2896C381.824 94.8247 381.432 94.4784 381.378 94.4317C380.048 92.6878 379.968 92.7096 379.919 92.7236C379.84 92.7455 379.708 92.9576 379.522 93.3554L379.511 93.3803L379.522 93.4053C379.534 93.438 379.817 94.207 379.103 94.5128C378.614 94.7233 378.407 94.7155 378.332 94.6937C378.36 94.6516 378.387 94.5923 378.389 94.519C378.392 94.4129 378.34 94.3084 378.235 94.2117C377.961 93.9559 377.43 93.658 377.407 93.6455L377.347 93.6127L375.869 96.9679L374.575 98.4186C374.477 98.5278 374.435 98.6744 374.458 98.821C374.49 99.0238 374.647 99.1845 374.847 99.2203C375.051 99.2562 375.335 99.2952 375.646 99.2952L375.642 99.2968Z"
      fill="#2F2E43"
    />
    <path
      d="M373.041 61.9215C373.041 61.9215 373.898 61.9215 375.241 64.645C376.585 67.37 374.875 78.3044 374.875 78.3044L379.662 90.8579L376.303 93.2413L370.173 79.7956L371.685 94.6888H367.906L364.966 68.9017L365.637 61.9231H373.041V61.9215Z"
      fill="#2F2E43"
    />
    <path d="M373.616 46.9441H368.494L363.875 62.3474H376.722L373.616 46.9441Z" fill="#17AD49" />
    <path
      d="M369.304 46.9442L364.097 68.8161H361.493C361.493 68.8161 365.439 48.5617 365.776 47.7101C366.112 46.8584 369.302 46.9442 369.302 46.9442H369.304Z"
      fill="#17AD49"
    />
    <path
      d="M369.682 45.5715C371.236 45.5715 372.496 44.2949 372.496 42.7201C372.496 41.1454 371.236 39.8688 369.682 39.8688C368.128 39.8688 366.869 41.1454 366.869 42.7201C366.869 44.2949 368.128 45.5715 369.682 45.5715Z"
      fill="#F2A2A5"
    />
    <path
      d="M366.178 42.2007L366.867 42.3193C367.511 39.7081 368.968 40.5613 369.107 40.5317C369.245 40.502 371.317 42.7997 371.149 45.1269C370.981 47.4526 373.949 48.543 373.949 48.543C373.949 48.543 374.986 50.5177 374.061 54.0913C373.136 57.6649 375.097 58.8644 375.097 58.8644C378.96 58.5321 376.637 53.0696 376.022 52.0775C375.406 51.0839 375.826 49.3541 375.826 49.3541C376.779 48.5024 375.658 46.6306 375.658 46.6306C375.658 46.6306 375.856 44.1333 375.268 43.6513C374.68 43.1694 374.652 41.9776 374.652 41.9776C373.615 37.4105 370.229 38.2902 370.229 38.2902C365.89 37.8082 366.179 42.1991 366.179 42.1991L366.178 42.2007Z"
      fill="#2F2E43"
    />
    <path
      d="M378.915 70.5318C378.844 70.1559 378.684 69.8018 378.446 69.5007L377.916 65.5435L375.994 65.8523L376.737 69.833C376.634 70.2011 376.622 70.5879 376.701 70.9623C376.887 71.8998 377.535 72.5627 378.146 72.4441C378.757 72.3256 379.102 71.4692 378.914 70.5318H378.915Z"
      fill="#F2A2A5"
    />
    <path
      d="M376.203 68.5586H378.808C378.808 68.5586 374.861 48.3042 374.524 47.4525C374.189 46.6008 371.378 46.9627 371.378 46.9627L376.203 68.5586Z"
      fill="#17AD49"
    />
    <g style="mix-blend-mode: color">
      <rect x="268" width="120" height="120" fill="white" />
    </g>
  </g>
  <rect width="120" height="120" transform="translate(0 177)" fill="white" />
  <path
    d="M7.20357 245.902C7.47016 245.383 8.21187 245.383 8.47846 245.902L9.19529 247.297C9.2637 247.43 9.37208 247.538 9.50522 247.607L10.9004 248.324C11.4192 248.59 11.4192 249.332 10.9004 249.599L9.50522 250.315C9.37208 250.384 9.2637 250.492 9.19529 250.625L8.47846 252.02C8.21187 252.539 7.47016 252.539 7.20357 252.02L6.48674 250.625C6.41833 250.492 6.30995 250.384 6.17681 250.315L4.78167 249.599C4.26281 249.332 4.26281 248.59 4.78167 248.324L6.17681 247.607C6.30995 247.538 6.41833 247.43 6.48674 247.297L7.20357 245.902Z"
    fill="#E6EFFF"
  />
  <path
    d="M106.204 219.902C106.47 219.383 107.212 219.383 107.478 219.902L108.195 221.297C108.264 221.43 108.372 221.538 108.505 221.607L109.9 222.324C110.419 222.59 110.419 223.332 109.9 223.599L108.505 224.315C108.372 224.384 108.264 224.492 108.195 224.625L107.478 226.02C107.212 226.539 106.47 226.539 106.204 226.02L105.487 224.625C105.418 224.492 105.31 224.384 105.177 224.315L103.782 223.599C103.263 223.332 103.263 222.59 103.782 222.324L105.177 221.607C105.31 221.538 105.418 221.43 105.487 221.297L106.204 219.902Z"
    fill="#E6EFFF"
  />
  <path
    d="M76.2036 197.902C76.4702 197.383 77.2119 197.383 77.4785 197.902L78.1953 199.297C78.2637 199.43 78.3721 199.538 78.5052 199.607L79.9004 200.324C80.4192 200.59 80.4192 201.332 79.9004 201.599L78.5052 202.315C78.3721 202.384 78.2637 202.492 78.1953 202.625L77.4785 204.02C77.2119 204.539 76.4702 204.539 76.2036 204.02L75.4867 202.625C75.4183 202.492 75.31 202.384 75.1768 202.315L73.7817 201.599C73.2628 201.332 73.2628 200.59 73.7817 200.324L75.1768 199.607C75.31 199.538 75.4183 199.43 75.4867 199.297L76.2036 197.902Z"
    fill="#E6EFFF"
  />
  <path
    d="M57.7702 207.902C58.0368 207.383 58.7785 207.383 59.0451 207.902L59.2755 208.35C59.3439 208.483 59.4523 208.592 59.5854 208.66L60.0337 208.89C60.5526 209.157 60.5526 209.899 60.0337 210.165L59.5854 210.396C59.4523 210.464 59.3439 210.572 59.2755 210.706L59.0451 211.154C58.7785 211.673 58.0368 211.673 57.7702 211.154L57.5399 210.706C57.4715 210.572 57.3631 210.464 57.23 210.396L56.7817 210.165C56.2628 209.899 56.2628 209.157 56.7817 208.89L57.23 208.66C57.3631 208.592 57.4715 208.483 57.5399 208.35L57.7702 207.902Z"
    fill="#E6EFFF"
  />
  <path
    d="M26.7702 221.902C27.0368 221.383 27.7785 221.383 28.0451 221.902L28.2755 222.35C28.3439 222.483 28.4523 222.592 28.5854 222.66L29.0337 222.89C29.5526 223.157 29.5526 223.899 29.0337 224.165L28.5854 224.396C28.4523 224.464 28.3439 224.572 28.2755 224.706L28.0451 225.154C27.7785 225.673 27.0368 225.673 26.7702 225.154L26.5399 224.706C26.4715 224.572 26.3631 224.464 26.23 224.396L25.7817 224.165C25.2628 223.899 25.2628 223.157 25.7817 222.89L26.23 222.66C26.3631 222.592 26.4715 222.483 26.5399 222.35L26.7702 221.902Z"
    fill="#E6EFFF"
  />
  <path
    d="M89.2702 210.902C89.5368 210.383 90.2785 210.383 90.5451 210.902L90.7755 211.35C90.8439 211.483 90.9523 211.592 91.0854 211.66L91.5337 211.89C92.0526 212.157 92.0526 212.899 91.5337 213.165L91.0854 213.396C90.9523 213.464 90.8439 213.572 90.7755 213.706L90.5451 214.154C90.2785 214.673 89.5368 214.673 89.2702 214.154L89.0399 213.706C88.9715 213.572 88.8631 213.464 88.73 213.396L88.2817 213.165C87.7628 212.899 87.7628 212.157 88.2817 211.89L88.73 211.66C88.8631 211.592 88.9715 211.483 89.0399 211.35L89.2702 210.902Z"
    fill="#E6EFFF"
  />
  <path
    d="M108.77 244.902C109.037 244.383 109.779 244.383 110.045 244.902L110.275 245.35C110.344 245.483 110.452 245.592 110.585 245.66L111.034 245.89C111.553 246.157 111.553 246.899 111.034 247.165L110.585 247.396C110.452 247.464 110.344 247.572 110.275 247.706L110.045 248.154C109.779 248.673 109.037 248.673 108.77 248.154L108.54 247.706C108.471 247.572 108.363 247.464 108.23 247.396L107.782 247.165C107.263 246.899 107.263 246.157 107.782 245.89L108.23 245.66C108.363 245.592 108.471 245.483 108.54 245.35L108.77 244.902Z"
    fill="#E6EFFF"
  />
  <path
    d="M29.2036 201.902C29.4702 201.383 30.2119 201.383 30.4785 201.902L31.1953 203.297C31.2637 203.43 31.3721 203.538 31.5052 203.607L32.9004 204.324C33.4192 204.59 33.4192 205.332 32.9004 205.599L31.5052 206.315C31.3721 206.384 31.2637 206.492 31.1953 206.625L30.4785 208.02C30.2119 208.539 29.4702 208.539 29.2036 208.02L28.4867 206.625C28.4183 206.492 28.31 206.384 28.1768 206.315L26.7817 205.599C26.2628 205.332 26.2628 204.59 26.7817 204.324L28.1768 203.607C28.31 203.538 28.4183 203.43 28.4867 203.297L29.2036 201.902Z"
    fill="#E6EFFF"
  />
  <path
    d="M8.77023 227.902C9.03682 227.383 9.77854 227.383 10.0451 227.902L10.2755 228.35C10.3439 228.483 10.4523 228.592 10.5854 228.66L11.0337 228.89C11.5526 229.157 11.5526 229.899 11.0337 230.165L10.5854 230.396C10.4523 230.464 10.3439 230.572 10.2755 230.706L10.0451 231.154C9.77854 231.673 9.03682 231.673 8.77023 231.154L8.5399 230.706C8.47149 230.572 8.36311 230.464 8.22997 230.396L7.78167 230.165C7.26281 229.899 7.26281 229.157 7.78167 228.89L8.22997 228.66C8.36311 228.592 8.47149 228.483 8.5399 228.35L8.77023 227.902Z"
    fill="#E6EFFF"
  />
  <path
    d="M45.7702 192.902C46.0368 192.383 46.7785 192.383 47.0451 192.902L47.2755 193.35C47.3439 193.483 47.4523 193.592 47.5854 193.66L48.0337 193.89C48.5526 194.157 48.5526 194.899 48.0337 195.165L47.5854 195.396C47.4523 195.464 47.3439 195.572 47.2755 195.706L47.0451 196.154C46.7785 196.673 46.0368 196.673 45.7702 196.154L45.5399 195.706C45.4715 195.572 45.3631 195.464 45.23 195.396L44.7817 195.165C44.2628 194.899 44.2628 194.157 44.7817 193.89L45.23 193.66C45.3631 193.592 45.4715 193.483 45.5399 193.35L45.7702 192.902Z"
    fill="#E6EFFF"
  />
  <path
    d="M22.4889 210.661C19.3426 210.661 18.7866 212.562 17.9344 213.414C19.193 212.155 21.3746 212.038 22.4889 212.234C45.8237 215.708 93.3978 222.695 97.016 222.853C100.634 223.01 101.67 226.982 101.735 228.949V280.862C102.522 280.39 102.587 277.912 102.522 276.733V226.982C102.365 222.892 98.7858 221.476 97.016 221.28C97.016 221.28 25.6351 210.661 22.4889 210.661Z"
    fill="#33DA6B"
  />
  <path
    d="M17.5726 266.508V214.398C18.0445 212.195 19.9979 211.776 20.9156 211.841L96.8192 222.657C100.595 222.971 101.67 226.327 101.735 227.966C101.932 244.746 102.207 278.778 101.735 280.666C101.263 282.554 97.999 282.501 96.4259 282.239L22.0954 271.817C18.0052 270.873 17.376 267.884 17.5726 266.508Z"
    fill="url(#paint0_linear_3273_18484)"
  />
  <path
    d="M60.8251 239.011C60.8641 238.564 61.268 238.24 61.7125 238.299L88.3448 241.844C88.7617 241.9 89.0612 242.273 89.0246 242.692L88.7856 245.433C88.7467 245.88 88.3427 246.204 87.8983 246.145L61.2659 242.6C60.849 242.544 60.5495 242.171 60.5861 241.752L60.8251 239.011Z"
    fill="#6FE697"
  />
  <path
    d="M60.937 249.63C60.976 249.183 61.3799 248.859 61.8244 248.918L88.4568 252.463C88.8736 252.519 89.1731 252.892 89.1366 253.311L88.8976 256.052C88.8586 256.499 88.4547 256.823 88.0102 256.763L61.3778 253.219C60.961 253.163 60.6615 252.79 60.698 252.371L60.937 249.63Z"
    fill="#6FE697"
  />
  <path
    d="M60.8251 259.855C60.8641 259.409 61.268 259.085 61.7125 259.144L88.3448 262.689C88.7617 262.744 89.0612 263.118 89.0246 263.537L88.7856 266.278C88.7467 266.724 88.3427 267.048 87.8983 266.989L61.2659 263.444C60.849 263.389 60.5495 263.015 60.5861 262.596L60.8251 259.855Z"
    fill="#6FE697"
  />
  <path
    d="M27.3733 236.504C27.3733 234.661 28.9504 233.213 30.7869 233.369L49.8611 234.996C51.4892 235.135 52.74 236.497 52.74 238.131V259.345C52.74 261.188 51.1629 262.637 49.3265 262.48L30.2522 260.854C28.6241 260.715 27.3733 259.353 27.3733 257.719V236.504Z"
    fill="#33DA6B"
  />
  <path
    d="M101.845 233.828L17.541 221.673V215.38C17.541 212.245 19.7041 211.644 21.0223 211.855C21.7287 211.882 22.2604 211.841 22.2604 211.841C22.2604 211.841 92.8547 222.263 96.7875 222.46C101.541 223.161 101.91 227.507 101.845 229.932V233.828Z"
    fill="url(#paint1_linear_3273_18484)"
  />
  <path
    d="M38.6305 239.575C38.9216 239.37 39.3135 239.387 39.5864 239.615L46.2813 245.204C46.8728 245.698 46.4751 246.66 45.7076 246.592L32.695 245.436C31.9644 245.371 31.7124 244.43 32.3127 244.008L38.6305 239.575Z"
    fill="#E6FFEE"
  />
  <path
    d="M31.906 253.807C31.9449 253.36 32.3489 253.036 32.7933 253.095L45.3471 254.766C45.764 254.822 46.0634 255.195 46.0269 255.614L45.9756 256.203C45.9366 256.65 45.5327 256.974 45.0882 256.914L32.5344 255.244C32.1176 255.188 31.8181 254.814 31.8546 254.395L31.906 253.807Z"
    fill="#E6FFEE"
  />
  <path
    d="M38.7425 252.843C38.2773 252.896 37.8692 252.533 37.8671 252.065L37.8487 248.024C37.8469 247.623 38.1476 247.285 38.5464 247.239L39.0085 247.187C39.4737 247.134 39.8818 247.496 39.884 247.965L39.9023 252.005C39.9041 252.407 39.6035 252.745 39.2047 252.791L38.7425 252.843Z"
    fill="#E6FFEE"
  />
  <path
    d="M43.4619 253.236C42.9967 253.289 42.5885 252.927 42.5864 252.458L42.5681 248.418C42.5662 248.016 42.8669 247.678 43.2657 247.633L43.7279 247.58C44.1931 247.527 44.6012 247.89 44.6033 248.358L44.6217 252.399C44.6235 252.8 44.3228 253.139 43.924 253.184L43.4619 253.236Z"
    fill="#E6FFEE"
  />
  <path
    d="M34.4162 252.056C33.951 252.109 33.5429 251.747 33.5408 251.278L33.5224 247.237C33.5206 246.836 33.8213 246.498 34.2201 246.452L34.6822 246.4C35.1474 246.347 35.5555 246.71 35.5577 247.178L35.576 251.219C35.5778 251.62 35.2772 251.958 34.8784 252.004L34.4162 252.056Z"
    fill="#E6FFEE"
  />
  <defs>
    <linearGradient
      id="paint0_linear_3273_18484"
      x1="111.156"
      y1="252.587"
      x2="6.05453"
      y2="237.08"
      gradientUnits="userSpaceOnUse"
    >
      <stop stop-color="#AFF7C7" />
      <stop offset="1" stop-color="#E1FFEB" />
    </linearGradient>
    <linearGradient
      id="paint1_linear_3273_18484"
      x1="86.3655"
      y1="227.572"
      x2="17.541"
      y2="217.937"
      gradientUnits="userSpaceOnUse"
    >
      <stop stop-color="#17AD49" />
      <stop offset="1" stop-color="#34DB6C" />
    </linearGradient>
    <clipPath id="clip0_3273_18484">
      <rect width="120" height="120" fill="white" transform="translate(268)" />
    </clipPath>
  </defs>
</svg>
