<svg width="120" height="120" viewBox="0 0 120 120" fill="none" xmlns="http://www.w3.org/2000/svg">
  <g clip-path="url(#clip0_4886_419)">
    <path
      d="M119.335 22.2175H0.664712C0.488478 22.2174 0.319518 22.1476 0.194902 22.0235C0.0702863 21.8994 0.000192624 21.7311 0 21.5556V17.6619C0.000192624 17.4864 0.0702863 17.3182 0.194902 17.1941C0.319518 17.07 0.488478 17.0002 0.664712 17H119.335C119.512 17.0002 119.68 17.07 119.805 17.1941C119.93 17.3182 120 17.4864 120 17.6619V21.5556C120 21.7311 119.93 21.8994 119.805 22.0235C119.68 22.1476 119.512 22.2174 119.335 22.2175Z"
      fill="#E4E4E4"
    />
    <path
      d="M3.8576 20.3587C4.37881 20.3587 4.80133 19.9379 4.80133 19.4189C4.80133 18.8999 4.37881 18.4791 3.8576 18.4791C3.3364 18.4791 2.91388 18.8999 2.91388 19.4189C2.91388 19.9379 3.3364 20.3587 3.8576 20.3587Z"
      fill="white"
    />
    <path
      d="M7.4397 20.3587C7.9609 20.3587 8.38342 19.9379 8.38342 19.4189C8.38342 18.8999 7.9609 18.4791 7.4397 18.4791C6.91849 18.4791 6.49597 18.8999 6.49597 19.4189C6.49597 19.9379 6.91849 20.3587 7.4397 20.3587Z"
      fill="white"
    />
    <path
      d="M11.0219 20.3587C11.5431 20.3587 11.9656 19.9379 11.9656 19.4189C11.9656 18.8999 11.5431 18.4791 11.0219 18.4791C10.5007 18.4791 10.0782 18.8999 10.0782 19.4189C10.0782 19.9379 10.5007 20.3587 11.0219 20.3587Z"
      fill="white"
    />
    <path
      d="M115.826 18.772H111.701C111.62 18.7718 111.542 18.7397 111.485 18.6826C111.428 18.6256 111.396 18.5483 111.396 18.4677C111.396 18.3871 111.428 18.3099 111.485 18.2528C111.542 18.1958 111.62 18.1636 111.701 18.1635H115.826C115.907 18.1634 115.984 18.1953 116.042 18.2523C116.099 18.3092 116.131 18.3865 116.131 18.4672C116.132 18.5478 116.1 18.6252 116.042 18.6823C115.985 18.7395 115.908 18.7717 115.827 18.772H115.826Z"
      fill="white"
    />
    <path
      d="M115.826 19.913H111.701C111.62 19.9128 111.542 19.8807 111.485 19.8236C111.428 19.7666 111.396 19.6893 111.396 19.6087C111.396 19.5281 111.428 19.4508 111.485 19.3938C111.542 19.3368 111.62 19.3046 111.701 19.3044H115.826C115.907 19.3044 115.984 19.3363 116.042 19.3933C116.099 19.4502 116.131 19.5275 116.131 19.6081C116.132 19.6888 116.1 19.7662 116.042 19.8233C115.985 19.8805 115.908 19.9127 115.827 19.913H115.826Z"
      fill="white"
    />
    <path
      d="M115.826 21.0541H111.701C111.62 21.0541 111.542 21.022 111.485 20.965C111.427 20.9079 111.395 20.8305 111.395 20.7498C111.395 20.6691 111.427 20.5917 111.485 20.5347C111.542 20.4776 111.62 20.4456 111.701 20.4456H115.826C115.907 20.4454 115.984 20.4773 116.042 20.5343C116.099 20.5912 116.132 20.6686 116.132 20.7493C116.132 20.83 116.1 20.9074 116.043 20.9646C115.985 21.0217 115.908 21.0539 115.827 21.0541H115.826Z"
      fill="white"
    />
    <path
      d="M33.8373 94.3736C34.274 90.877 36.4501 87.4317 39.7989 86.2938C38.4782 89.8929 38.4785 93.8411 39.7997 97.4399C40.3143 98.826 41.0315 100.314 40.5475 101.711C40.2463 102.581 39.5096 103.246 38.6861 103.661C37.8625 104.077 36.9485 104.275 36.046 104.47L35.8684 104.616C34.4356 101.394 33.4007 97.8703 33.8373 94.3736Z"
      fill="#F0F0F0"
    />
    <path
      d="M39.8322 86.36C37.882 88.5359 36.6699 91.2685 36.3681 94.1695C36.292 94.7929 36.315 95.4243 36.4363 96.0405C36.574 96.637 36.8696 97.1859 37.2923 97.6301C37.6781 98.0523 38.1219 98.4395 38.3979 98.9477C38.5353 99.2099 38.6155 99.4981 38.6333 99.7933C38.651 100.089 38.6059 100.384 38.5009 100.661C38.2571 101.357 37.7768 101.924 37.2877 102.463C36.7446 103.061 36.171 103.674 35.9401 104.466C35.9122 104.562 35.7641 104.514 35.7921 104.418C36.1937 103.038 37.5383 102.255 38.1796 101.012C38.4788 100.433 38.6044 99.7597 38.3239 99.1478C38.0786 98.6126 37.6213 98.2129 37.227 97.7888C36.8082 97.3615 36.5009 96.8385 36.3319 96.2656C36.1794 95.6575 36.132 95.028 36.1916 94.4041C36.3034 92.9973 36.6366 91.6167 37.179 90.313C37.7897 88.8216 38.6522 87.4453 39.729 86.2435C39.7957 86.1692 39.8984 86.2861 39.8322 86.36Z"
      fill="white"
    />
    <path
      d="M36.4101 93.2296C35.9282 93.1131 35.5035 92.8298 35.212 92.4303C34.9205 92.0309 34.7811 91.5412 34.8187 91.0488C34.8204 91.0287 34.8299 91.0101 34.8451 90.9968C34.8603 90.9836 34.8801 90.9768 34.9003 90.9778C34.9205 90.9788 34.9396 90.9875 34.9534 91.0022C34.9672 91.0169 34.9748 91.0364 34.9745 91.0565C34.9387 91.515 35.0686 91.9711 35.3408 92.3425C35.613 92.714 36.0096 92.9763 36.4589 93.0822C36.5566 93.1053 36.5071 93.2526 36.4101 93.2296Z"
      fill="white"
    />
    <path
      d="M37.0683 97.4418C37.9387 96.9242 38.5812 96.0991 38.8677 95.1308C38.8961 95.0348 39.0441 95.0836 39.0158 95.1795C38.7158 96.1865 38.0454 97.0439 37.1385 97.5805C37.052 97.6315 36.9823 97.4926 37.0683 97.4418Z"
      fill="white"
    />
    <path
      d="M37.9344 88.9687C38.1114 89.0525 38.3065 89.0912 38.5023 89.0813C38.698 89.0714 38.8882 89.0132 39.0558 88.912C39.1416 88.8599 39.2112 88.9989 39.1259 89.0507C38.9403 89.1617 38.7301 89.2256 38.5139 89.2371C38.2976 89.2485 38.0819 89.207 37.8855 89.1162C37.8662 89.1092 37.8504 89.0951 37.8412 89.0769C37.832 89.0587 37.8301 89.0377 37.8359 89.0181C37.8424 88.9986 37.8565 88.9825 37.8749 88.9732C37.8934 88.964 37.9147 88.9624 37.9344 88.9687Z"
      fill="white"
    />
    <path
      d="M50.0063 92.5393C49.9537 92.5734 49.901 92.6075 49.8483 92.6429C49.1431 93.1047 48.4767 93.6228 47.8557 94.1921C47.807 94.2353 47.7583 94.2799 47.7109 94.3245C46.2295 95.7119 45.0196 97.3612 44.1428 99.1884C43.7945 99.9158 43.5023 100.669 43.2688 101.44C42.9463 102.506 42.6818 103.687 42.0434 104.558C41.9778 104.65 41.9066 104.737 41.8302 104.82H36.0614C36.0482 104.814 36.0351 104.809 36.0219 104.802L35.7916 104.813C35.8008 104.772 35.8113 104.73 35.8206 104.689C35.8258 104.666 35.8324 104.642 35.8377 104.619C35.8416 104.603 35.8456 104.587 35.8482 104.573C35.8495 104.567 35.8508 104.562 35.8521 104.558C35.8547 104.544 35.8587 104.531 35.8614 104.518C35.9193 104.283 35.9789 104.048 36.0403 103.814C36.0403 103.812 36.0403 103.812 36.0416 103.811C36.4925 102.019 37.1552 100.286 38.0159 98.6497C38.0423 98.6012 38.0685 98.5514 38.0975 98.5029C38.4961 97.7784 38.9535 97.0875 39.465 96.4372C39.7463 96.0821 40.0455 95.7413 40.3614 95.4162C41.1792 94.5779 42.1244 93.8729 43.1622 93.327C45.2312 92.2391 47.6267 91.8223 49.8379 92.4868C49.8944 92.5039 49.9498 92.521 50.0063 92.5393Z"
      fill="#F0F0F0"
    />
    <path
      d="M49.9933 92.6122C47.1207 93.1804 44.5008 94.6355 42.5059 96.7708C42.0682 97.2229 41.7049 97.7408 41.4292 98.3056C41.1785 98.8644 41.0826 99.4799 41.1515 100.088C41.2044 100.656 41.3245 101.232 41.2377 101.803C41.1889 102.095 41.0787 102.373 40.9144 102.619C40.7501 102.866 40.5353 103.075 40.2841 103.232C39.6687 103.642 38.9421 103.807 38.2259 103.944C37.4308 104.096 36.6024 104.241 35.9388 104.736C35.8583 104.796 35.7697 104.668 35.85 104.608C37.0046 103.748 38.5519 103.928 39.815 103.321C40.4044 103.037 40.9116 102.575 41.0576 101.918C41.1853 101.344 41.0619 100.751 41.0034 100.176C40.9274 99.5833 40.9983 98.9814 41.2097 98.4227C41.4556 97.8457 41.7983 97.3147 42.2232 96.8523C43.1629 95.796 44.2636 94.8935 45.4849 94.1777C46.8743 93.3531 48.395 92.7713 49.9814 92.4574C50.0796 92.438 50.0909 92.593 49.9933 92.6122Z"
      fill="white"
    />
    <path
      d="M43.1077 96.0455C42.7933 95.6636 42.6256 95.1828 42.6344 94.689C42.6431 94.1953 42.8279 93.7207 43.1556 93.3501C43.2221 93.2753 43.3419 93.3748 43.2753 93.4497C42.9695 93.7943 42.7974 94.2363 42.7902 94.6961C42.783 95.1559 42.941 95.6031 43.2359 95.9571C43.2998 96.0341 43.1713 96.1221 43.1077 96.0455Z"
      fill="white"
    />
    <path
      d="M41.0867 99.8033C42.0945 99.9119 43.1064 99.6383 43.9206 99.037C44.0012 98.9773 44.0899 99.1051 44.0094 99.1646C43.1609 99.7888 42.1073 100.071 41.0588 99.9561C40.9589 99.9451 40.9873 99.7923 41.0867 99.8033Z"
      fill="white"
    />
    <path
      d="M46.9009 93.5573C46.9916 93.7303 47.124 93.8782 47.2863 93.9877C47.4485 94.0971 47.6356 94.1647 47.8306 94.1844C47.9306 94.1942 47.9021 94.347 47.8027 94.3372C47.5874 94.3145 47.3809 94.2396 47.2013 94.119C47.0218 93.9985 46.8746 93.836 46.7727 93.6458C46.7616 93.6286 46.7574 93.6079 46.7611 93.5879C46.7647 93.5678 46.7759 93.5499 46.7924 93.5377C46.8094 93.5261 46.8304 93.5216 46.8507 93.5253C46.871 93.529 46.889 93.5405 46.9009 93.5573Z"
      fill="white"
    />
    <path
      d="M38.8956 44.1488H19.8096C19.2198 44.1481 18.6543 43.9145 18.2373 43.4992C17.8202 43.0839 17.5856 42.5208 17.585 41.9334V31.5817C17.5856 30.9944 17.8202 30.4313 18.2373 30.016C18.6543 29.6007 19.2198 29.3671 19.8096 29.3665H38.8956C39.4854 29.3671 40.0508 29.6007 40.4679 30.016C40.8849 30.4313 41.1195 30.9944 41.1202 31.5817V41.9334C41.1195 42.5208 40.8849 43.0839 40.4679 43.4992C40.0508 43.9145 39.4854 44.1481 38.8956 44.1488Z"
      fill="#E6E6E6"
    />
    <path
      d="M68.0344 44.1488H48.9484C48.3585 44.1481 47.7931 43.9145 47.376 43.4992C46.959 43.0839 46.7244 42.5208 46.7238 41.9334V31.5817C46.7244 30.9944 46.959 30.4313 47.3761 30.016C47.7931 29.6007 48.3586 29.3671 48.9484 29.3665H68.0344C68.6242 29.3671 69.1896 29.6007 69.6067 30.016C70.0237 30.4313 70.2583 30.9944 70.259 31.5817V41.9334C70.2583 42.5208 70.0237 43.0839 69.6067 43.4992C69.1896 43.9145 68.6242 44.1481 68.0344 44.1488Z"
      fill="#17AD49"
    />
    <path
      d="M97.1732 44.1488H78.0872C77.4974 44.1481 76.9319 43.9145 76.5149 43.4992C76.0978 43.0839 75.8633 42.5208 75.8626 41.9334V31.5817C75.8633 30.9944 76.0979 30.4313 76.5149 30.016C76.932 29.6007 77.4974 29.3671 78.0872 29.3665H97.1732C97.763 29.3671 98.3285 29.6007 98.7455 30.016C99.1626 30.4313 99.3972 30.9944 99.3978 31.5817V41.9334C99.3972 42.5208 99.1626 43.0839 98.7455 43.4992C98.3285 43.9145 97.763 44.1481 97.1732 44.1488Z"
      fill="#E6E6E6"
    />
    <path
      d="M38.8956 67.2137H19.8096C19.2198 67.2131 18.6543 66.9794 18.2373 66.5641C17.8202 66.1488 17.5856 65.5857 17.585 64.9984V54.6466C17.5856 54.0593 17.8202 53.4962 18.2373 53.0809C18.6543 52.6656 19.2198 52.432 19.8096 52.4314H38.8956C39.4854 52.432 40.0508 52.6656 40.4679 53.0809C40.8849 53.4962 41.1195 54.0593 41.1202 54.6466V64.9984C41.1195 65.5857 40.8849 66.1488 40.4679 66.5641C40.0508 66.9794 39.4854 67.2131 38.8956 67.2137Z"
      fill="#F2F2F2"
    />
    <path
      d="M97.1732 66.7676H78.0872C77.4974 66.7669 76.9319 66.5333 76.5149 66.118C76.0979 65.7026 75.8633 65.1395 75.8626 64.5522V54.2005C75.8633 53.6131 76.0979 53.0501 76.5149 52.6348C76.932 52.2195 77.4974 51.9859 78.0872 51.9852H97.1732C97.763 51.9859 98.3285 52.2195 98.7455 52.6348C99.1626 53.0501 99.3972 53.6131 99.3978 54.2005V64.5522C99.3972 65.1395 99.1626 65.7026 98.7455 66.118C98.3285 66.5333 97.763 66.7669 97.1732 66.7676Z"
      fill="#F2F2F2"
    />
    <path
      d="M68.0344 67.2136H48.9484C48.3585 67.2129 47.7931 66.9793 47.376 66.564C46.959 66.1487 46.7244 65.5856 46.7238 64.9982V54.6465C46.7244 54.0592 46.959 53.4961 47.3761 53.0808C47.7931 52.6655 48.3586 52.4319 48.9484 52.4313H68.0344C68.6242 52.4319 69.1896 52.6655 69.6067 53.0808C70.0237 53.4961 70.2583 54.0592 70.259 54.6465V64.9982C70.2583 65.5856 70.0237 66.1487 69.6067 66.564C69.1896 66.9793 68.6242 67.2129 68.0344 67.2136Z"
      fill="#E6E6E6"
    />
    <path
      d="M69.382 69.1185C71.2646 69.1185 72.7908 67.5987 72.7908 65.7239C72.7908 63.8492 71.2646 62.3293 69.382 62.3293C67.4994 62.3293 65.9732 63.8492 65.9732 65.7239C65.9732 67.5987 67.4994 69.1185 69.382 69.1185Z"
      fill="#17AD49"
    />
    <path
      d="M70.7975 65.4389H69.6385V64.2848C69.6385 64.2491 69.6315 64.2138 69.6178 64.1808C69.6041 64.1479 69.584 64.118 69.5587 64.0927C69.5333 64.0675 69.5033 64.0475 69.4702 64.0339C69.4371 64.0202 69.4016 64.0132 69.3658 64.0132C69.33 64.0132 69.2945 64.0202 69.2614 64.0339C69.2284 64.0475 69.1983 64.0675 69.173 64.0927C69.1476 64.118 69.1276 64.1479 69.1138 64.1808C69.1001 64.2138 69.0931 64.2491 69.0931 64.2848V65.4389H67.9341C67.8983 65.4389 67.8628 65.446 67.8297 65.4596C67.7966 65.4733 67.7666 65.4933 67.7413 65.5185C67.7159 65.5437 67.6958 65.5736 67.6821 65.6066C67.6684 65.6395 67.6614 65.6748 67.6614 65.7105C67.6614 65.7462 67.6684 65.7815 67.6821 65.8144C67.6958 65.8474 67.7159 65.8773 67.7413 65.9026C67.7666 65.9278 67.7966 65.9478 67.8297 65.9614C67.8628 65.9751 67.8983 65.9821 67.9341 65.9821H69.0931V67.1363C69.0931 67.1719 69.1002 67.2072 69.1139 67.2402C69.1276 67.2731 69.1477 67.3031 69.173 67.3283C69.1983 67.3535 69.2284 67.3735 69.2614 67.3872C69.2945 67.4008 69.33 67.4078 69.3658 67.4078C69.4382 67.4078 69.5075 67.3792 69.5587 67.3283C69.6098 67.2774 69.6385 67.2083 69.6385 67.1363V65.9821H70.7975C70.8333 65.9821 70.8688 65.9751 70.9019 65.9614C70.935 65.9478 70.965 65.9278 70.9904 65.9025C71.0157 65.8773 71.0358 65.8474 71.0495 65.8144C71.0632 65.7815 71.0702 65.7462 71.0702 65.7105C71.0702 65.6748 71.0632 65.6395 71.0495 65.6066C71.0358 65.5736 71.0157 65.5437 70.9904 65.5185C70.965 65.4932 70.935 65.4732 70.9019 65.4596C70.8688 65.4459 70.8333 65.4389 70.7975 65.4389Z"
      fill="white"
    />
    <path
      d="M98.9691 46.6488C100.852 46.6488 102.378 45.129 102.378 43.2542C102.378 41.3794 100.852 39.8596 98.9691 39.8596C97.0865 39.8596 95.5603 41.3794 95.5603 43.2542C95.5603 45.129 97.0865 46.6488 98.9691 46.6488Z"
      fill="#17AD49"
    />
    <path
      d="M100.385 42.9692H99.2257V41.815C99.2257 41.7794 99.2186 41.7441 99.2049 41.7111C99.1912 41.6782 99.1711 41.6482 99.1458 41.623C99.1205 41.5978 99.0904 41.5778 99.0573 41.5641C99.0242 41.5505 98.9888 41.5435 98.953 41.5435C98.9172 41.5435 98.8817 41.5505 98.8486 41.5641C98.8155 41.5778 98.7855 41.5978 98.7601 41.623C98.7348 41.6482 98.7147 41.6782 98.701 41.7111C98.6873 41.7441 98.6802 41.7794 98.6802 41.815V42.9692H97.5213C97.4854 42.9692 97.45 42.9762 97.4169 42.9899C97.3838 43.0035 97.3537 43.0235 97.3284 43.0487C97.3031 43.074 97.283 43.1039 97.2693 43.1369C97.2556 43.1698 97.2485 43.2051 97.2485 43.2408C97.2485 43.2765 97.2556 43.3118 97.2693 43.3447C97.283 43.3777 97.3031 43.4076 97.3284 43.4328C97.3537 43.458 97.3838 43.4781 97.4169 43.4917C97.45 43.5053 97.4854 43.5124 97.5213 43.5124H98.6803V44.6665C98.6803 44.7022 98.6873 44.7375 98.701 44.7705C98.7147 44.8034 98.7348 44.8334 98.7601 44.8586C98.7855 44.8838 98.8155 44.9038 98.8486 44.9174C98.8817 44.9311 98.9172 44.9381 98.953 44.9381C99.0253 44.9381 99.0947 44.9095 99.1458 44.8586C99.197 44.8076 99.2257 44.7386 99.2257 44.6665V43.5124H100.385C100.42 43.5124 100.456 43.5053 100.489 43.4917C100.522 43.478 100.552 43.458 100.578 43.4328C100.603 43.4076 100.623 43.3777 100.637 43.3447C100.65 43.3118 100.657 43.2764 100.657 43.2408C100.657 43.2051 100.65 43.1698 100.637 43.1368C100.623 43.1039 100.603 43.074 100.578 43.0487C100.552 43.0235 100.522 43.0035 100.489 42.9899C100.456 42.9762 100.42 42.9692 100.385 42.9692Z"
      fill="white"
    />
    <path
      d="M40.2432 46.3512C42.1258 46.3512 43.652 44.8314 43.652 42.9566C43.652 41.0818 42.1258 39.562 40.2432 39.562C38.3605 39.562 36.8344 41.0818 36.8344 42.9566C36.8344 44.8314 38.3605 46.3512 40.2432 46.3512Z"
      fill="#17AD49"
    />
    <path
      d="M41.6587 42.6716H40.4997V41.5174C40.4997 41.4818 40.4926 41.4465 40.4789 41.4135C40.4652 41.3806 40.4451 41.3506 40.4198 41.3254C40.3945 41.3002 40.3644 41.2802 40.3313 41.2665C40.2982 41.2529 40.2628 41.2459 40.227 41.2458C40.1912 41.2458 40.1557 41.2529 40.1226 41.2665C40.0895 41.2802 40.0595 41.3002 40.0341 41.3254C40.0088 41.3506 39.9887 41.3806 39.975 41.4135C39.9613 41.4465 39.9542 41.4818 39.9542 41.5174V42.6716H38.7952C38.7594 42.6716 38.724 42.6786 38.6909 42.6923C38.6578 42.7059 38.6277 42.7259 38.6024 42.7511C38.5771 42.7764 38.557 42.8063 38.5433 42.8392C38.5296 42.8722 38.5225 42.9075 38.5225 42.9432C38.5225 43.0152 38.5513 43.0843 38.6024 43.1352C38.6535 43.1862 38.7229 43.2148 38.7952 43.2148H39.9542V44.3689C39.9542 44.4046 39.9613 44.4399 39.975 44.4729C39.9887 44.5058 40.0088 44.5357 40.0341 44.561C40.0594 44.5862 40.0895 44.6062 40.1226 44.6198C40.1557 44.6335 40.1912 44.6405 40.227 44.6405C40.2628 44.6405 40.2982 44.6335 40.3313 44.6198C40.3644 44.6062 40.3945 44.5862 40.4198 44.561C40.4451 44.5357 40.4652 44.5058 40.4789 44.4729C40.4926 44.4399 40.4997 44.4046 40.4997 44.3689V43.2148H41.6587C41.6945 43.2148 41.73 43.2077 41.7631 43.1941C41.7961 43.1804 41.8262 43.1604 41.8515 43.1352C41.8769 43.11 41.897 43.0801 41.9107 43.0471C41.9244 43.0142 41.9314 42.9788 41.9314 42.9432C41.9314 42.8711 41.9027 42.8021 41.8515 42.7511C41.8004 42.7002 41.731 42.6716 41.6587 42.6716Z"
      fill="white"
    />
    <path
      d="M65.7644 38.2673C65.8266 38.4547 65.8468 38.6533 65.8235 38.8492C65.8003 39.0452 65.7342 39.2337 65.6299 39.4014C65.5256 39.5692 65.3856 39.7121 65.2199 39.8202C65.0541 39.9282 64.8665 39.9988 64.6704 40.0269L63.0942 50.741L60.5086 49.4834L63.1092 38.7887C63.0837 38.4575 63.1811 38.1285 63.3829 37.864C63.5847 37.5995 63.877 37.4179 64.2042 37.3536C64.5315 37.2894 64.8711 37.3469 65.1586 37.5153C65.4462 37.6837 65.6617 37.9513 65.7644 38.2673Z"
      fill="#9E616A"
    />
    <path
      d="M46.9382 72.5819C47.0533 72.4213 47.1317 72.2375 47.1677 72.0435C47.2038 71.8495 47.1967 71.65 47.1469 71.459C47.0972 71.268 47.006 71.0902 46.8798 70.9381C46.7536 70.786 46.5954 70.6634 46.4164 70.5787L47.4798 59.1823L45.2526 60.3191L44.5571 71.3011C44.4343 71.61 44.4295 71.9529 44.5436 72.2651C44.6577 72.5772 44.8829 72.8368 45.1764 72.9947C45.4699 73.1526 45.8113 73.1977 46.1361 73.1217C46.4608 73.0456 46.7462 72.8536 46.9382 72.5819Z"
      fill="#9E616A"
    />
    <path d="M48.4598 66.8178L58.0175 66.4517L58.5689 56.5679H47.5408L48.4598 66.8178Z" fill="#9E616A" />
    <path d="M46.6859 101.723L48.3192 101.723L49.0961 95.45H46.6856L46.6859 101.723Z" fill="#9E616A" />
    <path
      d="M46.2808 100.921L48.8626 100.767V101.869L51.3172 103.557C51.4385 103.641 51.5298 103.76 51.5778 103.899C51.6259 104.038 51.6281 104.188 51.5843 104.328C51.5404 104.468 51.4528 104.591 51.3341 104.678C51.2154 104.765 51.0719 104.811 50.9246 104.811H47.8509L47.321 103.722L47.1142 104.811H45.9553L46.2808 100.921Z"
      fill="#2F2E41"
    />
    <path d="M53.9503 101.723L55.5836 101.723L56.3605 95.45H53.95L53.9503 101.723Z" fill="#9E616A" />
    <path
      d="M48.3272 64.4975C48.3272 64.4975 45.4675 66.7966 47.0177 75.0074C46.7817 75.0354 47.049 75.4988 47.049 75.4988L47.2727 82.1891L47.4455 82.9558L46.8708 84.1931L47.1077 85.5374L46.3773 97.7382L49.0756 98.0857L51.6578 85.4159L52.1495 83.9914L52.6428 82.7428L52.3767 81.4114L52.5949 79.3448L54.0835 72.3763L54.448 84.4621L53.9394 85.6159L54.2224 86.8824L53.592 87.5548L53.3428 98.8625L56.22 98.9965L58.6006 87.5975L58.416 86.1429L58.7327 85.0673V82.555L59.2752 81.3693L60.4578 74.9041C60.4578 74.9041 60.8145 69.8509 58.2116 63.9045L48.3272 64.4975Z"
      fill="#2F2E41"
    />
    <path
      d="M49.4926 48.3535C49.4926 48.3535 45.8807 49.0649 45.2583 52.1324C44.6359 55.1999 44.2355 62.1415 44.2355 62.1415L44.3718 63.1082L47.8658 63.915L50.0958 54.1886L49.4926 48.3535Z"
      fill="#3F3D56"
    />
    <path
      d="M57.7357 49.389C57.7357 49.389 58.1018 48.878 60.1522 48.7992C60.2366 48.796 60.1321 48.6292 60.1321 48.6292L61.1181 43.8298L64.4042 45.6416L63.8495 50.6731L58.4497 56.7892L57.7357 49.389Z"
      fill="#3F3D56"
    />
    <path
      d="M55.6874 63.6967C54.1404 63.6968 51.8118 63.5268 48.3062 63.0085C48.0804 62.9746 47.8714 62.8697 47.7098 62.7091C47.5481 62.5485 47.4422 62.3406 47.4076 62.1158C47.2931 61.9955 47.2186 61.8429 47.1943 61.6789C47.1699 61.5149 47.1968 61.3474 47.2714 61.1992L47.2747 61.1928L47.1953 61.0996C47.0724 60.9559 47.0002 60.776 46.9898 60.5876C46.9794 60.3992 47.0312 60.2125 47.1375 60.0562L46.0518 52.3221C45.9416 51.5541 46.1103 50.7721 46.5274 50.1168C46.9445 49.4616 47.5828 48.976 48.3273 48.7476L48.7281 48.6233L50.2436 46.6492L50.2735 46.6495L55.1391 46.714L56.718 48.7107L59.2704 49.3101L59.2771 49.3487L59.8697 52.7585C60.1779 54.5319 59.471 55.2295 58.5688 56.7891L58.8336 61.1691L58.9538 61.3865C59.0204 61.5068 59.0428 61.6465 59.0169 61.7815C58.991 61.9165 58.9186 62.0383 58.8121 62.1257C58.8926 62.3548 58.8981 62.6034 58.8278 62.8358L58.7654 63.0413C58.7655 63.0472 58.7488 63.1307 58.6141 63.2326C58.3711 63.4164 57.6734 63.6967 55.6874 63.6967Z"
      fill="#3F3D56"
    />
    <path
      d="M53.5452 100.921L56.127 100.767V101.869L58.5816 103.557C58.7029 103.641 58.7942 103.76 58.8422 103.899C58.8903 104.038 58.8925 104.188 58.8487 104.328C58.8048 104.468 58.7172 104.591 58.5985 104.678C58.4798 104.765 58.3363 104.811 58.189 104.811H55.1153L54.5855 103.722L54.3786 104.811H53.2197L53.5452 100.921Z"
      fill="#2F2E41"
    />
    <path
      d="M56.2568 42.3472C56.5943 40.2764 55.1821 38.3253 53.1027 37.9893C51.0232 37.6533 49.0639 39.0595 48.7265 41.1303C48.389 43.2011 49.8012 45.1522 51.8807 45.4882C53.9601 45.8242 55.9194 44.418 56.2568 42.3472Z"
      fill="#9E616A"
    />
    <path
      d="M54.7221 38.0272C53.324 37.0697 52.0929 36.9238 51.0816 37.1954C50.9505 36.9935 50.7667 36.8309 50.5498 36.7251C49.7611 34.746 47.3607 33.5574 45.3008 34.1352C43.2275 34.7167 41.797 37.0037 42.1871 39.1132C42.4289 40.4207 43.2552 41.553 43.5876 42.8407C44.231 45.3334 42.6615 48.1888 40.2061 48.9923C42.5309 49.4571 45.0899 48.043 45.9239 45.8326C46.329 44.759 46.3534 43.5868 46.4049 42.441C46.4185 41.6502 46.5158 40.863 46.6952 40.0924C46.7842 39.7468 46.9101 39.4115 47.0705 39.0924C47.42 38.391 48.0005 37.8302 48.7151 37.5035C48.6511 37.7006 48.6351 37.91 48.6684 38.1145C48.7017 38.3189 48.7834 38.5126 48.9067 38.6794C48.3615 39.3595 48.0647 40.0951 48.0647 40.5355C46.9321 42.5969 48.5517 44.3675 50.6218 45.4953C51.4474 45.9475 52.4008 46.113 53.3314 45.9657L53.418 45.5976L53.5353 45.9292L53.927 47.041C54.3788 47.2586 54.8268 47.4973 55.2708 47.7568C55.1021 46.9679 54.9656 46.1805 54.8717 45.4106C54.7417 44.3627 55.1949 42.8027 55.5219 41.854C55.7246 41.2693 55.8286 40.6552 55.8298 40.0366V40.0096L56.1481 41.0278L57.307 40.5355C57.0914 39.304 57.307 37.9059 54.7221 38.0272Z"
      fill="#2F2E41"
    />
    <path
      d="M102.385 105H17.6147C17.5676 105 17.5226 104.981 17.4894 104.948C17.4562 104.915 17.4376 104.87 17.4376 104.823C17.4376 104.776 17.4562 104.731 17.4894 104.698C17.5226 104.665 17.5676 104.646 17.6147 104.646H102.385C102.432 104.646 102.477 104.665 102.511 104.698C102.544 104.731 102.562 104.776 102.562 104.823C102.562 104.87 102.544 104.915 102.511 104.948C102.477 104.981 102.432 105 102.385 105Z"
      fill="#CCCCCC"
    />
    <path
      d="M39.8535 69.5646C41.7362 69.5646 43.2624 68.0448 43.2624 66.17C43.2624 64.2952 41.7362 62.7754 39.8535 62.7754C37.9709 62.7754 36.4447 64.2952 36.4447 66.17C36.4447 68.0448 37.9709 69.5646 39.8535 69.5646Z"
      fill="#E6E6E6"
    />
    <path
      d="M98.1312 69.1185C100.014 69.1185 101.54 67.5987 101.54 65.7239C101.54 63.8492 100.014 62.3293 98.1312 62.3293C96.2485 62.3293 94.7224 63.8492 94.7224 65.7239C94.7224 67.5987 96.2485 69.1185 98.1312 69.1185Z"
      fill="#E6E6E6"
    />
  </g>
  <g style="mix-blend-mode: color">
    <rect width="120" height="120" fill="white" />
  </g>
  <defs>
    <clipPath id="clip0_4886_419">
      <rect width="120" height="88" fill="white" transform="translate(0 17)" />
    </clipPath>
  </defs>
</svg>
