<svg width="120" height="120" viewBox="0 0 120 120" fill="none" xmlns="http://www.w3.org/2000/svg">
  <g clip-path="url(#clip0_6342_255)">
    <g style="mix-blend-mode: color">
      <rect width="120" height="120" fill="white" />
    </g>
    <g clip-path="url(#clip1_6342_255)">
      <rect width="130" height="104.129" transform="translate(-5 8)" fill="white" />
      <path d="M63.666 111.894H27.8884L27.733 55.3505H63.5101L63.666 111.894Z" fill="#F0F2F2" />
      <path d="M63.5101 55.3505H45.6213V111.894H63.5101V55.3505Z" fill="#B8C1C0" />
      <path d="M44.452 44.2189H31.8182V55.3505H44.452V44.2189Z" fill="#F0F2F2" />
      <path d="M44.4521 44.2189H41.4411V55.3505H44.4521V44.2189Z" fill="#B8C1C0" />
      <path d="M64.5572 54.7012H24.7512V55.3504H64.5572V54.7012Z" fill="#B8C1C0" />
      <path d="M37.8236 60.2051H34.795V66.5906H37.8236V60.2051Z" fill="white" />
      <path
        d="M45.6213 69.0973C45.6213 69.1647 41.6166 69.219 36.6774 69.219C31.7367 69.219 27.7325 69.1647 27.7325 69.0973C27.7325 69.0299 31.7362 68.9756 36.6774 68.9756C41.6166 68.9751 45.6213 69.0299 45.6213 69.0973Z"
        fill="#B8C1C0"
      />
      <path d="M55.8678 60.2051H52.8392V66.5906H55.8678V60.2051Z" fill="#E1E6E4" />
      <path
        d="M63.666 69.0973C63.666 69.1647 59.6613 69.219 54.7221 69.219C49.7815 69.219 45.7772 69.1647 45.7772 69.0973C45.7772 69.0299 49.781 68.9756 54.7221 68.9756C59.6608 68.9751 63.666 69.0299 63.666 69.0973Z"
        fill="#F0F2F2"
      />
      <path d="M55.8678 72.8832H52.8392V79.2687H55.8678V72.8832Z" fill="#E1E6E4" />
      <path
        d="M63.666 81.7748C63.666 81.8422 59.6613 81.8965 54.7221 81.8965C49.7815 81.8965 45.7772 81.8422 45.7772 81.7748C45.7772 81.7074 49.781 81.6531 54.7221 81.6531C59.6608 81.6531 63.666 81.7079 63.666 81.7748Z"
        fill="#F0F2F2"
      />
      <path d="M55.8678 85.944H52.8392V92.3295H55.8678V85.944Z" fill="#E1E6E4" />
      <path
        d="M63.666 94.8356C63.666 94.903 59.6613 94.9573 54.7221 94.9573C49.7815 94.9573 45.7772 94.9025 45.7772 94.8356C45.7772 94.7682 49.781 94.7139 54.7221 94.7139C59.6608 94.7134 63.666 94.7682 63.666 94.8356Z"
        fill="#F0F2F2"
      />
      <path d="M55.8678 99.0043H52.8392V105.39H55.8678V99.0043Z" fill="#E1E6E4" />
      <path
        d="M63.666 107.896C63.666 107.963 59.6613 108.018 54.7221 108.018C49.7815 108.018 45.7772 107.963 45.7772 107.896C45.7772 107.828 49.781 107.774 54.7221 107.774C59.6608 107.774 63.666 107.828 63.666 107.896Z"
        fill="#F0F2F2"
      />
      <path d="M37.8236 73.0768H34.795V79.4623H37.8236V73.0768Z" fill="white" />
      <path
        d="M45.6213 81.9684C45.6213 82.0358 41.6166 82.0906 36.6774 82.0906C31.7367 82.0906 27.7325 82.0358 27.7325 81.9684C27.7325 81.901 31.7362 81.8467 36.6774 81.8467C41.6166 81.8467 45.6213 81.901 45.6213 81.9684Z"
        fill="#B8C1C0"
      />
      <path d="M37.8236 85.948H34.795V92.3335H37.8236V85.948Z" fill="white" />
      <path
        d="M45.6213 94.8401C45.6213 94.9075 41.6166 94.9618 36.6774 94.9618C31.7367 94.9618 27.7325 94.907 27.7325 94.8401C27.7325 94.7732 31.7362 94.7184 36.6774 94.7184C41.6166 94.7179 45.6213 94.7727 45.6213 94.8401Z"
        fill="#B8C1C0"
      />
      <path d="M37.8236 98.8196H34.795V105.205H37.8236V98.8196Z" fill="white" />
      <path
        d="M45.6213 107.711C45.6213 107.779 41.6166 107.833 36.6774 107.833C31.7367 107.833 27.7325 107.779 27.7325 107.711C27.7325 107.644 31.7362 107.59 36.6774 107.59C41.6166 107.59 45.6213 107.644 45.6213 107.711Z"
        fill="#B8C1C0"
      />
      <path d="M89.0673 59.6085H49.7004V111.532H89.0673V59.6085Z" fill="#F0F2F2" />
      <path d="M89.0674 59.6085H70.6088V111.532H89.0674V59.6085Z" fill="#B8C1C0" />
      <path d="M61.4944 66.6382H57.9548V75.2381H61.4944V66.6382Z" fill="#E1E6E4" />
      <path d="M61.4944 100.296H57.9548V108.895H61.4944V100.296Z" fill="#E1E6E4" />
      <path
        d="M70.6088 78.6132C70.6088 78.7098 65.9281 78.7883 60.1551 78.7883C54.3801 78.7883 49.7005 78.7098 49.7005 78.6132C49.7005 78.5167 54.3806 78.4382 60.1551 78.4382C65.9281 78.4382 70.6088 78.5167 70.6088 78.6132Z"
        fill="#E1E6E4"
      />
      <path d="M61.4944 83.5946H57.9548V92.1945H61.4944V83.5946Z" fill="#E1E6E4" />
      <path
        d="M70.6088 95.5691C70.6088 95.6656 65.9281 95.7441 60.1551 95.7441C54.3801 95.7441 49.7005 95.6656 49.7005 95.5691C49.7005 95.4725 54.3806 95.394 60.1551 95.394C65.9281 95.3945 70.6088 95.473 70.6088 95.5691Z"
        fill="#E1E6E4"
      />
      <path d="M78.0685 66.6382H74.5289V75.2381H78.0685V66.6382Z" fill="#E1E6E4" />
      <path d="M85.7476 66.6382H82.208V75.2381H85.7476V66.6382Z" fill="#E1E6E4" />
      <path d="M78.0685 82.9564H74.5289V91.5558H78.0685V82.9564Z" fill="#E1E6E4" />
      <path d="M85.7476 82.9564H82.208V91.5558H85.7476V82.9564Z" fill="#E1E6E4" />
      <path d="M78.0685 99.2747H74.5289V107.874H78.0685V99.2747Z" fill="#E1E6E4" />
      <path d="M85.7476 99.2747H82.208V107.874H85.7476V99.2747Z" fill="#E1E6E4" />
      <path d="M92.027 57.8009H46.7413V59.6733H92.027V57.8009Z" fill="#B8C1C0" />
      <path
        d="M46.0835 23.3171C46.2465 22.1633 44.5743 21.2142 43.3178 21.1158C42.7186 21.0689 42.096 21.158 41.5285 20.9655C40.2985 20.548 39.8073 19.0006 38.6072 18.508C37.7102 18.1394 36.677 18.4674 35.8073 18.8938C34.9376 19.3202 34.0778 19.8564 33.1062 19.9172C32.2612 19.97 31.3434 19.6647 30.6037 20.0667C30.0527 20.3664 29.7639 20.9845 29.2562 21.3493C28.7594 21.706 28.1112 21.7816 27.4947 21.8145C26.8782 21.847 26.24 21.8534 25.6785 22.1037C25.1171 22.3541 24.6527 22.9321 24.7693 23.5223L46.0835 23.3171Z"
        fill="#F0F2F2"
      />
      <path
        d="M105.855 43.3706C106.158 41.1651 103.046 39.3509 100.706 39.1621C99.5906 39.0722 98.4322 39.2429 97.3754 38.8743C95.0858 38.0762 94.1713 35.1185 91.9374 34.1762C90.2674 33.4718 88.3446 34.0985 86.7257 34.9135C85.1069 35.7284 83.5068 36.7535 81.6978 36.8693C80.1242 36.9702 78.4154 36.3868 77.0391 37.1552C76.0134 37.7282 75.4759 38.9098 74.5303 39.607C73.6054 40.2894 72.3986 40.4336 71.2512 40.4963C70.1039 40.5591 68.9157 40.5707 67.8706 41.0487C66.8254 41.5273 65.9607 42.632 66.178 43.7612L105.855 43.3706Z"
        fill="#F0F2F2"
      />
      <path
        d="M115.209 111.791C115.209 111.791 114.911 109.757 114.315 109.444C113.718 109.131 113.356 110.043 113.356 110.043C113.356 110.043 113.215 108.1 112.37 107.518C111.525 106.937 110.89 108.128 110.89 108.128C110.89 108.128 110.242 105.661 109.083 105.661C107.924 105.661 107.339 109.269 107.339 109.269C107.339 109.269 106.656 108.194 105.955 108.801C105.253 109.408 105.253 111.79 105.253 111.79H115.209V111.791Z"
        fill="url(#paint0_linear_6342_255)"
      />
      <path
        d="M24.2871 111.791C24.2871 111.791 23.9885 109.757 23.3923 109.444C22.7961 109.131 22.4334 110.043 22.4334 110.043C22.4334 110.043 22.293 108.1 21.4478 107.518C20.6027 106.937 19.968 108.128 19.968 108.128C19.968 108.128 19.3196 105.661 18.1604 105.661C17.0012 105.661 16.417 109.269 16.417 109.269C16.417 109.269 15.7331 108.194 15.0324 108.801C14.3312 109.408 14.3312 111.79 14.3312 111.79H24.2871V111.791Z"
        fill="url(#paint1_linear_6342_255)"
      />
      <path
        d="M16.2672 111.791H7.28854C7.28854 111.791 7.58442 109.943 8.17972 109.812C8.77503 109.681 9.05186 110.538 9.05186 110.538C9.05186 110.538 9.02484 107.96 10.137 107.521C11.2488 107.082 12.1816 109.36 12.1816 109.36C12.1816 109.36 12.8788 108.061 13.8289 108.145C14.779 108.228 15.0204 110.373 15.0204 110.373C15.0204 110.373 15.885 109.628 16.2672 111.791Z"
        fill="url(#paint2_linear_6342_255)"
      />
      <path
        d="M105.897 111.791H100.381C100.381 111.791 100.394 110.592 100.936 110.274C101.478 109.956 101.8 110.577 101.8 110.577C101.8 110.577 102.021 108.373 103.032 108.373C104.043 108.373 104.527 110.274 104.527 110.274C104.527 110.274 104.753 109.699 105.314 109.807C105.875 109.914 105.897 111.791 105.897 111.791Z"
        fill="url(#paint3_linear_6342_255)"
      />
      <path
        d="M38.4064 111.791H32.8901C32.8901 111.791 32.9029 110.592 33.4451 110.274C33.9872 109.956 34.3097 110.577 34.3097 110.577C34.3097 110.577 34.5307 108.373 35.5415 108.373C36.5522 108.373 37.0359 110.274 37.0359 110.274C37.0359 110.274 37.2623 109.699 37.8235 109.807C38.3838 109.914 38.4064 111.791 38.4064 111.791Z"
        fill="url(#paint4_linear_6342_255)"
      />
      <path
        d="M-5 111.805L11.177 111.648L27.354 111.591L59.708 111.483L92.062 111.591L108.239 111.647L124.416 111.805L108.239 111.964L92.062 112.02L59.708 112.128L27.354 112.019L11.177 111.962L-5 111.805Z"
        fill="#263238"
      />
      <path
        d="M60.581 10.5908C53.2505 10.7609 47.2731 16.7351 47.0985 24.0656C47.0241 27.205 48.0001 30.1115 49.6952 32.4651L49.6914 32.4664L49.8259 32.6495C49.8324 32.6579 49.8388 32.6669 49.8446 32.6753L59.6263 45.98C60.4872 47.1512 62.2496 47.1144 63.0607 45.9081L71.902 32.7639C73.5751 30.2124 74.7225 27.5452 74.7225 24.4012C74.7238 16.6627 68.3603 10.4104 60.581 10.5908ZM60.9095 34.4475C55.1734 34.4475 50.5238 29.7979 50.5238 24.0617C50.5238 18.3255 55.1734 13.6759 60.9095 13.6759C66.6457 13.6759 71.2953 18.3255 71.2953 24.0617C71.2953 29.7979 66.645 34.4475 60.9095 34.4475Z"
        fill="#5D6C6B"
      />
      <g opacity="0.3">
        <path
          d="M58.2874 10.5908C50.957 10.7609 44.9796 16.7351 44.805 24.0656C44.7306 27.205 45.7066 30.1115 47.4017 32.4651L47.3978 32.4664L47.5324 32.6495C47.5388 32.6579 47.5453 32.6669 47.5511 32.6753L57.3328 45.98C58.1937 47.1512 59.9561 47.1144 60.7671 45.9081L69.6084 32.7639C71.2816 30.2124 72.429 27.5452 72.429 24.4012C72.4303 16.6627 66.0668 10.4104 58.2874 10.5908ZM58.616 34.4475C52.8798 34.4475 48.2302 29.7979 48.2302 24.0617C48.2302 18.3255 52.8798 13.6759 58.616 13.6759C64.3522 13.6759 69.0018 18.3255 69.0018 24.0617C69.0018 29.7979 64.3515 34.4475 58.616 34.4475Z"
          fill="#B8C1C0"
        />
      </g>
      <path
        d="M58.7622 10.5908C51.4317 10.7609 45.4543 16.7351 45.2797 24.0656C45.2046 27.205 46.1813 30.1115 47.8764 32.4651L47.8725 32.4664L48.0071 32.6495C48.0135 32.6579 48.02 32.6669 48.0258 32.6753L57.8075 45.98C58.6684 47.1512 60.4308 47.1144 61.2419 45.9081L70.0831 32.7639C71.7563 30.2124 72.9037 27.5452 72.9037 24.4012C72.905 16.6627 66.5421 10.4104 58.7622 10.5908ZM59.0907 32.5751C54.7464 32.5751 51.2247 29.0534 51.2247 24.7091C51.2247 20.3648 54.7464 16.8431 59.0907 16.8431C63.435 16.8431 66.9567 20.3648 66.9567 24.7091C66.956 29.0534 63.4344 32.5751 59.0907 32.5751Z"
        fill="#D2D9D7"
      />
    </g>
  </g>
  <defs>
    <linearGradient
      id="paint0_linear_6342_255"
      x1="110.261"
      y1="105.62"
      x2="110.261"
      y2="111.749"
      gradientUnits="userSpaceOnUse"
    >
      <stop stop-color="#D2D9D7" />
      <stop offset="1" stop-color="#B4C0BC" />
    </linearGradient>
    <linearGradient
      id="paint1_linear_6342_255"
      x1="19.3393"
      y1="105.62"
      x2="19.3393"
      y2="111.749"
      gradientUnits="userSpaceOnUse"
    >
      <stop stop-color="#D2D9D7" />
      <stop offset="1" stop-color="#B4C0BC" />
    </linearGradient>
    <linearGradient
      id="paint2_linear_6342_255"
      x1="11.805"
      y1="107.435"
      x2="11.805"
      y2="111.761"
      gradientUnits="userSpaceOnUse"
    >
      <stop stop-color="#D2D9D7" />
      <stop offset="1" stop-color="#B4C0BC" />
    </linearGradient>
    <linearGradient
      id="paint3_linear_6342_255"
      x1="103.156"
      y1="108.35"
      x2="103.156"
      y2="111.768"
      gradientUnits="userSpaceOnUse"
    >
      <stop stop-color="#D2D9D7" />
      <stop offset="1" stop-color="#B4C0BC" />
    </linearGradient>
    <linearGradient
      id="paint4_linear_6342_255"
      x1="35.6649"
      y1="108.35"
      x2="35.6649"
      y2="111.768"
      gradientUnits="userSpaceOnUse"
    >
      <stop stop-color="#D2D9D7" />
      <stop offset="1" stop-color="#B4C0BC" />
    </linearGradient>
    <clipPath id="clip0_6342_255">
      <rect width="120" height="120" fill="white" />
    </clipPath>
    <clipPath id="clip1_6342_255">
      <rect width="130" height="104.129" fill="white" transform="translate(-5 8)" />
    </clipPath>
  </defs>
</svg>
